<svg xmlns="http://www.w3.org/2000/svg" width="29" height="37" viewBox="0 0 29 37"><g><g><g><path fill="#333091" d="M10.393 10.127l-.262.254a.423.423 0 0 0 0 .612l7.266 7.043-7.266 7.043a.423.423 0 0 0 0 .611l.262.255a.456.456 0 0 0 .631 0l7.845-7.604a.423.423 0 0 0 0-.611l-7.845-7.603a.456.456 0 0 0-.63 0z"/><path fill="none" stroke="#333091" stroke-miterlimit="20" d="M10.393 10.127l-.262.254a.423.423 0 0 0 0 .612l7.266 7.043v0l-7.266 7.043a.423.423 0 0 0 0 .611l.262.255a.456.456 0 0 0 .631 0l7.845-7.604a.423.423 0 0 0 0-.611l-7.845-7.603a.456.456 0 0 0-.63 0z"/></g></g></g></svg>