<?xml version="1.0" encoding="UTF-8"?>
<svg width="313px" height="86px" viewBox="0 0 313 86" version="1.1" xmlns="http://www.w3.org/2000/svg" xmlns:xlink="http://www.w3.org/1999/xlink">
    <title>bookkeeping-performace</title>
    <defs>
        <rect id="path-1" x="0" y="0" width="285" height="58" rx="11"></rect>
        <filter x="-5.4%" y="-30.2%" width="118.6%" height="191.4%" filterUnits="objectBoundingBox" id="filter-2">
            <feOffset dx="11" dy="9" in="SourceAlpha" result="shadowOffsetOuter1"></feOffset>
            <feGaussianBlur stdDeviation="7" in="shadowOffsetOuter1" result="shadowBlurOuter1"></feGaussianBlur>
            <feColorMatrix values="0 0 0 0 0   0 0 0 0 0   0 0 0 0 0  0 0 0 0.138904065 0" type="matrix" in="shadowBlurOuter1"></feColorMatrix>
        </filter>
    </defs>
    <g id="V2-DESIGNS" stroke="none" stroke-width="1" fill="none" fill-rule="evenodd">
        <g id="BOM-homepage--slide-1" transform="translate(-1456.000000, -2219.000000)">
            <g id="Group-31" transform="translate(953.000000, 1905.000000)">
                <g id="Group-20" transform="translate(107.000000, 0.000000)">
                    <g id="Group-24" transform="translate(399.000000, 243.000000)">
                        <g id="bookkeeping-performace" transform="translate(0.000000, 76.000000)">
                            <g id="Rectangle">
                                <use fill="black" fill-opacity="1" filter="url(#filter-2)" xlink:href="#path-1"></use>
                                <use fill="#FFFFFF" fill-rule="evenodd" xlink:href="#path-1"></use>
                            </g>
                            <path d="M73.09,34 L73.09,29.605 L74.545,29.605 C75.105,29.605 75.635,29.55 76.135,29.44 C76.635,29.33 77.0725,29.1525 77.4475,28.9075 C77.8225,28.6625 78.12,28.34 78.34,27.94 C78.56,27.54 78.67,27.045 78.67,26.455 C78.67,25.905 78.575,25.435 78.385,25.045 C78.195,24.655 77.925,24.335 77.575,24.085 C77.225,23.835 76.805,23.655 76.315,23.545 C75.825,23.435 75.275,23.38 74.665,23.38 L74.665,23.38 L71.2,23.38 L71.2,34 L73.09,34 Z M74.41,28.015 L73.09,28.015 L73.09,24.97 L74.47,24.97 C74.76,24.97 75.0425,24.9875 75.3175,25.0225 C75.5925,25.0575 75.8375,25.13 76.0525,25.24 C76.2675,25.35 76.44,25.5025 76.57,25.6975 C76.7,25.8925 76.765,26.145 76.765,26.455 C76.765,26.775 76.7,27.035 76.57,27.235 C76.44,27.435 76.265,27.5925 76.045,27.7075 C75.825,27.8225 75.575,27.9025 75.295,27.9475 C75.015,27.9925 74.72,28.015 74.41,28.015 L74.41,28.015 Z M83.71,34.21 C85.06,34.21 86.09,33.73 86.8,32.77 L86.8,32.77 L85.6,31.81 C85.4,32.1 85.145,32.3275 84.835,32.4925 C84.525,32.6575 84.145,32.74 83.695,32.74 C83.435,32.74 83.185,32.695 82.945,32.605 C82.705,32.515 82.49,32.3925 82.3,32.2375 C82.11,32.0825 81.9575,31.8975 81.8425,31.6825 C81.7275,31.4675 81.66,31.23 81.64,30.97 L81.64,30.97 L87.115,30.97 C87.125,30.89 87.13,30.81 87.13,30.73 L87.13,30.73 L87.13,30.49 C87.13,29.84 87.0425,29.2725 86.8675,28.7875 C86.6925,28.3025 86.45,27.8975 86.14,27.5725 C85.83,27.2475 85.4625,27.0025 85.0375,26.8375 C84.6125,26.6725 84.15,26.59 83.65,26.59 C83.11,26.59 82.6075,26.6825 82.1425,26.8675 C81.6775,27.0525 81.275,27.3125 80.935,27.6475 C80.595,27.9825 80.3275,28.3875 80.1325,28.8625 C79.9375,29.3375 79.84,29.865 79.84,30.445 C79.84,31.035 79.9375,31.5625 80.1325,32.0275 C80.3275,32.4925 80.5975,32.885 80.9425,33.205 C81.2875,33.525 81.695,33.7725 82.165,33.9475 C82.635,34.1225 83.15,34.21 83.71,34.21 Z M85.33,29.68 L81.64,29.68 C81.68,29.17 81.8875,28.7525 82.2625,28.4275 C82.6375,28.1025 83.095,27.94 83.635,27.94 C83.925,27.94 84.1775,27.9875 84.3925,28.0825 C84.6075,28.1775 84.785,28.305 84.925,28.465 C85.065,28.625 85.1675,28.81 85.2325,29.02 C85.2975,29.23 85.33,29.45 85.33,29.68 L85.33,29.68 Z M90.67,34 L90.67,30.145 C90.67,30.015 90.695,29.84 90.745,29.62 C90.795,29.4 90.89,29.185 91.03,28.975 C91.17,28.765 91.365,28.585 91.615,28.435 C91.865,28.285 92.195,28.21 92.605,28.21 C92.685,28.21 92.7675,28.215 92.8525,28.225 C92.9375,28.235 93.04,28.255 93.16,28.285 L93.16,28.285 L93.16,26.635 C93.1,26.615 93.03,26.6025 92.95,26.5975 C92.87,26.5925 92.795,26.59 92.725,26.59 C92.245,26.59 91.825,26.72 91.465,26.98 C91.105,27.24 90.825,27.58 90.625,28 L90.625,28 L90.595,28 L90.595,26.8 L88.87,26.8 L88.87,34 L90.67,34 Z M96.415,34 L96.415,28.24 L98.08,28.24 L98.08,26.8 L96.415,26.8 L96.415,25.63 C96.415,25.45 96.43,25.265 96.46,25.075 C96.49,24.885 96.5475,24.71 96.6325,24.55 C96.7175,24.39 96.84,24.26 97,24.16 C97.16,24.06 97.37,24.01 97.63,24.01 C97.76,24.01 97.8825,24.02 97.9975,24.04 C98.1125,24.06 98.22,24.085 98.32,24.115 L98.32,24.115 L98.44,22.585 C98.3,22.545 98.1625,22.5175 98.0275,22.5025 C97.8925,22.4875 97.725,22.48 97.525,22.48 C96.965,22.48 96.5,22.5675 96.13,22.7425 C95.76,22.9175 95.4625,23.155 95.2375,23.455 C95.0125,23.755 94.8525,24.1025 94.7575,24.4975 C94.6625,24.8925 94.615,25.305 94.615,25.735 L94.615,25.735 L94.615,26.8 L93.25,26.8 L93.25,28.24 L94.615,28.24 L94.615,34 L96.415,34 Z M102.685,34.21 C103.225,34.21 103.735,34.115 104.215,33.925 C104.695,33.735 105.11,33.4725 105.46,33.1375 C105.81,32.8025 106.0875,32.4 106.2925,31.93 C106.4975,31.46 106.6,30.94 106.6,30.37 C106.6,29.8 106.4975,29.2825 106.2925,28.8175 C106.0875,28.3525 105.81,27.955 105.46,27.625 C105.11,27.295 104.695,27.04 104.215,26.86 C103.735,26.68 103.225,26.59 102.685,26.59 C102.145,26.59 101.635,26.68 101.155,26.86 C100.675,27.04 100.26,27.295 99.91,27.625 C99.56,27.955 99.2825,28.3525 99.0775,28.8175 C98.8725,29.2825 98.77,29.8 98.77,30.37 C98.77,30.94 98.8725,31.46 99.0775,31.93 C99.2825,32.4 99.56,32.8025 99.91,33.1375 C100.26,33.4725 100.675,33.735 101.155,33.925 C101.635,34.115 102.145,34.21 102.685,34.21 Z M102.685,32.71 C102.325,32.71 102.015,32.64 101.755,32.5 C101.495,32.36 101.28,32.18 101.11,31.96 C100.94,31.74 100.8125,31.49 100.7275,31.21 C100.6425,30.93 100.6,30.65 100.6,30.37 C100.6,30.09 100.6425,29.8125 100.7275,29.5375 C100.8125,29.2625 100.94,29.015 101.11,28.795 C101.28,28.575 101.495,28.3975 101.755,28.2625 C102.015,28.1275 102.325,28.06 102.685,28.06 C103.045,28.06 103.355,28.1275 103.615,28.2625 C103.875,28.3975 104.09,28.575 104.26,28.795 C104.43,29.015 104.5575,29.2625 104.6425,29.5375 C104.7275,29.8125 104.77,30.09 104.77,30.37 C104.77,30.65 104.7275,30.93 104.6425,31.21 C104.5575,31.49 104.43,31.74 104.26,31.96 C104.09,32.18 103.875,32.36 103.615,32.5 C103.355,32.64 103.045,32.71 102.685,32.71 Z M110.14,34 L110.14,30.145 C110.14,30.015 110.165,29.84 110.215,29.62 C110.265,29.4 110.36,29.185 110.5,28.975 C110.64,28.765 110.835,28.585 111.085,28.435 C111.335,28.285 111.665,28.21 112.075,28.21 C112.155,28.21 112.2375,28.215 112.3225,28.225 C112.4075,28.235 112.51,28.255 112.63,28.285 L112.63,28.285 L112.63,26.635 C112.57,26.615 112.5,26.6025 112.42,26.5975 C112.34,26.5925 112.265,26.59 112.195,26.59 C111.715,26.59 111.295,26.72 110.935,26.98 C110.575,27.24 110.295,27.58 110.095,28 L110.095,28 L110.065,28 L110.065,26.8 L108.34,26.8 L108.34,34 L110.14,34 Z M115.6,34 L115.6,30.04 C115.6,29.8 115.6325,29.5625 115.6975,29.3275 C115.7625,29.0925 115.8575,28.885 115.9825,28.705 C116.1075,28.525 116.27,28.3775 116.47,28.2625 C116.67,28.1475 116.905,28.09 117.175,28.09 C117.635,28.09 117.9725,28.2375 118.1875,28.5325 C118.4025,28.8275 118.51,29.2 118.51,29.65 L118.51,29.65 L118.51,34 L120.31,34 L120.31,30.07 C120.31,29.84 120.34,29.6075 120.4,29.3725 C120.46,29.1375 120.555,28.925 120.685,28.735 C120.815,28.545 120.98,28.39 121.18,28.27 C121.38,28.15 121.62,28.09 121.9,28.09 C122.19,28.09 122.4225,28.15 122.5975,28.27 C122.7725,28.39 122.91,28.5425 123.01,28.7275 C123.11,28.9125 123.175,29.12 123.205,29.35 C123.235,29.58 123.25,29.8 123.25,30.01 L123.25,30.01 L123.25,34 L125.05,34 L125.05,29.5 C125.05,29.13 125,28.77 124.9,28.42 C124.8,28.07 124.6425,27.76 124.4275,27.49 C124.2125,27.22 123.9375,27.0025 123.6025,26.8375 C123.2675,26.6725 122.865,26.59 122.395,26.59 C121.855,26.59 121.385,26.7075 120.985,26.9425 C120.585,27.1775 120.265,27.515 120.025,27.955 C119.825,27.545 119.54,27.215 119.17,26.965 C118.8,26.715 118.335,26.59 117.775,26.59 C117.485,26.59 117.22,26.6275 116.98,26.7025 C116.74,26.7775 116.5275,26.88 116.3425,27.01 C116.1575,27.14 115.9975,27.285 115.8625,27.445 C115.7275,27.605 115.62,27.775 115.54,27.955 L115.54,27.955 L115.51,27.955 L115.51,26.8 L113.8,26.8 L113.8,34 L115.6,34 Z M129.34,34.18 C129.85,34.18 130.305,34.0775 130.705,33.8725 C131.105,33.6675 131.395,33.405 131.575,33.085 L131.575,33.085 L131.62,33.085 L131.62,34 L133.3,34 L133.3,29.62 C133.3,29.26 133.2525,28.9 133.1575,28.54 C133.0625,28.18 132.895,27.855 132.655,27.565 C132.415,27.275 132.0875,27.04 131.6725,26.86 C131.2575,26.68 130.73,26.59 130.09,26.59 C129.54,26.59 128.9975,26.685 128.4625,26.875 C127.9275,27.065 127.455,27.35 127.045,27.73 L127.045,27.73 L127.975,28.825 C128.205,28.595 128.495,28.4 128.845,28.24 C129.195,28.08 129.56,28 129.94,28 C130.39,28 130.7775,28.1075 131.1025,28.3225 C131.4275,28.5375 131.59,28.87 131.59,29.32 L131.59,29.32 L131.59,29.5 C131.03,29.5 130.4575,29.5275 129.8725,29.5825 C129.2875,29.6375 128.755,29.75 128.275,29.92 C127.795,30.09 127.4025,30.335 127.0975,30.655 C126.7925,30.975 126.64,31.405 126.64,31.945 C126.64,32.365 126.7275,32.7175 126.9025,33.0025 C127.0775,33.2875 127.2975,33.5175 127.5625,33.6925 C127.8275,33.8675 128.1175,33.9925 128.4325,34.0675 C128.7475,34.1425 129.05,34.18 129.34,34.18 Z M129.7,32.815 C129.55,32.815 129.4,32.8 129.25,32.77 C129.1,32.74 128.965,32.69 128.845,32.62 C128.725,32.55 128.6275,32.4575 128.5525,32.3425 C128.4775,32.2275 128.44,32.085 128.44,31.915 C128.44,31.645 128.53,31.4325 128.71,31.2775 C128.89,31.1225 129.115,31.0025 129.385,30.9175 C129.655,30.8325 129.95,30.7775 130.27,30.7525 C130.59,30.7275 130.895,30.715 131.185,30.715 L131.185,30.715 L131.59,30.715 L131.59,30.97 C131.59,31.54 131.43,31.99 131.11,32.32 C130.79,32.65 130.32,32.815 129.7,32.815 Z M137.2,34 L137.2,30.04 C137.2,29.8 137.235,29.5625 137.305,29.3275 C137.375,29.0925 137.4775,28.885 137.6125,28.705 C137.7475,28.525 137.92,28.3775 138.13,28.2625 C138.34,28.1475 138.59,28.09 138.88,28.09 C139.17,28.09 139.4025,28.15 139.5775,28.27 C139.7525,28.39 139.89,28.5425 139.99,28.7275 C140.09,28.9125 140.155,29.12 140.185,29.35 C140.215,29.58 140.23,29.8 140.23,30.01 L140.23,30.01 L140.23,34 L142.03,34 L142.03,29.5 C142.03,29.13 141.98,28.77 141.88,28.42 C141.78,28.07 141.6225,27.76 141.4075,27.49 C141.1925,27.22 140.9175,27.0025 140.5825,26.8375 C140.2475,26.6725 139.845,26.59 139.375,26.59 C138.835,26.59 138.3675,26.7275 137.9725,27.0025 C137.5775,27.2775 137.3,27.595 137.14,27.955 L137.14,27.955 L137.11,27.955 L137.11,26.8 L135.4,26.8 L135.4,34 L137.2,34 Z M147.61,34.21 C148.15,34.21 148.6525,34.1225 149.1175,33.9475 C149.5825,33.7725 149.965,33.525 150.265,33.205 L150.265,33.205 L149.14,32.065 C148.97,32.275 148.745,32.435 148.465,32.545 C148.185,32.655 147.905,32.71 147.625,32.71 C147.285,32.71 146.9875,32.6425 146.7325,32.5075 C146.4775,32.3725 146.265,32.195 146.095,31.975 C145.925,31.755 145.7975,31.5075 145.7125,31.2325 C145.6275,30.9575 145.585,30.68 145.585,30.4 C145.585,30.12 145.625,29.8425 145.705,29.5675 C145.785,29.2925 145.9075,29.045 146.0725,28.825 C146.2375,28.605 146.445,28.4275 146.695,28.2925 C146.945,28.1575 147.235,28.09 147.565,28.09 C147.855,28.09 148.14,28.1575 148.42,28.2925 C148.7,28.4275 148.91,28.595 149.05,28.795 L149.05,28.795 L150.28,27.715 C149.99,27.365 149.5975,27.09 149.1025,26.89 C148.6075,26.69 148.095,26.59 147.565,26.59 C147.035,26.59 146.5375,26.68 146.0725,26.86 C145.6075,27.04 145.2,27.295 144.85,27.625 C144.5,27.955 144.2225,28.355 144.0175,28.825 C143.8125,29.295 143.71,29.82 143.71,30.4 C143.71,31 143.8125,31.535 144.0175,32.005 C144.2225,32.475 144.5025,32.875 144.8575,33.205 C145.2125,33.535 145.6275,33.785 146.1025,33.955 C146.5775,34.125 147.08,34.21 147.61,34.21 Z M154.9,34.21 C156.25,34.21 157.28,33.73 157.99,32.77 L157.99,32.77 L156.79,31.81 C156.59,32.1 156.335,32.3275 156.025,32.4925 C155.715,32.6575 155.335,32.74 154.885,32.74 C154.625,32.74 154.375,32.695 154.135,32.605 C153.895,32.515 153.68,32.3925 153.49,32.2375 C153.3,32.0825 153.1475,31.8975 153.0325,31.6825 C152.9175,31.4675 152.85,31.23 152.83,30.97 L152.83,30.97 L158.305,30.97 C158.315,30.89 158.32,30.81 158.32,30.73 L158.32,30.73 L158.32,30.49 C158.32,29.84 158.2325,29.2725 158.0575,28.7875 C157.8825,28.3025 157.64,27.8975 157.33,27.5725 C157.02,27.2475 156.6525,27.0025 156.2275,26.8375 C155.8025,26.6725 155.34,26.59 154.84,26.59 C154.3,26.59 153.7975,26.6825 153.3325,26.8675 C152.8675,27.0525 152.465,27.3125 152.125,27.6475 C151.785,27.9825 151.5175,28.3875 151.3225,28.8625 C151.1275,29.3375 151.03,29.865 151.03,30.445 C151.03,31.035 151.1275,31.5625 151.3225,32.0275 C151.5175,32.4925 151.7875,32.885 152.1325,33.205 C152.4775,33.525 152.885,33.7725 153.355,33.9475 C153.825,34.1225 154.34,34.21 154.9,34.21 Z M156.52,29.68 L152.83,29.68 C152.87,29.17 153.0775,28.7525 153.4525,28.4275 C153.8275,28.1025 154.285,27.94 154.825,27.94 C155.115,27.94 155.3675,27.9875 155.5825,28.0825 C155.7975,28.1775 155.975,28.305 156.115,28.465 C156.255,28.625 156.3575,28.81 156.4225,29.02 C156.4875,29.23 156.52,29.45 156.52,29.68 L156.52,29.68 Z M167.725,34 C168.225,34 168.7175,33.9475 169.2025,33.8425 C169.6875,33.7375 170.1175,33.565 170.4925,33.325 C170.8675,33.085 171.17,32.7675 171.4,32.3725 C171.63,31.9775 171.745,31.49 171.745,30.91 C171.745,30.19 171.53,29.615 171.1,29.185 C170.67,28.755 170.12,28.495 169.45,28.405 L169.45,28.405 L169.45,28.375 C170,28.205 170.445,27.925 170.785,27.535 C171.125,27.145 171.295,26.65 171.295,26.05 C171.295,25.57 171.2,25.16 171.01,24.82 C170.82,24.48 170.5725,24.2025 170.2675,23.9875 C169.9625,23.7725 169.615,23.6175 169.225,23.5225 C168.835,23.4275 168.44,23.38 168.04,23.38 L168.04,23.38 L163.9,23.38 L163.9,34 L167.725,34 Z M167.47,27.7 L165.79,27.7 L165.79,24.94 L167.305,24.94 C168.025,24.94 168.555,25.04 168.895,25.24 C169.235,25.44 169.405,25.78 169.405,26.26 C169.405,26.72 169.24,27.075 168.91,27.325 C168.58,27.575 168.1,27.7 167.47,27.7 L167.47,27.7 Z M167.485,32.41 L165.79,32.41 L165.79,29.32 L167.56,29.32 C168.33,29.32 168.905,29.43 169.285,29.65 C169.665,29.87 169.855,30.26 169.855,30.82 C169.855,31.17 169.7775,31.45 169.6225,31.66 C169.4675,31.87 169.2725,32.03 169.0375,32.14 C168.8025,32.25 168.545,32.3225 168.265,32.3575 C167.985,32.3925 167.725,32.41 167.485,32.41 L167.485,32.41 Z M177.01,34.21 C177.55,34.21 178.06,34.115 178.54,33.925 C179.02,33.735 179.435,33.4725 179.785,33.1375 C180.135,32.8025 180.4125,32.4 180.6175,31.93 C180.8225,31.46 180.925,30.94 180.925,30.37 C180.925,29.8 180.8225,29.2825 180.6175,28.8175 C180.4125,28.3525 180.135,27.955 179.785,27.625 C179.435,27.295 179.02,27.04 178.54,26.86 C178.06,26.68 177.55,26.59 177.01,26.59 C176.47,26.59 175.96,26.68 175.48,26.86 C175,27.04 174.585,27.295 174.235,27.625 C173.885,27.955 173.6075,28.3525 173.4025,28.8175 C173.1975,29.2825 173.095,29.8 173.095,30.37 C173.095,30.94 173.1975,31.46 173.4025,31.93 C173.6075,32.4 173.885,32.8025 174.235,33.1375 C174.585,33.4725 175,33.735 175.48,33.925 C175.96,34.115 176.47,34.21 177.01,34.21 Z M177.01,32.71 C176.65,32.71 176.34,32.64 176.08,32.5 C175.82,32.36 175.605,32.18 175.435,31.96 C175.265,31.74 175.1375,31.49 175.0525,31.21 C174.9675,30.93 174.925,30.65 174.925,30.37 C174.925,30.09 174.9675,29.8125 175.0525,29.5375 C175.1375,29.2625 175.265,29.015 175.435,28.795 C175.605,28.575 175.82,28.3975 176.08,28.2625 C176.34,28.1275 176.65,28.06 177.01,28.06 C177.37,28.06 177.68,28.1275 177.94,28.2625 C178.2,28.3975 178.415,28.575 178.585,28.795 C178.755,29.015 178.8825,29.2625 178.9675,29.5375 C179.0525,29.8125 179.095,30.09 179.095,30.37 C179.095,30.65 179.0525,30.93 178.9675,31.21 C178.8825,31.49 178.755,31.74 178.585,31.96 C178.415,32.18 178.2,32.36 177.94,32.5 C177.68,32.64 177.37,32.71 177.01,32.71 Z M186.16,34.21 C186.7,34.21 187.21,34.115 187.69,33.925 C188.17,33.735 188.585,33.4725 188.935,33.1375 C189.285,32.8025 189.5625,32.4 189.7675,31.93 C189.9725,31.46 190.075,30.94 190.075,30.37 C190.075,29.8 189.9725,29.2825 189.7675,28.8175 C189.5625,28.3525 189.285,27.955 188.935,27.625 C188.585,27.295 188.17,27.04 187.69,26.86 C187.21,26.68 186.7,26.59 186.16,26.59 C185.62,26.59 185.11,26.68 184.63,26.86 C184.15,27.04 183.735,27.295 183.385,27.625 C183.035,27.955 182.7575,28.3525 182.5525,28.8175 C182.3475,29.2825 182.245,29.8 182.245,30.37 C182.245,30.94 182.3475,31.46 182.5525,31.93 C182.7575,32.4 183.035,32.8025 183.385,33.1375 C183.735,33.4725 184.15,33.735 184.63,33.925 C185.11,34.115 185.62,34.21 186.16,34.21 Z M186.16,32.71 C185.8,32.71 185.49,32.64 185.23,32.5 C184.97,32.36 184.755,32.18 184.585,31.96 C184.415,31.74 184.2875,31.49 184.2025,31.21 C184.1175,30.93 184.075,30.65 184.075,30.37 C184.075,30.09 184.1175,29.8125 184.2025,29.5375 C184.2875,29.2625 184.415,29.015 184.585,28.795 C184.755,28.575 184.97,28.3975 185.23,28.2625 C185.49,28.1275 185.8,28.06 186.16,28.06 C186.52,28.06 186.83,28.1275 187.09,28.2625 C187.35,28.3975 187.565,28.575 187.735,28.795 C187.905,29.015 188.0325,29.2625 188.1175,29.5375 C188.2025,29.8125 188.245,30.09 188.245,30.37 C188.245,30.65 188.2025,30.93 188.1175,31.21 C188.0325,31.49 187.905,31.74 187.735,31.96 C187.565,32.18 187.35,32.36 187.09,32.5 C186.83,32.64 186.52,32.71 186.16,32.71 Z M193.645,34 L193.645,30.31 L193.69,30.31 L196.54,34 L198.925,34 L195.61,30.055 L198.73,26.8 L196.42,26.8 L193.69,29.83 L193.645,29.83 L193.645,22.66 L191.845,22.66 L191.845,34 L193.645,34 Z M201.79,34 L201.79,30.31 L201.835,30.31 L204.685,34 L207.07,34 L203.755,30.055 L206.875,26.8 L204.565,26.8 L201.835,29.83 L201.79,29.83 L201.79,22.66 L199.99,22.66 L199.99,34 L201.79,34 Z M211.555,34.21 C212.905,34.21 213.935,33.73 214.645,32.77 L214.645,32.77 L213.445,31.81 C213.245,32.1 212.99,32.3275 212.68,32.4925 C212.37,32.6575 211.99,32.74 211.54,32.74 C211.28,32.74 211.03,32.695 210.79,32.605 C210.55,32.515 210.335,32.3925 210.145,32.2375 C209.955,32.0825 209.8025,31.8975 209.6875,31.6825 C209.5725,31.4675 209.505,31.23 209.485,30.97 L209.485,30.97 L214.96,30.97 C214.97,30.89 214.975,30.81 214.975,30.73 L214.975,30.73 L214.975,30.49 C214.975,29.84 214.8875,29.2725 214.7125,28.7875 C214.5375,28.3025 214.295,27.8975 213.985,27.5725 C213.675,27.2475 213.3075,27.0025 212.8825,26.8375 C212.4575,26.6725 211.995,26.59 211.495,26.59 C210.955,26.59 210.4525,26.6825 209.9875,26.8675 C209.5225,27.0525 209.12,27.3125 208.78,27.6475 C208.44,27.9825 208.1725,28.3875 207.9775,28.8625 C207.7825,29.3375 207.685,29.865 207.685,30.445 C207.685,31.035 207.7825,31.5625 207.9775,32.0275 C208.1725,32.4925 208.4425,32.885 208.7875,33.205 C209.1325,33.525 209.54,33.7725 210.01,33.9475 C210.48,34.1225 210.995,34.21 211.555,34.21 Z M213.175,29.68 L209.485,29.68 C209.525,29.17 209.7325,28.7525 210.1075,28.4275 C210.4825,28.1025 210.94,27.94 211.48,27.94 C211.77,27.94 212.0225,27.9875 212.2375,28.0825 C212.4525,28.1775 212.63,28.305 212.77,28.465 C212.91,28.625 213.0125,28.81 213.0775,29.02 C213.1425,29.23 213.175,29.45 213.175,29.68 L213.175,29.68 Z M220.165,34.21 C221.515,34.21 222.545,33.73 223.255,32.77 L223.255,32.77 L222.055,31.81 C221.855,32.1 221.6,32.3275 221.29,32.4925 C220.98,32.6575 220.6,32.74 220.15,32.74 C219.89,32.74 219.64,32.695 219.4,32.605 C219.16,32.515 218.945,32.3925 218.755,32.2375 C218.565,32.0825 218.4125,31.8975 218.2975,31.6825 C218.1825,31.4675 218.115,31.23 218.095,30.97 L218.095,30.97 L223.57,30.97 C223.58,30.89 223.585,30.81 223.585,30.73 L223.585,30.73 L223.585,30.49 C223.585,29.84 223.4975,29.2725 223.3225,28.7875 C223.1475,28.3025 222.905,27.8975 222.595,27.5725 C222.285,27.2475 221.9175,27.0025 221.4925,26.8375 C221.0675,26.6725 220.605,26.59 220.105,26.59 C219.565,26.59 219.0625,26.6825 218.5975,26.8675 C218.1325,27.0525 217.73,27.3125 217.39,27.6475 C217.05,27.9825 216.7825,28.3875 216.5875,28.8625 C216.3925,29.3375 216.295,29.865 216.295,30.445 C216.295,31.035 216.3925,31.5625 216.5875,32.0275 C216.7825,32.4925 217.0525,32.885 217.3975,33.205 C217.7425,33.525 218.15,33.7725 218.62,33.9475 C219.09,34.1225 219.605,34.21 220.165,34.21 Z M221.785,29.68 L218.095,29.68 C218.135,29.17 218.3425,28.7525 218.7175,28.4275 C219.0925,28.1025 219.55,27.94 220.09,27.94 C220.38,27.94 220.6325,27.9875 220.8475,28.0825 C221.0625,28.1775 221.24,28.305 221.38,28.465 C221.52,28.625 221.6225,28.81 221.6875,29.02 C221.7525,29.23 221.785,29.45 221.785,29.68 L221.785,29.68 Z M227.125,37.6 L227.125,33.04 L227.155,33.04 C227.385,33.4 227.7125,33.685 228.1375,33.895 C228.5625,34.105 229.03,34.21 229.54,34.21 C230.09,34.21 230.5825,34.1075 231.0175,33.9025 C231.4525,33.6975 231.8225,33.4225 232.1275,33.0775 C232.4325,32.7325 232.6675,32.3275 232.8325,31.8625 C232.9975,31.3975 233.08,30.9 233.08,30.37 C233.08,29.84 232.995,29.345 232.825,28.885 C232.655,28.425 232.415,28.025 232.105,27.685 C231.795,27.345 231.425,27.0775 230.995,26.8825 C230.565,26.6875 230.095,26.59 229.585,26.59 C229.255,26.59 228.9575,26.6275 228.6925,26.7025 C228.4275,26.7775 228.19,26.8725 227.98,26.9875 C227.77,27.1025 227.5925,27.2325 227.4475,27.3775 C227.3025,27.5225 227.185,27.665 227.095,27.805 L227.095,27.805 L227.05,27.805 L227.05,26.8 L225.325,26.8 L225.325,37.6 L227.125,37.6 Z M229.18,32.71 C228.85,32.71 228.555,32.6425 228.295,32.5075 C228.035,32.3725 227.8125,32.195 227.6275,31.975 C227.4425,31.755 227.3025,31.5075 227.2075,31.2325 C227.1125,30.9575 227.065,30.68 227.065,30.4 C227.065,30.12 227.1125,29.84 227.2075,29.56 C227.3025,29.28 227.4425,29.03 227.6275,28.81 C227.8125,28.59 228.035,28.41 228.295,28.27 C228.555,28.13 228.85,28.06 229.18,28.06 C229.53,28.06 229.835,28.1275 230.095,28.2625 C230.355,28.3975 230.57,28.575 230.74,28.795 C230.91,29.015 231.0375,29.2625 231.1225,29.5375 C231.2075,29.8125 231.25,30.09 231.25,30.37 C231.25,30.65 231.2075,30.93 231.1225,31.21 C231.0375,31.49 230.91,31.74 230.74,31.96 C230.57,32.18 230.355,32.36 230.095,32.5 C229.835,32.64 229.53,32.71 229.18,32.71 Z M235.735,25.435 C236.065,25.435 236.3425,25.3325 236.5675,25.1275 C236.7925,24.9225 236.905,24.665 236.905,24.355 C236.905,24.045 236.7925,23.7875 236.5675,23.5825 C236.3425,23.3775 236.065,23.275 235.735,23.275 C235.405,23.275 235.1325,23.3825 234.9175,23.5975 C234.7025,23.8125 234.595,24.065 234.595,24.355 C234.595,24.645 234.7025,24.8975 234.9175,25.1125 C235.1325,25.3275 235.405,25.435 235.735,25.435 Z M236.65,34 L236.65,26.8 L234.85,26.8 L234.85,34 L236.65,34 Z M240.64,34 L240.64,30.04 C240.64,29.8 240.675,29.5625 240.745,29.3275 C240.815,29.0925 240.9175,28.885 241.0525,28.705 C241.1875,28.525 241.36,28.3775 241.57,28.2625 C241.78,28.1475 242.03,28.09 242.32,28.09 C242.61,28.09 242.8425,28.15 243.0175,28.27 C243.1925,28.39 243.33,28.5425 243.43,28.7275 C243.53,28.9125 243.595,29.12 243.625,29.35 C243.655,29.58 243.67,29.8 243.67,30.01 L243.67,30.01 L243.67,34 L245.47,34 L245.47,29.5 C245.47,29.13 245.42,28.77 245.32,28.42 C245.22,28.07 245.0625,27.76 244.8475,27.49 C244.6325,27.22 244.3575,27.0025 244.0225,26.8375 C243.6875,26.6725 243.285,26.59 242.815,26.59 C242.275,26.59 241.8075,26.7275 241.4125,27.0025 C241.0175,27.2775 240.74,27.595 240.58,27.955 L240.58,27.955 L240.55,27.955 L240.55,26.8 L238.84,26.8 L238.84,34 L240.64,34 Z M250.825,37.6 C251.525,37.6 252.13,37.5 252.64,37.3 C253.15,37.1 253.5725,36.8175 253.9075,36.4525 C254.2425,36.0875 254.49,35.6425 254.65,35.1175 C254.81,34.5925 254.89,34.005 254.89,33.355 L254.89,33.355 L254.89,26.8 L253.18,26.8 L253.18,27.88 L253.15,27.88 C252.89,27.44 252.54,27.115 252.1,26.905 C251.66,26.695 251.185,26.59 250.675,26.59 C250.135,26.59 249.6475,26.69 249.2125,26.89 C248.7775,27.09 248.4075,27.36 248.1025,27.7 C247.7975,28.04 247.5625,28.44 247.3975,28.9 C247.2325,29.36 247.15,29.85 247.15,30.37 C247.15,30.88 247.235,31.3625 247.405,31.8175 C247.575,32.2725 247.8125,32.67 248.1175,33.01 C248.4225,33.35 248.795,33.62 249.235,33.82 C249.675,34.02 250.165,34.12 250.705,34.12 C251.205,34.12 251.6575,34.0275 252.0625,33.8425 C252.4675,33.6575 252.8,33.39 253.06,33.04 L253.06,33.04 L253.09,33.04 L253.09,33.565 C253.09,33.925 253.0525,34.255 252.9775,34.555 C252.9025,34.855 252.7775,35.115 252.6025,35.335 C252.4275,35.555 252.1925,35.7275 251.8975,35.8525 C251.6025,35.9775 251.24,36.04 250.81,36.04 C250.36,36.04 249.915,35.9525 249.475,35.7775 C249.035,35.6025 248.64,35.35 248.29,35.02 L248.29,35.02 L247.255,36.415 C247.485,36.605 247.745,36.775 248.035,36.925 C248.325,37.075 248.6275,37.2 248.9425,37.3 C249.2575,37.4 249.5775,37.475 249.9025,37.525 C250.2275,37.575 250.535,37.6 250.825,37.6 Z M251.035,32.635 C250.715,32.635 250.4275,32.57 250.1725,32.44 C249.9175,32.31 249.7025,32.1375 249.5275,31.9225 C249.3525,31.7075 249.2175,31.465 249.1225,31.195 C249.0275,30.925 248.98,30.645 248.98,30.355 C248.98,30.035 249.0275,29.735 249.1225,29.455 C249.2175,29.175 249.3525,28.9325 249.5275,28.7275 C249.7025,28.5225 249.9175,28.36 250.1725,28.24 C250.4275,28.12 250.72,28.06 251.05,28.06 C251.38,28.06 251.675,28.12 251.935,28.24 C252.195,28.36 252.4175,28.525 252.6025,28.735 C252.7875,28.945 252.93,29.19 253.03,29.47 C253.13,29.75 253.18,30.045 253.18,30.355 C253.18,30.655 253.13,30.9425 253.03,31.2175 C252.93,31.4925 252.7875,31.735 252.6025,31.945 C252.4175,32.155 252.1925,32.3225 251.9275,32.4475 C251.6625,32.5725 251.365,32.635 251.035,32.635 Z" id="PerformanceBookkeeping" fill="#333091" fill-rule="nonzero"></path>
                            <circle id="Oval" fill="#333091" cx="33" cy="30" r="17"></circle>
                            <g id="icon_check@1x-copy-2" transform="translate(24.000000, 21.500000)" fill="#FFFFFF" fill-rule="nonzero">
                                <path d="M6.49547826,15.9563478 C6.52504348,15.98 6.54278261,16.0125217 6.57382609,16.0346957 C6.61817391,16.0642609 6.66843478,16.0701739 6.71573913,16.0908696 C6.77191304,16.1174783 6.8266087,16.1426087 6.88573913,16.1588696 C6.9433913,16.1736522 6.99956522,16.1810435 7.05869565,16.1854783 C7.14295652,16.1943478 7.22426087,16.1943478 7.30704348,16.1825217 C7.34104348,16.1766087 7.37356522,16.1677391 7.40756522,16.1588696 C7.50956522,16.1337391 7.60417391,16.0938261 7.69730435,16.0376522 C7.71356522,16.0273043 7.72686957,16.0154783 7.74313043,16.0051304 C7.80373913,15.9637391 7.86878261,15.9326957 7.92052174,15.8765217 C7.95747826,15.8366087 7.97373913,15.7848696 8.00330435,15.7405217 C8.00478261,15.7390435 8.00773913,15.7375652 8.00773913,15.736087 L16.8166957,1.61721739 C17.130087,1.13973913 16.9955652,0.498173913 16.5166087,0.184782609 C16.0376522,-0.128608696 15.3975652,0.00591304348 15.0841739,0.484869565 L6.94782609,13.5246087 L2.448,9.14747826 C2.02817391,8.75869565 1.37478261,8.78382609 0.986,9.20365217 C0.598695652,9.62347826 0.623826087,10.2783478 1.04365217,10.6656522 L6.45704348,15.9326957 C6.4673913,15.9430435 6.48217391,15.946 6.49547826,15.9563478 Z" id="Path"></path>
                            </g>
                        </g>
                    </g>
                </g>
            </g>
        </g>
    </g>
</svg>