<svg xmlns="http://www.w3.org/2000/svg" width="30" height="40" viewBox="0 0 30 40"><g><g><g><path fill="#333091" d="M3.5 34.829a22.38 22.38 0 0 1 2.363-4.984H24.09a23.025 23.025 0 0 1 2.379 4.984zM15.004 18.44c-3.165-1.808-5.536-3.895-7.293-6.006h14.624c-1.765 2.103-4.152 4.182-7.331 6.006zM26.507 4.974a22.221 22.221 0 0 1-2.363 4.984H5.91a23.159 23.159 0 0 1-2.37-4.984zM.081 39.132a.619.619 0 0 0 .622.66h1.251c.327 0 .599-.24.622-.567.031-.435.109-1.095.272-1.92h24.296c.17.832.256 1.5.287 1.928.031.319.295.56.622.56h1.251a.619.619 0 0 0 .622-.66c-.179-2.45-1.438-11.037-10.275-17.713-.722.49-1.492.963-2.3 1.422a25.391 25.391 0 0 1 4.912 4.523H7.675c1.873-2.238 4.43-4.469 7.927-6.373C28.131 14.168 29.724 3.451 29.926.661A.619.619 0 0 0 29.304 0h-1.251a.614.614 0 0 0-.622.567 16.123 16.123 0 0 1-.272 1.928H2.864A17.37 17.37 0 0 1 2.576.567a.618.618 0 0 0-.622-.56L.704 0A.623.623 0 0 0 .08.66c.195 2.643 1.687 12.397 12.513 19.22C1.737 26.706.276 36.49.081 39.133z"/></g></g></g></svg>