<?xml version="1.0" encoding="UTF-8"?>
<svg width="295px" height="86px" viewBox="0 0 295 86" version="1.1" xmlns="http://www.w3.org/2000/svg" xmlns:xlink="http://www.w3.org/1999/xlink">
    <title>GST audit report</title>
    <defs>
        <rect id="path-1" x="0" y="0" width="266" height="58" rx="11"></rect>
        <filter x="-5.8%" y="-30.2%" width="119.9%" height="191.4%" filterUnits="objectBoundingBox" id="filter-2">
            <feOffset dx="11" dy="9" in="SourceAlpha" result="shadowOffsetOuter1"></feOffset>
            <feGaussianBlur stdDeviation="7" in="shadowOffsetOuter1" result="shadowBlurOuter1"></feGaussianBlur>
            <feColorMatrix values="0 0 0 0 0   0 0 0 0 0   0 0 0 0 0  0 0 0 0.138904065 0" type="matrix" in="shadowBlurOuter1"></feColorMatrix>
        </filter>
    </defs>
    <g id="V2-DESIGNS" stroke="none" stroke-width="1" fill="none" fill-rule="evenodd">
        <g id="BOM-homepage--slide-1" transform="translate(-929.000000, -629.000000)">
            <g id="Image-1" transform="translate(-44.000000, -6.000000)">
                <g id="Group-19" transform="translate(976.500000, 640.000000)">
                    <g id="Group">
                        <g id="Rectangle">
                            <use fill="black" fill-opacity="1" filter="url(#filter-2)" xlink:href="#path-1"></use>
                            <use fill="#FFFFFF" fill-rule="evenodd" xlink:href="#path-1"></use>
                        </g>
                        <path d="M78.199,35.324 C79.207,35.324 80.098,35.237 80.872,35.063 C81.646,34.889 82.357,34.646 83.005,34.334 L83.005,34.334 L83.005,27.728 L78.127,27.728 L78.127,29.6 L80.809,29.6 L80.809,32.84 C80.089,33.14 79.243,33.29 78.271,33.29 C77.563,33.29 76.93,33.173 76.372,32.939 C75.814,32.705 75.34,32.378 74.95,31.958 C74.56,31.538 74.26,31.043 74.05,30.473 C73.84,29.903 73.735,29.276 73.735,28.592 C73.735,27.932 73.84,27.32 74.05,26.756 C74.26,26.192 74.557,25.7 74.941,25.28 C75.325,24.86 75.79,24.53 76.336,24.29 C76.882,24.05 77.491,23.93 78.163,23.93 C78.847,23.93 79.48,24.056 80.062,24.308 C80.644,24.56 81.097,24.866 81.421,25.226 L81.421,25.226 L82.987,23.534 C82.471,23.054 81.79,22.667 80.944,22.373 C80.098,22.079 79.165,21.932 78.145,21.932 C77.161,21.932 76.249,22.088 75.409,22.4 C74.569,22.712 73.84,23.156 73.222,23.732 C72.604,24.308 72.118,25.007 71.764,25.829 C71.41,26.651 71.233,27.572 71.233,28.592 C71.233,29.588 71.404,30.497 71.746,31.319 C72.088,32.141 72.565,32.849 73.177,33.443 C73.789,34.037 74.521,34.499 75.373,34.829 C76.225,35.159 77.167,35.324 78.199,35.324 Z M89.179,35.324 C89.803,35.324 90.397,35.24 90.961,35.072 C91.525,34.904 92.017,34.652 92.437,34.316 C92.857,33.98 93.193,33.557 93.445,33.047 C93.697,32.537 93.823,31.94 93.823,31.256 C93.823,30.632 93.706,30.11 93.472,29.69 C93.238,29.27 92.938,28.922 92.572,28.646 C92.206,28.37 91.804,28.148 91.366,27.98 C90.928,27.812 90.505,27.662 90.097,27.53 C89.737,27.422 89.407,27.314 89.107,27.206 C88.807,27.098 88.552,26.972 88.342,26.828 C88.132,26.684 87.967,26.51 87.847,26.306 C87.727,26.102 87.667,25.856 87.667,25.568 C87.667,25.256 87.736,24.989 87.874,24.767 C88.012,24.545 88.189,24.365 88.405,24.227 C88.621,24.089 88.861,23.987 89.125,23.921 C89.389,23.855 89.653,23.822 89.917,23.822 C90.361,23.822 90.802,23.927 91.24,24.137 C91.678,24.347 92.017,24.608 92.257,24.92 L92.257,24.92 L93.733,23.3 C93.241,22.844 92.662,22.502 91.996,22.274 C91.33,22.046 90.673,21.932 90.025,21.932 C89.449,21.932 88.882,22.007 88.324,22.157 C87.766,22.307 87.268,22.535 86.83,22.841 C86.392,23.147 86.038,23.534 85.768,24.002 C85.498,24.47 85.363,25.028 85.363,25.676 C85.363,26.276 85.459,26.777 85.651,27.179 C85.843,27.581 86.092,27.92 86.398,28.196 C86.704,28.472 87.049,28.694 87.433,28.862 C87.817,29.03 88.201,29.174 88.585,29.294 C88.981,29.426 89.359,29.552 89.719,29.672 C90.079,29.792 90.391,29.933 90.655,30.095 C90.919,30.257 91.129,30.449 91.285,30.671 C91.441,30.893 91.519,31.172 91.519,31.508 C91.519,31.856 91.45,32.147 91.312,32.381 C91.174,32.615 90.994,32.81 90.772,32.966 C90.55,33.122 90.301,33.233 90.025,33.299 C89.749,33.365 89.479,33.398 89.215,33.398 C88.711,33.398 88.198,33.272 87.676,33.02 C87.154,32.768 86.737,32.426 86.425,31.994 L86.425,31.994 L84.805,33.506 C85.309,34.106 85.957,34.559 86.749,34.865 C87.541,35.171 88.351,35.324 89.179,35.324 Z M100.933,35 L100.933,24.236 L104.839,24.236 L104.839,22.256 L94.759,22.256 L94.759,24.236 L98.665,24.236 L98.665,35 L100.933,35 Z M113.083,35 L113.083,29.6 L114.739,29.6 L117.691,35 L120.427,35 L117.025,29.348 C117.925,29.144 118.636,28.751 119.158,28.169 C119.68,27.587 119.941,26.834 119.941,25.91 C119.941,25.238 119.809,24.668 119.545,24.2 C119.281,23.732 118.93,23.354 118.492,23.066 C118.054,22.778 117.553,22.571 116.989,22.445 C116.425,22.319 115.843,22.256 115.243,22.256 L115.243,22.256 L110.815,22.256 L110.815,35 L113.083,35 Z M114.937,27.746 L113.083,27.746 L113.083,24.164 L115.135,24.164 C115.423,24.164 115.72,24.188 116.026,24.236 C116.332,24.284 116.605,24.374 116.845,24.506 C117.085,24.638 117.283,24.815 117.439,25.037 C117.595,25.259 117.673,25.544 117.673,25.892 C117.673,26.276 117.589,26.591 117.421,26.837 C117.253,27.083 117.04,27.272 116.782,27.404 C116.524,27.536 116.233,27.626 115.909,27.674 C115.585,27.722 115.261,27.746 114.937,27.746 L114.937,27.746 Z M126.169,35.252 C127.789,35.252 129.025,34.676 129.877,33.524 L129.877,33.524 L128.437,32.372 C128.197,32.72 127.891,32.993 127.519,33.191 C127.147,33.389 126.691,33.488 126.151,33.488 C125.839,33.488 125.539,33.434 125.251,33.326 C124.963,33.218 124.705,33.071 124.477,32.885 C124.249,32.699 124.066,32.477 123.928,32.219 C123.79,31.961 123.709,31.676 123.685,31.364 L123.685,31.364 L130.255,31.364 C130.267,31.268 130.273,31.172 130.273,31.076 L130.273,31.076 L130.273,30.788 C130.273,30.008 130.168,29.327 129.958,28.745 C129.748,28.163 129.457,27.677 129.085,27.287 C128.713,26.897 128.272,26.603 127.762,26.405 C127.252,26.207 126.697,26.108 126.097,26.108 C125.449,26.108 124.846,26.219 124.288,26.441 C123.73,26.663 123.247,26.975 122.839,27.377 C122.431,27.779 122.11,28.265 121.876,28.835 C121.642,29.405 121.525,30.038 121.525,30.734 C121.525,31.442 121.642,32.075 121.876,32.633 C122.11,33.191 122.434,33.662 122.848,34.046 C123.262,34.43 123.751,34.727 124.315,34.937 C124.879,35.147 125.497,35.252 126.169,35.252 Z M128.113,29.816 L123.685,29.816 C123.733,29.204 123.982,28.703 124.432,28.313 C124.882,27.923 125.431,27.728 126.079,27.728 C126.427,27.728 126.73,27.785 126.988,27.899 C127.246,28.013 127.459,28.166 127.627,28.358 C127.795,28.55 127.918,28.772 127.996,29.024 C128.074,29.276 128.113,29.54 128.113,29.816 L128.113,29.816 Z M135.439,35.18 C135.679,35.18 135.931,35.159 136.195,35.117 C136.459,35.075 136.687,35.018 136.879,34.946 L136.879,34.946 L136.807,33.254 C136.675,33.314 136.525,33.359 136.357,33.389 C136.189,33.419 136.033,33.434 135.889,33.434 C135.409,33.434 135.1,33.308 134.962,33.056 C134.824,32.804 134.755,32.486 134.755,32.102 L134.755,32.102 L134.755,28.088 L136.915,28.088 L136.915,26.36 L134.755,26.36 L134.755,23.858 L132.631,23.858 L132.631,26.36 L131.119,26.36 L131.119,28.088 L132.631,28.088 L132.631,32.12 C132.631,32.54 132.67,32.933 132.748,33.299 C132.826,33.665 132.97,33.989 133.18,34.271 C133.39,34.553 133.675,34.775 134.035,34.937 C134.395,35.099 134.863,35.18 135.439,35.18 Z M141.595,35.252 C142.243,35.252 142.804,35.087 143.278,34.757 C143.752,34.427 144.085,34.046 144.277,33.614 L144.277,33.614 L144.313,33.614 L144.313,35 L146.365,35 L146.365,26.36 L144.205,26.36 L144.205,31.112 C144.205,31.4 144.163,31.685 144.079,31.967 C143.995,32.249 143.872,32.498 143.71,32.714 C143.548,32.93 143.338,33.107 143.08,33.245 C142.822,33.383 142.525,33.452 142.189,33.452 C141.841,33.452 141.562,33.38 141.352,33.236 C141.142,33.092 140.977,32.909 140.857,32.687 C140.737,32.465 140.659,32.216 140.623,31.94 C140.587,31.664 140.569,31.4 140.569,31.148 L140.569,31.148 L140.569,26.36 L138.409,26.36 L138.409,31.76 C138.409,32.204 138.469,32.636 138.589,33.056 C138.709,33.476 138.898,33.848 139.156,34.172 C139.414,34.496 139.744,34.757 140.146,34.955 C140.548,35.153 141.031,35.252 141.595,35.252 Z M151.117,35 L151.117,30.374 C151.117,30.218 151.147,30.008 151.207,29.744 C151.267,29.48 151.381,29.222 151.549,28.97 C151.717,28.718 151.951,28.502 152.251,28.322 C152.551,28.142 152.947,28.052 153.439,28.052 C153.535,28.052 153.634,28.058 153.736,28.07 C153.838,28.082 153.961,28.106 154.105,28.142 L154.105,28.142 L154.105,26.162 C154.033,26.138 153.949,26.123 153.853,26.117 C153.757,26.111 153.667,26.108 153.583,26.108 C153.007,26.108 152.503,26.264 152.071,26.576 C151.639,26.888 151.303,27.296 151.063,27.8 L151.063,27.8 L151.027,27.8 L151.027,26.36 L148.957,26.36 L148.957,35 L151.117,35 Z M157.669,35 L157.669,30.248 C157.669,29.96 157.711,29.675 157.795,29.393 C157.879,29.111 158.002,28.862 158.164,28.646 C158.326,28.43 158.533,28.253 158.785,28.115 C159.037,27.977 159.337,27.908 159.685,27.908 C160.033,27.908 160.312,27.98 160.522,28.124 C160.732,28.268 160.897,28.451 161.017,28.673 C161.137,28.895 161.215,29.144 161.251,29.42 C161.287,29.696 161.305,29.96 161.305,30.212 L161.305,30.212 L161.305,35 L163.465,35 L163.465,29.6 C163.465,29.156 163.405,28.724 163.285,28.304 C163.165,27.884 162.976,27.512 162.718,27.188 C162.46,26.864 162.13,26.603 161.728,26.405 C161.326,26.207 160.843,26.108 160.279,26.108 C159.631,26.108 159.07,26.273 158.596,26.603 C158.122,26.933 157.789,27.314 157.597,27.746 L157.597,27.746 L157.561,27.746 L157.561,26.36 L155.509,26.36 L155.509,35 L157.669,35 Z M168.505,35.252 C168.973,35.252 169.426,35.201 169.864,35.099 C170.302,34.997 170.686,34.832 171.016,34.604 C171.346,34.376 171.61,34.079 171.808,33.713 C172.006,33.347 172.105,32.9 172.105,32.372 C172.105,31.952 172.021,31.595 171.853,31.301 C171.685,31.007 171.466,30.761 171.196,30.563 C170.926,30.365 170.626,30.206 170.296,30.086 C169.966,29.966 169.639,29.87 169.315,29.798 C168.703,29.654 168.238,29.513 167.92,29.375 C167.602,29.237 167.443,29 167.443,28.664 C167.443,28.328 167.587,28.088 167.875,27.944 C168.163,27.8 168.481,27.728 168.829,27.728 C169.225,27.728 169.591,27.821 169.927,28.007 C170.263,28.193 170.527,28.412 170.719,28.664 L170.719,28.664 L172.123,27.422 C171.775,26.978 171.304,26.648 170.71,26.432 C170.116,26.216 169.507,26.108 168.883,26.108 C168.451,26.108 168.031,26.162 167.623,26.27 C167.215,26.378 166.849,26.543 166.525,26.765 C166.201,26.987 165.94,27.272 165.742,27.62 C165.544,27.968 165.445,28.382 165.445,28.862 C165.445,29.27 165.517,29.612 165.661,29.888 C165.805,30.164 165.997,30.395 166.237,30.581 C166.477,30.767 166.75,30.917 167.056,31.031 C167.362,31.145 167.677,31.238 168.001,31.31 C168.661,31.466 169.156,31.622 169.486,31.778 C169.816,31.934 169.981,32.192 169.981,32.552 C169.981,32.744 169.939,32.906 169.855,33.038 C169.771,33.17 169.66,33.275 169.522,33.353 C169.384,33.431 169.234,33.488 169.072,33.524 C168.91,33.56 168.751,33.578 168.595,33.578 C168.127,33.578 167.701,33.476 167.317,33.272 C166.933,33.068 166.621,32.81 166.381,32.498 L166.381,32.498 L164.959,33.83 C165.379,34.286 165.907,34.637 166.543,34.883 C167.179,35.129 167.833,35.252 168.505,35.252 Z M182.311,35.252 C183.235,35.252 183.997,35.09 184.597,34.766 C185.197,34.442 185.707,34.034 186.127,33.542 L186.127,33.542 L187.531,35 L190.411,35 L187.441,31.958 L189.997,28.268 L187.531,28.268 L186.055,30.59 L183.967,28.412 C184.327,28.244 184.666,28.052 184.984,27.836 C185.302,27.62 185.578,27.371 185.812,27.089 C186.046,26.807 186.232,26.495 186.37,26.153 C186.508,25.811 186.577,25.436 186.577,25.028 C186.577,24.512 186.478,24.059 186.28,23.669 C186.082,23.279 185.821,22.955 185.497,22.697 C185.173,22.439 184.798,22.247 184.372,22.121 C183.946,21.995 183.505,21.932 183.049,21.932 C182.605,21.932 182.17,21.992 181.744,22.112 C181.318,22.232 180.934,22.421 180.592,22.679 C180.25,22.937 179.974,23.264 179.764,23.66 C179.554,24.056 179.449,24.524 179.449,25.064 C179.449,25.616 179.572,26.123 179.818,26.585 C180.064,27.047 180.397,27.494 180.817,27.926 C180.457,28.082 180.112,28.268 179.782,28.484 C179.452,28.7 179.158,28.958 178.9,29.258 C178.642,29.558 178.435,29.897 178.279,30.275 C178.123,30.653 178.045,31.076 178.045,31.544 C178.045,32.156 178.162,32.693 178.396,33.155 C178.63,33.617 178.942,34.004 179.332,34.316 C179.722,34.628 180.175,34.862 180.691,35.018 C181.207,35.174 181.747,35.252 182.311,35.252 Z M182.725,27.134 C182.365,26.81 182.086,26.48 181.888,26.144 C181.69,25.808 181.591,25.46 181.591,25.1 C181.591,24.68 181.735,24.338 182.023,24.074 C182.311,23.81 182.665,23.678 183.085,23.678 C183.517,23.678 183.871,23.819 184.147,24.101 C184.423,24.383 184.561,24.716 184.561,25.1 C184.561,25.34 184.513,25.562 184.417,25.766 C184.321,25.97 184.189,26.156 184.021,26.324 C183.853,26.492 183.658,26.642 183.436,26.774 C183.214,26.906 182.977,27.026 182.725,27.134 Z M182.383,33.452 C182.143,33.452 181.897,33.407 181.645,33.317 C181.393,33.227 181.165,33.098 180.961,32.93 C180.757,32.762 180.592,32.552 180.466,32.3 C180.34,32.048 180.277,31.766 180.277,31.454 C180.277,31.154 180.325,30.887 180.421,30.653 C180.517,30.419 180.646,30.218 180.808,30.05 C180.97,29.882 181.156,29.738 181.366,29.618 C181.576,29.498 181.801,29.396 182.041,29.312 L182.041,29.312 L184.759,32.138 C184.447,32.558 184.105,32.882 183.733,33.11 C183.361,33.338 182.911,33.452 182.383,33.452 Z M197.413,35 L198.565,32.084 L204.091,32.084 L205.279,35 L207.871,35 L202.381,22.256 L200.419,22.256 L194.875,35 L197.413,35 Z M203.299,30.14 L199.339,30.14 L201.337,24.956 L203.299,30.14 Z M212.137,35.252 C212.785,35.252 213.346,35.087 213.82,34.757 C214.294,34.427 214.627,34.046 214.819,33.614 L214.819,33.614 L214.855,33.614 L214.855,35 L216.907,35 L216.907,26.36 L214.747,26.36 L214.747,31.112 C214.747,31.4 214.705,31.685 214.621,31.967 C214.537,32.249 214.414,32.498 214.252,32.714 C214.09,32.93 213.88,33.107 213.622,33.245 C213.364,33.383 213.067,33.452 212.731,33.452 C212.383,33.452 212.104,33.38 211.894,33.236 C211.684,33.092 211.519,32.909 211.399,32.687 C211.279,32.465 211.201,32.216 211.165,31.94 C211.129,31.664 211.111,31.4 211.111,31.148 L211.111,31.148 L211.111,26.36 L208.951,26.36 L208.951,31.76 C208.951,32.204 209.011,32.636 209.131,33.056 C209.251,33.476 209.44,33.848 209.698,34.172 C209.956,34.496 210.286,34.757 210.688,34.955 C211.09,35.153 211.573,35.252 212.137,35.252 Z M223.225,35.252 C223.837,35.252 224.41,35.12 224.944,34.856 C225.478,34.592 225.895,34.208 226.195,33.704 L226.195,33.704 L226.231,33.704 L226.231,35 L228.283,35 L228.283,21.392 L226.123,21.392 L226.123,27.458 L226.069,27.458 C225.961,27.314 225.823,27.164 225.655,27.008 C225.487,26.852 225.286,26.708 225.052,26.576 C224.818,26.444 224.545,26.333 224.233,26.243 C223.921,26.153 223.567,26.108 223.171,26.108 C222.559,26.108 221.995,26.225 221.479,26.459 C220.963,26.693 220.519,27.014 220.147,27.422 C219.775,27.83 219.487,28.31 219.283,28.862 C219.079,29.414 218.977,30.008 218.977,30.644 C218.977,31.28 219.076,31.877 219.274,32.435 C219.472,32.993 219.754,33.479 220.12,33.893 C220.486,34.307 220.93,34.637 221.452,34.883 C221.974,35.129 222.565,35.252 223.225,35.252 Z M223.657,33.452 C223.237,33.452 222.871,33.368 222.559,33.2 C222.247,33.032 221.989,32.816 221.785,32.552 C221.581,32.288 221.428,31.988 221.326,31.652 C221.224,31.316 221.173,30.98 221.173,30.644 C221.173,30.308 221.224,29.975 221.326,29.645 C221.428,29.315 221.581,29.018 221.785,28.754 C221.989,28.49 222.247,28.277 222.559,28.115 C222.871,27.953 223.237,27.872 223.657,27.872 C224.053,27.872 224.407,27.956 224.719,28.124 C225.031,28.292 225.298,28.508 225.52,28.772 C225.742,29.036 225.91,29.336 226.024,29.672 C226.138,30.008 226.195,30.344 226.195,30.68 C226.195,31.016 226.138,31.349 226.024,31.679 C225.91,32.009 225.742,32.306 225.52,32.57 C225.298,32.834 225.031,33.047 224.719,33.209 C224.407,33.371 224.053,33.452 223.657,33.452 Z M232.009,24.722 C232.405,24.722 232.738,24.599 233.008,24.353 C233.278,24.107 233.413,23.798 233.413,23.426 C233.413,23.054 233.278,22.745 233.008,22.499 C232.738,22.253 232.405,22.13 232.009,22.13 C231.613,22.13 231.286,22.259 231.028,22.517 C230.77,22.775 230.641,23.078 230.641,23.426 C230.641,23.774 230.77,24.077 231.028,24.335 C231.286,24.593 231.613,24.722 232.009,24.722 Z M233.107,35 L233.107,26.36 L230.947,26.36 L230.947,35 L233.107,35 Z M238.813,35.18 C239.053,35.18 239.305,35.159 239.569,35.117 C239.833,35.075 240.061,35.018 240.253,34.946 L240.253,34.946 L240.181,33.254 C240.049,33.314 239.899,33.359 239.731,33.389 C239.563,33.419 239.407,33.434 239.263,33.434 C238.783,33.434 238.474,33.308 238.336,33.056 C238.198,32.804 238.129,32.486 238.129,32.102 L238.129,32.102 L238.129,28.088 L240.289,28.088 L240.289,26.36 L238.129,26.36 L238.129,23.858 L236.005,23.858 L236.005,26.36 L234.493,26.36 L234.493,28.088 L236.005,28.088 L236.005,32.12 C236.005,32.54 236.044,32.933 236.122,33.299 C236.2,33.665 236.344,33.989 236.554,34.271 C236.764,34.553 237.049,34.775 237.409,34.937 C237.769,35.099 238.237,35.18 238.813,35.18 Z" id="GSTReturns&amp;Audit" fill="#EE4050" fill-rule="nonzero"></path>
                    </g>
                    <circle id="Oval" fill="#EE4050" cx="33" cy="30" r="17"></circle>
                    <g id="icon_check@1x-copy-2" transform="translate(24.000000, 21.500000)" fill="#FFFFFF" fill-rule="nonzero">
                        <path d="M6.49547826,15.9563478 C6.52504348,15.98 6.54278261,16.0125217 6.57382609,16.0346957 C6.61817391,16.0642609 6.66843478,16.0701739 6.71573913,16.0908696 C6.77191304,16.1174783 6.8266087,16.1426087 6.88573913,16.1588696 C6.9433913,16.1736522 6.99956522,16.1810435 7.05869565,16.1854783 C7.14295652,16.1943478 7.22426087,16.1943478 7.30704348,16.1825217 C7.34104348,16.1766087 7.37356522,16.1677391 7.40756522,16.1588696 C7.50956522,16.1337391 7.60417391,16.0938261 7.69730435,16.0376522 C7.71356522,16.0273043 7.72686957,16.0154783 7.74313043,16.0051304 C7.80373913,15.9637391 7.86878261,15.9326957 7.92052174,15.8765217 C7.95747826,15.8366087 7.97373913,15.7848696 8.00330435,15.7405217 C8.00478261,15.7390435 8.00773913,15.7375652 8.00773913,15.736087 L16.8166957,1.61721739 C17.130087,1.13973913 16.9955652,0.498173913 16.5166087,0.184782609 C16.0376522,-0.128608696 15.3975652,0.00591304348 15.0841739,0.484869565 L6.94782609,13.5246087 L2.448,9.14747826 C2.02817391,8.75869565 1.37478261,8.78382609 0.986,9.20365217 C0.598695652,9.62347826 0.623826087,10.2783478 1.04365217,10.6656522 L6.45704348,15.9326957 C6.4673913,15.9430435 6.48217391,15.946 6.49547826,15.9563478 Z" id="Path"></path>
                    </g>
                </g>
            </g>
        </g>
    </g>
</svg>