<?xml version="1.0" encoding="UTF-8"?>
<svg width="263px" height="86px" viewBox="0 0 263 86" version="1.1" xmlns="http://www.w3.org/2000/svg" xmlns:xlink="http://www.w3.org/1999/xlink">
    <title>gst-audit-report</title>
    <defs>
        <rect id="path-1" x="0" y="0" width="235" height="58" rx="11"></rect>
        <filter x="-6.6%" y="-30.2%" width="122.6%" height="191.4%" filterUnits="objectBoundingBox" id="filter-2">
            <feOffset dx="11" dy="9" in="SourceAlpha" result="shadowOffsetOuter1"></feOffset>
            <feGaussianBlur stdDeviation="7" in="shadowOffsetOuter1" result="shadowBlurOuter1"></feGaussianBlur>
            <feColorMatrix values="0 0 0 0 0   0 0 0 0 0   0 0 0 0 0  0 0 0 0.138904065 0" type="matrix" in="shadowBlurOuter1"></feColorMatrix>
        </filter>
    </defs>
    <g id="V2-DESIGNS" stroke="none" stroke-width="1" fill="none" fill-rule="evenodd">
        <g id="BOM-homepage--slide-1" transform="translate(-1456.000000, -2143.000000)">
            <g id="Group-31" transform="translate(953.000000, 1905.000000)">
                <g id="Group-20" transform="translate(107.000000, 0.000000)">
                    <g id="gst-audit-report" transform="translate(399.000000, 243.000000)">
                        <g id="Rectangle">
                            <use fill="black" fill-opacity="1" filter="url(#filter-2)" xlink:href="#path-1"></use>
                            <use fill="#FFFFFF" fill-rule="evenodd" xlink:href="#path-1"></use>
                        </g>
                        <path d="M75.5825,35.27 C76.4225,35.27 77.165,35.1975 77.81,35.0525 C78.455,34.9075 79.0475,34.705 79.5875,34.445 L79.5875,34.445 L79.5875,28.94 L75.5225,28.94 L75.5225,30.5 L77.7575,30.5 L77.7575,33.2 C77.1575,33.45 76.4525,33.575 75.6425,33.575 C75.0525,33.575 74.525,33.4775 74.06,33.2825 C73.595,33.0875 73.2,32.815 72.875,32.465 C72.55,32.115 72.3,31.7025 72.125,31.2275 C71.95,30.7525 71.8625,30.23 71.8625,29.66 C71.8625,29.11 71.95,28.6 72.125,28.13 C72.3,27.66 72.5475,27.25 72.8675,26.9 C73.1875,26.55 73.575,26.275 74.03,26.075 C74.485,25.875 74.9925,25.775 75.5525,25.775 C76.1225,25.775 76.65,25.88 77.135,26.09 C77.62,26.3 77.9975,26.555 78.2675,26.855 L78.2675,26.855 L79.5725,25.445 C79.1425,25.045 78.575,24.7225 77.87,24.4775 C77.165,24.2325 76.3875,24.11 75.5375,24.11 C74.7175,24.11 73.9575,24.24 73.2575,24.5 C72.5575,24.76 71.95,25.13 71.435,25.61 C70.92,26.09 70.515,26.6725 70.22,27.3575 C69.925,28.0425 69.7775,28.81 69.7775,29.66 C69.7775,30.49 69.92,31.2475 70.205,31.9325 C70.49,32.6175 70.8875,33.2075 71.3975,33.7025 C71.9075,34.1975 72.5175,34.5825 73.2275,34.8575 C73.9375,35.1325 74.7225,35.27 75.5825,35.27 Z M84.7325,35.27 C85.2525,35.27 85.7475,35.2 86.2175,35.06 C86.6875,34.92 87.0975,34.71 87.4475,34.43 C87.7975,34.15 88.0775,33.7975 88.2875,33.3725 C88.4975,32.9475 88.6025,32.45 88.6025,31.88 C88.6025,31.36 88.505,30.925 88.31,30.575 C88.115,30.225 87.865,29.935 87.56,29.705 C87.255,29.475 86.92,29.29 86.555,29.15 C86.19,29.01 85.8375,28.885 85.4975,28.775 C85.1975,28.685 84.9225,28.595 84.6725,28.505 C84.4225,28.415 84.21,28.31 84.035,28.19 C83.86,28.07 83.7225,27.925 83.6225,27.755 C83.5225,27.585 83.4725,27.38 83.4725,27.14 C83.4725,26.88 83.53,26.6575 83.645,26.4725 C83.76,26.2875 83.9075,26.1375 84.0875,26.0225 C84.2675,25.9075 84.4675,25.8225 84.6875,25.7675 C84.9075,25.7125 85.1275,25.685 85.3475,25.685 C85.7175,25.685 86.085,25.7725 86.45,25.9475 C86.815,26.1225 87.0975,26.34 87.2975,26.6 L87.2975,26.6 L88.5275,25.25 C88.1175,24.87 87.635,24.585 87.08,24.395 C86.525,24.205 85.9775,24.11 85.4375,24.11 C84.9575,24.11 84.485,24.1725 84.02,24.2975 C83.555,24.4225 83.14,24.6125 82.775,24.8675 C82.41,25.1225 82.115,25.445 81.89,25.835 C81.665,26.225 81.5525,26.69 81.5525,27.23 C81.5525,27.73 81.6325,28.1475 81.7925,28.4825 C81.9525,28.8175 82.16,29.1 82.415,29.33 C82.67,29.56 82.9575,29.745 83.2775,29.885 C83.5975,30.025 83.9175,30.145 84.2375,30.245 C84.5675,30.355 84.8825,30.46 85.1825,30.56 C85.4825,30.66 85.7425,30.7775 85.9625,30.9125 C86.1825,31.0475 86.3575,31.2075 86.4875,31.3925 C86.6175,31.5775 86.6825,31.81 86.6825,32.09 C86.6825,32.38 86.625,32.6225 86.51,32.8175 C86.395,33.0125 86.245,33.175 86.06,33.305 C85.875,33.435 85.6675,33.5275 85.4375,33.5825 C85.2075,33.6375 84.9825,33.665 84.7625,33.665 C84.3425,33.665 83.915,33.56 83.48,33.35 C83.045,33.14 82.6975,32.855 82.4375,32.495 L82.4375,32.495 L81.0875,33.755 C81.5075,34.255 82.0475,34.6325 82.7075,34.8875 C83.3675,35.1425 84.0425,35.27 84.7325,35.27 Z M94.5275,35 L94.5275,26.03 L97.7825,26.03 L97.7825,24.38 L89.3825,24.38 L89.3825,26.03 L92.6375,26.03 L92.6375,35 L94.5275,35 Z M104.6525,35 L104.6525,30.5 L106.0325,30.5 L108.4925,35 L110.7725,35 L107.9375,30.29 C108.6875,30.12 109.28,29.7925 109.715,29.3075 C110.15,28.8225 110.3675,28.195 110.3675,27.425 C110.3675,26.865 110.2575,26.39 110.0375,26 C109.8175,25.61 109.525,25.295 109.16,25.055 C108.795,24.815 108.3775,24.6425 107.9075,24.5375 C107.4375,24.4325 106.9525,24.38 106.4525,24.38 L106.4525,24.38 L102.7625,24.38 L102.7625,35 L104.6525,35 Z M106.1975,28.955 L104.6525,28.955 L104.6525,25.97 L106.3625,25.97 C106.6025,25.97 106.85,25.99 107.105,26.03 C107.36,26.07 107.5875,26.145 107.7875,26.255 C107.9875,26.365 108.1525,26.5125 108.2825,26.6975 C108.4125,26.8825 108.4775,27.12 108.4775,27.41 C108.4775,27.73 108.4075,27.9925 108.2675,28.1975 C108.1275,28.4025 107.95,28.56 107.735,28.67 C107.52,28.78 107.2775,28.855 107.0075,28.895 C106.7375,28.935 106.4675,28.955 106.1975,28.955 L106.1975,28.955 Z M115.5575,35.21 C116.9075,35.21 117.9375,34.73 118.6475,33.77 L118.6475,33.77 L117.4475,32.81 C117.2475,33.1 116.9925,33.3275 116.6825,33.4925 C116.3725,33.6575 115.9925,33.74 115.5425,33.74 C115.2825,33.74 115.0325,33.695 114.7925,33.605 C114.5525,33.515 114.3375,33.3925 114.1475,33.2375 C113.9575,33.0825 113.805,32.8975 113.69,32.6825 C113.575,32.4675 113.5075,32.23 113.4875,31.97 L113.4875,31.97 L118.9625,31.97 C118.9725,31.89 118.9775,31.81 118.9775,31.73 L118.9775,31.73 L118.9775,31.49 C118.9775,30.84 118.89,30.2725 118.715,29.7875 C118.54,29.3025 118.2975,28.8975 117.9875,28.5725 C117.6775,28.2475 117.31,28.0025 116.885,27.8375 C116.46,27.6725 115.9975,27.59 115.4975,27.59 C114.9575,27.59 114.455,27.6825 113.99,27.8675 C113.525,28.0525 113.1225,28.3125 112.7825,28.6475 C112.4425,28.9825 112.175,29.3875 111.98,29.8625 C111.785,30.3375 111.6875,30.865 111.6875,31.445 C111.6875,32.035 111.785,32.5625 111.98,33.0275 C112.175,33.4925 112.445,33.885 112.79,34.205 C113.135,34.525 113.5425,34.7725 114.0125,34.9475 C114.4825,35.1225 114.9975,35.21 115.5575,35.21 Z M117.1775,30.68 L113.4875,30.68 C113.5275,30.17 113.735,29.7525 114.11,29.4275 C114.485,29.1025 114.9425,28.94 115.4825,28.94 C115.7725,28.94 116.025,28.9875 116.24,29.0825 C116.455,29.1775 116.6325,29.305 116.7725,29.465 C116.9125,29.625 117.015,29.81 117.08,30.02 C117.145,30.23 117.1775,30.45 117.1775,30.68 L117.1775,30.68 Z M123.2825,35.15 C123.4825,35.15 123.6925,35.1325 123.9125,35.0975 C124.1325,35.0625 124.3225,35.015 124.4825,34.955 L124.4825,34.955 L124.4225,33.545 C124.3125,33.595 124.1875,33.6325 124.0475,33.6575 C123.9075,33.6825 123.7775,33.695 123.6575,33.695 C123.2575,33.695 123,33.59 122.885,33.38 C122.77,33.17 122.7125,32.905 122.7125,32.585 L122.7125,32.585 L122.7125,29.24 L124.5125,29.24 L124.5125,27.8 L122.7125,27.8 L122.7125,25.715 L120.9425,25.715 L120.9425,27.8 L119.6825,27.8 L119.6825,29.24 L120.9425,29.24 L120.9425,32.6 C120.9425,32.95 120.975,33.2775 121.04,33.5825 C121.105,33.8875 121.225,34.1575 121.4,34.3925 C121.575,34.6275 121.8125,34.8125 122.1125,34.9475 C122.4125,35.0825 122.8025,35.15 123.2825,35.15 Z M128.4125,35.21 C128.9525,35.21 129.42,35.0725 129.815,34.7975 C130.21,34.5225 130.4875,34.205 130.6475,33.845 L130.6475,33.845 L130.6775,33.845 L130.6775,35 L132.3875,35 L132.3875,27.8 L130.5875,27.8 L130.5875,31.76 C130.5875,32 130.5525,32.2375 130.4825,32.4725 C130.4125,32.7075 130.31,32.915 130.175,33.095 C130.04,33.275 129.865,33.4225 129.65,33.5375 C129.435,33.6525 129.1875,33.71 128.9075,33.71 C128.6175,33.71 128.385,33.65 128.21,33.53 C128.035,33.41 127.8975,33.2575 127.7975,33.0725 C127.6975,32.8875 127.6325,32.68 127.6025,32.45 C127.5725,32.22 127.5575,32 127.5575,31.79 L127.5575,31.79 L127.5575,27.8 L125.7575,27.8 L125.7575,32.3 C125.7575,32.67 125.8075,33.03 125.9075,33.38 C126.0075,33.73 126.165,34.04 126.38,34.31 C126.595,34.58 126.87,34.7975 127.205,34.9625 C127.54,35.1275 127.9425,35.21 128.4125,35.21 Z M136.3475,35 L136.3475,31.145 C136.3475,31.015 136.3725,30.84 136.4225,30.62 C136.4725,30.4 136.5675,30.185 136.7075,29.975 C136.8475,29.765 137.0425,29.585 137.2925,29.435 C137.5425,29.285 137.8725,29.21 138.2825,29.21 C138.3625,29.21 138.445,29.215 138.53,29.225 C138.615,29.235 138.7175,29.255 138.8375,29.285 L138.8375,29.285 L138.8375,27.635 C138.7775,27.615 138.7075,27.6025 138.6275,27.5975 C138.5475,27.5925 138.4725,27.59 138.4025,27.59 C137.9225,27.59 137.5025,27.72 137.1425,27.98 C136.7825,28.24 136.5025,28.58 136.3025,29 L136.3025,29 L136.2725,29 L136.2725,27.8 L134.5475,27.8 L134.5475,35 L136.3475,35 Z M141.8075,35 L141.8075,31.04 C141.8075,30.8 141.8425,30.5625 141.9125,30.3275 C141.9825,30.0925 142.085,29.885 142.22,29.705 C142.355,29.525 142.5275,29.3775 142.7375,29.2625 C142.9475,29.1475 143.1975,29.09 143.4875,29.09 C143.7775,29.09 144.01,29.15 144.185,29.27 C144.36,29.39 144.4975,29.5425 144.5975,29.7275 C144.6975,29.9125 144.7625,30.12 144.7925,30.35 C144.8225,30.58 144.8375,30.8 144.8375,31.01 L144.8375,31.01 L144.8375,35 L146.6375,35 L146.6375,30.5 C146.6375,30.13 146.5875,29.77 146.4875,29.42 C146.3875,29.07 146.23,28.76 146.015,28.49 C145.8,28.22 145.525,28.0025 145.19,27.8375 C144.855,27.6725 144.4525,27.59 143.9825,27.59 C143.4425,27.59 142.975,27.7275 142.58,28.0025 C142.185,28.2775 141.9075,28.595 141.7475,28.955 L141.7475,28.955 L141.7175,28.955 L141.7175,27.8 L140.0075,27.8 L140.0075,35 L141.8075,35 Z M150.8375,35.21 C151.2275,35.21 151.605,35.1675 151.97,35.0825 C152.335,34.9975 152.655,34.86 152.93,34.67 C153.205,34.48 153.425,34.2325 153.59,33.9275 C153.755,33.6225 153.8375,33.25 153.8375,32.81 C153.8375,32.46 153.7675,32.1625 153.6275,31.9175 C153.4875,31.6725 153.305,31.4675 153.08,31.3025 C152.855,31.1375 152.605,31.005 152.33,30.905 C152.055,30.805 151.7825,30.725 151.5125,30.665 C151.0025,30.545 150.615,30.4275 150.35,30.3125 C150.085,30.1975 149.9525,30 149.9525,29.72 C149.9525,29.44 150.0725,29.24 150.3125,29.12 C150.5525,29 150.8175,28.94 151.1075,28.94 C151.4375,28.94 151.7425,29.0175 152.0225,29.1725 C152.3025,29.3275 152.5225,29.51 152.6825,29.72 L152.6825,29.72 L153.8525,28.685 C153.5625,28.315 153.17,28.04 152.675,27.86 C152.18,27.68 151.6725,27.59 151.1525,27.59 C150.7925,27.59 150.4425,27.635 150.1025,27.725 C149.7625,27.815 149.4575,27.9525 149.1875,28.1375 C148.9175,28.3225 148.7,28.56 148.535,28.85 C148.37,29.14 148.2875,29.485 148.2875,29.885 C148.2875,30.225 148.3475,30.51 148.4675,30.74 C148.5875,30.97 148.7475,31.1625 148.9475,31.3175 C149.1475,31.4725 149.375,31.5975 149.63,31.6925 C149.885,31.7875 150.1475,31.865 150.4175,31.925 C150.9675,32.055 151.38,32.185 151.655,32.315 C151.93,32.445 152.0675,32.66 152.0675,32.96 C152.0675,33.12 152.0325,33.255 151.9625,33.365 C151.8925,33.475 151.8,33.5625 151.685,33.6275 C151.57,33.6925 151.445,33.74 151.31,33.77 C151.175,33.8 151.0425,33.815 150.9125,33.815 C150.5225,33.815 150.1675,33.73 149.8475,33.56 C149.5275,33.39 149.2675,33.175 149.0675,32.915 L149.0675,32.915 L147.8825,34.025 C148.2325,34.405 148.6725,34.6975 149.2025,34.9025 C149.7325,35.1075 150.2775,35.21 150.8375,35.21 Z M162.3425,35.21 C163.1125,35.21 163.7475,35.075 164.2475,34.805 C164.7475,34.535 165.1725,34.195 165.5225,33.785 L165.5225,33.785 L166.6925,35 L169.0925,35 L166.6175,32.465 L168.7475,29.39 L166.6925,29.39 L165.4625,31.325 L163.7225,29.51 C164.0225,29.37 164.305,29.21 164.57,29.03 C164.835,28.85 165.065,28.6425 165.26,28.4075 C165.455,28.1725 165.61,27.9125 165.725,27.6275 C165.84,27.3425 165.8975,27.03 165.8975,26.69 C165.8975,26.26 165.815,25.8825 165.65,25.5575 C165.485,25.2325 165.2675,24.9625 164.9975,24.7475 C164.7275,24.5325 164.415,24.3725 164.06,24.2675 C163.705,24.1625 163.3375,24.11 162.9575,24.11 C162.5875,24.11 162.225,24.16 161.87,24.26 C161.515,24.36 161.195,24.5175 160.91,24.7325 C160.625,24.9475 160.395,25.22 160.22,25.55 C160.045,25.88 159.9575,26.27 159.9575,26.72 C159.9575,27.18 160.06,27.6025 160.265,27.9875 C160.47,28.3725 160.7475,28.745 161.0975,29.105 C160.7975,29.235 160.51,29.39 160.235,29.57 C159.96,29.75 159.715,29.965 159.5,30.215 C159.285,30.465 159.1125,30.7475 158.9825,31.0625 C158.8525,31.3775 158.7875,31.73 158.7875,32.12 C158.7875,32.63 158.885,33.0775 159.08,33.4625 C159.275,33.8475 159.535,34.17 159.86,34.43 C160.185,34.69 160.5625,34.885 160.9925,35.015 C161.4225,35.145 161.8725,35.21 162.3425,35.21 Z M162.6875,28.445 C162.3875,28.175 162.155,27.9 161.99,27.62 C161.825,27.34 161.7425,27.05 161.7425,26.75 C161.7425,26.4 161.8625,26.115 162.1025,25.895 C162.3425,25.675 162.6375,25.565 162.9875,25.565 C163.3475,25.565 163.6425,25.6825 163.8725,25.9175 C164.1025,26.1525 164.2175,26.43 164.2175,26.75 C164.2175,26.95 164.1775,27.135 164.0975,27.305 C164.0175,27.475 163.9075,27.63 163.7675,27.77 C163.6275,27.91 163.465,28.035 163.28,28.145 C163.095,28.255 162.8975,28.355 162.6875,28.445 Z M162.4025,33.71 C162.2025,33.71 161.9975,33.6725 161.7875,33.5975 C161.5775,33.5225 161.3875,33.415 161.2175,33.275 C161.0475,33.135 160.91,32.96 160.805,32.75 C160.7,32.54 160.6475,32.305 160.6475,32.045 C160.6475,31.795 160.6875,31.5725 160.7675,31.3775 C160.8475,31.1825 160.955,31.015 161.09,30.875 C161.225,30.735 161.38,30.615 161.555,30.515 C161.73,30.415 161.9175,30.33 162.1175,30.26 L162.1175,30.26 L164.3825,32.615 C164.1225,32.965 163.8375,33.235 163.5275,33.425 C163.2175,33.615 162.8425,33.71 162.4025,33.71 Z M174.9275,35 L175.8875,32.57 L180.4925,32.57 L181.4825,35 L183.6425,35 L179.0675,24.38 L177.4325,24.38 L172.8125,35 L174.9275,35 Z M179.8325,30.95 L176.5325,30.95 L178.1975,26.63 L179.8325,30.95 Z M187.1975,35.21 C187.7375,35.21 188.205,35.0725 188.6,34.7975 C188.995,34.5225 189.2725,34.205 189.4325,33.845 L189.4325,33.845 L189.4625,33.845 L189.4625,35 L191.1725,35 L191.1725,27.8 L189.3725,27.8 L189.3725,31.76 C189.3725,32 189.3375,32.2375 189.2675,32.4725 C189.1975,32.7075 189.095,32.915 188.96,33.095 C188.825,33.275 188.65,33.4225 188.435,33.5375 C188.22,33.6525 187.9725,33.71 187.6925,33.71 C187.4025,33.71 187.17,33.65 186.995,33.53 C186.82,33.41 186.6825,33.2575 186.5825,33.0725 C186.4825,32.8875 186.4175,32.68 186.3875,32.45 C186.3575,32.22 186.3425,32 186.3425,31.79 L186.3425,31.79 L186.3425,27.8 L184.5425,27.8 L184.5425,32.3 C184.5425,32.67 184.5925,33.03 184.6925,33.38 C184.7925,33.73 184.95,34.04 185.165,34.31 C185.38,34.58 185.655,34.7975 185.99,34.9625 C186.325,35.1275 186.7275,35.21 187.1975,35.21 Z M196.4375,35.21 C196.9475,35.21 197.425,35.1 197.87,34.88 C198.315,34.66 198.6625,34.34 198.9125,33.92 L198.9125,33.92 L198.9425,33.92 L198.9425,35 L200.6525,35 L200.6525,23.66 L198.8525,23.66 L198.8525,28.715 L198.8075,28.715 C198.7175,28.595 198.6025,28.47 198.4625,28.34 C198.3225,28.21 198.155,28.09 197.96,27.98 C197.765,27.87 197.5375,27.7775 197.2775,27.7025 C197.0175,27.6275 196.7225,27.59 196.3925,27.59 C195.8825,27.59 195.4125,27.6875 194.9825,27.8825 C194.5525,28.0775 194.1825,28.345 193.8725,28.685 C193.5625,29.025 193.3225,29.425 193.1525,29.885 C192.9825,30.345 192.8975,30.84 192.8975,31.37 C192.8975,31.9 192.98,32.3975 193.145,32.8625 C193.31,33.3275 193.545,33.7325 193.85,34.0775 C194.155,34.4225 194.525,34.6975 194.96,34.9025 C195.395,35.1075 195.8875,35.21 196.4375,35.21 Z M196.7975,33.71 C196.4475,33.71 196.1425,33.64 195.8825,33.5 C195.6225,33.36 195.4075,33.18 195.2375,32.96 C195.0675,32.74 194.94,32.49 194.855,32.21 C194.77,31.93 194.7275,31.65 194.7275,31.37 C194.7275,31.09 194.77,30.8125 194.855,30.5375 C194.94,30.2625 195.0675,30.015 195.2375,29.795 C195.4075,29.575 195.6225,29.3975 195.8825,29.2625 C196.1425,29.1275 196.4475,29.06 196.7975,29.06 C197.1275,29.06 197.4225,29.13 197.6825,29.27 C197.9425,29.41 198.165,29.59 198.35,29.81 C198.535,30.03 198.675,30.28 198.77,30.56 C198.865,30.84 198.9125,31.12 198.9125,31.4 C198.9125,31.68 198.865,31.9575 198.77,32.2325 C198.675,32.5075 198.535,32.755 198.35,32.975 C198.165,33.195 197.9425,33.3725 197.6825,33.5075 C197.4225,33.6425 197.1275,33.71 196.7975,33.71 Z M203.7575,26.435 C204.0875,26.435 204.365,26.3325 204.59,26.1275 C204.815,25.9225 204.9275,25.665 204.9275,25.355 C204.9275,25.045 204.815,24.7875 204.59,24.5825 C204.365,24.3775 204.0875,24.275 203.7575,24.275 C203.4275,24.275 203.155,24.3825 202.94,24.5975 C202.725,24.8125 202.6175,25.065 202.6175,25.355 C202.6175,25.645 202.725,25.8975 202.94,26.1125 C203.155,26.3275 203.4275,26.435 203.7575,26.435 Z M204.6725,35 L204.6725,27.8 L202.8725,27.8 L202.8725,35 L204.6725,35 Z M209.4275,35.15 C209.6275,35.15 209.8375,35.1325 210.0575,35.0975 C210.2775,35.0625 210.4675,35.015 210.6275,34.955 L210.6275,34.955 L210.5675,33.545 C210.4575,33.595 210.3325,33.6325 210.1925,33.6575 C210.0525,33.6825 209.9225,33.695 209.8025,33.695 C209.4025,33.695 209.145,33.59 209.03,33.38 C208.915,33.17 208.8575,32.905 208.8575,32.585 L208.8575,32.585 L208.8575,29.24 L210.6575,29.24 L210.6575,27.8 L208.8575,27.8 L208.8575,25.715 L207.0875,25.715 L207.0875,27.8 L205.8275,27.8 L205.8275,29.24 L207.0875,29.24 L207.0875,32.6 C207.0875,32.95 207.12,33.2775 207.185,33.5825 C207.25,33.8875 207.37,34.1575 207.545,34.3925 C207.72,34.6275 207.9575,34.8125 208.2575,34.9475 C208.5575,35.0825 208.9475,35.15 209.4275,35.15 Z" id="GSTReturns&amp;Audit" fill="#333091" fill-rule="nonzero"></path>
                        <circle id="Oval" fill="#333091" cx="33" cy="30" r="17"></circle>
                        <g id="icon_check@1x-copy-2" transform="translate(24.000000, 21.500000)" fill="#FFFFFF" fill-rule="nonzero">
                            <path d="M6.49547826,15.9563478 C6.52504348,15.98 6.54278261,16.0125217 6.57382609,16.0346957 C6.61817391,16.0642609 6.66843478,16.0701739 6.71573913,16.0908696 C6.77191304,16.1174783 6.8266087,16.1426087 6.88573913,16.1588696 C6.9433913,16.1736522 6.99956522,16.1810435 7.05869565,16.1854783 C7.14295652,16.1943478 7.22426087,16.1943478 7.30704348,16.1825217 C7.34104348,16.1766087 7.37356522,16.1677391 7.40756522,16.1588696 C7.50956522,16.1337391 7.60417391,16.0938261 7.69730435,16.0376522 C7.71356522,16.0273043 7.72686957,16.0154783 7.74313043,16.0051304 C7.80373913,15.9637391 7.86878261,15.9326957 7.92052174,15.8765217 C7.95747826,15.8366087 7.97373913,15.7848696 8.00330435,15.7405217 C8.00478261,15.7390435 8.00773913,15.7375652 8.00773913,15.736087 L16.8166957,1.61721739 C17.130087,1.13973913 16.9955652,0.498173913 16.5166087,0.184782609 C16.0376522,-0.128608696 15.3975652,0.00591304348 15.0841739,0.484869565 L6.94782609,13.5246087 L2.448,9.14747826 C2.02817391,8.75869565 1.37478261,8.78382609 0.986,9.20365217 C0.598695652,9.62347826 0.623826087,10.2783478 1.04365217,10.6656522 L6.45704348,15.9326957 C6.4673913,15.9430435 6.48217391,15.946 6.49547826,15.9563478 Z" id="Path"></path>
                        </g>
                    </g>
                </g>
            </g>
        </g>
    </g>
</svg>