<svg xmlns="http://www.w3.org/2000/svg" width="193" height="80" viewBox="0 0 193 80"><defs><clipPath id="i4vsa"><path d="M0 1.08h192.813v78.557H0z"/></clipPath><clipPath id="i4vsb"><path d="M0 79.64h192.825V.5H0z"/></clipPath></defs><g><g><g><path fill="#ef4050" d="M189.324 15.909L187.601 1.3l-7.045 6.885-3.918-2.816-3.446-4.069-7.045 6.885-3.255-1.666-1.493-2.453s-12.462-1.022-13.21-.325l-18.425 17.762-4.103-8.277-3.326-2.181 3.865-3.778v-3.77l-13.356.403-9.676 9.458L99.584 1.3l-7.818 7.641-6.59-7.641-7.794 7.617L72.727 1.3l-7.045 6.885-1.275-.239-2.184-3.636h-9.485L50.482 1.3l-7.045 6.885-2.504-3.943h-8.94L28.78 1.3.24 29.456v49.952h157.264l25.52-24.943-3.75-10.152 6.285-14.787 7.045-6.885z"/></g><g><g/><g clip-path="url(#i4vsa)"><path fill="#ef4050" d="M.224 79.637A.224.224 0 0 1 0 79.413v-49.65c0-.061.024-.12.067-.16l28.54-28.459a.225.225 0 0 1 .308-.005l3.15 2.884h8.853c.076 0 .147.04.189.104l2.397 3.857 6.805-6.84c.046-.045.11-.041.174-.038.064.004.123.013.162.064l2.19 2.92h9.373c.078 0 .151.043.192.11l2.132 3.55 1.155.258 6.867-6.864a.223.223 0 0 1 .348.044l4.529 7.543 7.572-7.587a.232.232 0 0 1 .166-.063c.062.002.12.03.16.077l6.53 7.54 7.552-7.554a.223.223 0 0 1 .372.097l3.516 11.874 9.372-9.37a.224.224 0 0 1 .15-.063l13.356-.404c.065.003.12.022.163.064.044.042.068.1.068.16v3.771c0 .06-.024.118-.068.16l-3.599 3.582 3.028 2.029c.034.022.061.053.078.09l3.691 8.434a.222.222 0 0 1-.15-.12l-3.916-8.064-3.276-2.147a.223.223 0 0 1-.033-.348l3.797-3.71V3.733l-13.038.393-9.613 9.396a.226.226 0 0 1-.213.057.223.223 0 0 1-.159-.153L99.46 1.724l-7.553 7.382a.2.2 0 0 1-.166.063.222.222 0 0 1-.16-.077l-6.434-7.46-7.623 7.45a.223.223 0 0 1-.348-.043L72.666 1.66l-6.79 6.689c-.052.051-.178.073-.251.06l-1.275-.239a.226.226 0 0 1-.15-.104l-2.12-3.528h-9.358a.223.223 0 0 1-.178-.09L50.44 1.644 43.578 8.35a.224.224 0 0 1-.346-.04l-2.438-3.84h-8.816a.225.225 0 0 1-.152-.058l-3.058-2.8-28.32 27.99V79.19h156.949l25.35-24.778-3.699-10.015a.222.222 0 0 1 .005-.165l6.285-14.787a.2.2 0 0 1 .05-.073l6.928-6.772-3.208-6.587a.234.234 0 0 1-.021-.072l-1.671-14.157-6.72 6.567a.223.223 0 0 1-.286.022l-3.918-2.816-3.331-3.923-6.873 6.717a.225.225 0 0 1-.259.04l-3.255-1.666a.23.23 0 0 1-.089-.084l-1.434-2.355c-5.898-.481-12.401-.774-12.928-.373l-12.247 11.603c5.361-5.334 11.933-11.923 11.944-11.933.764-.709 10.435.024 13.381.265a.223.223 0 0 1 .173.107l1.461 2.4 3.135 1.643 6.85-6.853c.044-.044.114-.049.179-.04.062.003.108.008.148.056l3.447 4.07 3.724 2.82 6.91-6.906a.22.22 0 0 1 .231-.05c.081.028.138.1.149.184l1.72 14.572 3.262 6.698a.223.223 0 0 1-.045.258l-6.876 6.854-6.37 14.664 3.719 10.069a.222.222 0 0 1-.054.238l-24.942 24.943a.224.224 0 0 1-.156.063zM129.657 21.84c.954-.903 3.508-3.43 6.419-6.325l-6.332 5.998a.223.223 0 0 1-.206.055z"/></g></g><g><path fill="#fff" d="M192.602 22.641V1.3H187.6l.12 13.926h-.09L179.068 1.3h-5.878v21.341h5.004l-.121-13.956h.09l8.591 13.956z"/></g><g><path fill="#fff" d="M186.748 22.86a.223.223 0 0 1-.19-.107l-8.26-13.422.114 13.302a.224.224 0 0 1-.224.226h-5.004a.224.224 0 0 1-.224-.224V1.295c0-.125.1-.225.224-.225h5.878c.078 0 .15.04.19.107l8.231 13.389-.114-13.27a.224.224 0 0 1 .224-.226h5.003c.124 0 .224.1.224.224v21.341c0 .124-.1.224-.224.224zm.126-.449h5.498V1.518h-4.553l.118 13.7a.224.224 0 0 1-.224.226h-.09a.224.224 0 0 1-.191-.107l-8.496-13.819h-5.528v20.893h4.554l-.119-13.73a.224.224 0 0 1 .224-.226h.09c.079 0 .15.04.191.106z"/></g><g><path fill="#fff" d="M129.604 21.338V10.034h-8.8v4.16h4.068v3.888c-.462.201-.965.347-1.506.437-.544.09-1.117.136-1.719.136-1.045 0-1.975-.166-2.788-.497-.814-.332-1.497-.794-2.05-1.388a5.816 5.816 0 0 1-1.251-2.124c-.282-.824-.422-1.728-.422-2.713 0-.965.155-1.854.467-2.668a6.278 6.278 0 0 1 1.312-2.11 5.998 5.998 0 0 1 1.99-1.387 6.216 6.216 0 0 1 2.5-.497c1.045 0 1.98.186 2.804.558.824.372 1.487.849 1.99 1.43l3.255-3.706c-.904-.864-2.08-1.552-3.526-2.065-1.448-.512-3.015-.768-4.703-.768-1.628 0-3.146.261-4.552.783a10.902 10.902 0 0 0-3.677 2.245c-1.046.976-1.864 2.156-2.456 3.543-.593 1.386-.89 2.934-.89 4.642 0 1.688.292 3.22.874 4.597a10.432 10.432 0 0 0 2.427 3.541c1.034.985 2.27 1.749 3.707 2.291 1.437.543 3.009.814 4.718.814 1.647 0 3.17-.17 4.566-.513 1.396-.341 2.617-.783 3.662-1.325"/></g><g><path fill="#fff" d="M116.573 22.576c-1.46-.55-2.732-1.338-3.782-2.339a10.684 10.684 0 0 1-2.479-3.616c-.592-1.397-.892-2.973-.892-4.684 0-1.73.305-3.323.908-4.73.602-1.41 1.446-2.627 2.509-3.618a11.179 11.179 0 0 1 3.753-2.292C118.014.768 119.572.5 121.22.5c1.705 0 3.313.263 4.776.782 1.471.52 2.685 1.232 3.607 2.114.086.082.092.22.013.31l-3.254 3.706a.223.223 0 0 1-.169.077c-.073-.018-.127-.028-.17-.077-.478-.556-1.122-1.018-1.912-1.375-.79-.356-1.703-.538-2.711-.538-.87 0-1.682.162-2.412.48a5.802 5.802 0 0 0-1.917 1.334 6.091 6.091 0 0 0-1.264 2.037c-.3.784-.453 1.654-.453 2.587 0 .955.138 1.844.41 2.64.271.793.676 1.48 1.203 2.045a5.5 5.5 0 0 0 1.97 1.332c.783.319 1.693.48 2.704.48.586 0 1.152-.044 1.682-.132.468-.078.91-.2 1.319-.364v-3.516h-3.845a.224.224 0 0 1-.224-.224v-4.16c0-.123.1-.224.224-.224h8.801c.124 0 .224.1.224.224v11.304c0 .084-.046.16-.12.199-1.058.549-2.307 1.001-3.713 1.344-1.407.344-2.962.52-4.62.52-1.727 0-3.34-.28-4.796-.829zm.17-20.859a10.711 10.711 0 0 0-3.602 2.2c-1.016.949-1.825 2.115-2.402 3.466-.578 1.351-.87 2.884-.87 4.554 0 1.65.288 3.168.856 4.51a10.227 10.227 0 0 0 2.373 3.466c1.006.959 2.228 1.714 3.63 2.244 1.404.53 2.964.8 4.636.8 1.62 0 3.138-.171 4.51-.508 1.318-.321 2.49-.74 3.49-1.244V10.262h-8.348v3.712h3.842c.124 0 .224.1.224.224v3.888c0 .09-.053.17-.135.206a6.653 6.653 0 0 1-1.558.452 10.74 10.74 0 0 1-1.754.139c-1.069 0-2.035-.173-2.871-.514a5.923 5.923 0 0 1-2.128-1.442 6.056 6.056 0 0 1-1.299-2.204c-.288-.844-.434-1.781-.434-2.786 0-.988.163-1.912.482-2.748a6.552 6.552 0 0 1 1.358-2.184 6.24 6.24 0 0 1 2.061-1.438 6.447 6.447 0 0 1 2.59-.516c1.071 0 2.045.195 2.894.578.759.343 1.395.78 1.894 1.3l2.944-3.355c-.856-.771-1.96-1.4-3.287-1.87-1.415-.502-2.971-.756-4.626-.756-1.592 0-3.097.259-4.47.77z"/></g><g><path fill="#fff" d="M104.581 22.641V1.3h-5.004l.121 13.926h-.09L91.049 1.3H85.17v21.341h5.004l-.121-13.956h.09l8.591 13.956z"/></g><g><path fill="#fff" d="M98.738 22.86a.223.223 0 0 1-.19-.107l-8.262-13.42.116 13.3a.223.223 0 0 1-.224.226h-5.004a.224.224 0 0 1-.224-.224V1.295c0-.125.1-.225.224-.225h5.878c.078 0 .15.04.19.107l8.23 13.387-.114-13.268a.223.223 0 0 1 .224-.226h5.004c.123 0 .224.1.224.224v21.341c0 .124-.1.224-.224.224zm.125-.449h5.499V1.518h-4.554l.118 13.7a.224.224 0 0 1-.224.226h-.09a.223.223 0 0 1-.19-.107L90.926 1.518h-5.528v20.893h4.553l-.118-13.73a.224.224 0 0 1 .224-.226h.09c.078 0 .15.04.19.106z"/></g><g/><g clip-path="url(#i4vsb)"><path fill="#fff" d="M72.72 22.641h5.185V1.3H72.72z"/></g><g clip-path="url(#i4vsb)"><path fill="#fff" d="M72.724 22.86a.224.224 0 0 1-.224-.225V1.295c0-.125.1-.225.224-.225h5.185c.123 0 .224.1.224.224v21.341c0 .124-.1.224-.224.224zm.224-.449h4.727V1.518h-4.727z"/></g><g clip-path="url(#i4vsb)"><path fill="#fff" d="M183.03 43.89v10.567h-6.025V43.89l-9.374-14.371h7.294l5.321 9.228 5.322-9.228h7.047zm-25.472-7.714l-3.17 8.56h6.269zm6.692 18.281l-1.937-4.896h-9.651l-1.833 4.896h-6.55l10.46-24.938h5.848l10.355 24.938zm-27-9.052c.46-.94.688-2.102.688-3.487 0-1.41-.229-2.577-.687-3.505-.458-.928-1.07-1.668-1.832-2.22a7.349 7.349 0 0 0-2.607-1.18 12.803 12.803 0 0 0-3.011-.351h-2.994v14.582h2.853c1.08 0 2.12-.124 3.118-.37a7.379 7.379 0 0 0 2.641-1.215c.763-.564 1.374-1.315 1.832-2.254zM142.985 36c.822 1.597 1.234 3.57 1.234 5.918 0 2.183-.406 4.068-1.216 5.653-.81 1.585-1.88 2.888-3.207 3.91a13.364 13.364 0 0 1-4.493 2.255 18.202 18.202 0 0 1-5.075.721h-9.302V29.52h9.021c1.762 0 3.5.205 5.215.616 1.715.41 3.242 1.092 4.581 2.043 1.34.951 2.42 2.225 3.242 3.822zM108.25 54.457L98.208 38.15h-.106l.14 16.308h-5.848V29.52h6.871l10.008 16.273h.106l-.141-16.273h5.85v24.938zM81.439 45c.352-.95.528-1.99.528-3.116 0-1.081-.176-2.09-.528-3.03-.352-.94-.84-1.743-1.462-2.413a6.76 6.76 0 0 0-2.254-1.585c-.88-.387-1.85-.581-2.906-.581-1.057 0-2.02.194-2.889.58a7.016 7.016 0 0 0-2.254 1.586c-.634.67-1.122 1.474-1.462 2.413-.34.94-.51 1.949-.51 3.03 0 1.127.176 2.166.528 3.116.352.952.84 1.768 1.462 2.449a6.663 6.663 0 0 0 2.236 1.602c.869.388 1.832.581 2.889.581 1.056 0 2.02-.193 2.888-.581a6.855 6.855 0 0 0 2.254-1.602c.635-.681 1.128-1.497 1.48-2.449zm5.944-8.524c.68 1.61 1.02 3.412 1.02 5.408 0 1.972-.34 3.774-1.02 5.406-.682 1.632-1.627 3.03-2.835 4.192-1.21 1.162-2.647 2.06-4.313 2.694-1.668.634-3.475.951-5.423.951-1.95 0-3.75-.317-5.405-.951-1.655-.634-3.087-1.532-4.295-2.694-1.21-1.163-2.155-2.56-2.835-4.192-.682-1.632-1.022-3.434-1.022-5.406 0-1.996.34-3.799 1.022-5.408.68-1.607 1.624-2.976 2.835-4.103 1.208-1.128 2.64-1.996 4.295-2.607 1.655-.61 3.456-.915 5.405-.915 1.948 0 3.755.304 5.423.915 1.666.611 3.103 1.48 4.313 2.607 1.208 1.127 2.153 2.496 2.835 4.103zm-35.99 17.982l.141-17.647h-.106l-6.48 17.647H40.72L34.415 36.81h-.106l.142 17.647H28.78V29.52h8.57l5.678 15.991h.14L48.6 29.52h8.712v24.938z"/></g><g clip-path="url(#i4vsb)"><path fill="#fff" d="M69.32 54.39c-1.675-.644-3.145-1.566-4.37-2.743-1.225-1.178-2.196-2.613-2.886-4.267-.689-1.651-1.038-3.499-1.038-5.493 0-2.018.35-3.866 1.039-5.495.69-1.63 1.662-3.037 2.888-4.18 1.224-1.14 2.694-2.033 4.37-2.652 1.673-.617 3.517-.93 5.483-.93 1.966 0 3.817.313 5.5.93 1.688.618 3.164 1.51 4.39 2.652 1.225 1.143 2.196 2.55 2.887 4.18.69 1.63 1.039 3.48 1.039 5.495 0 1.992-.35 3.84-1.038 5.493-.69 1.654-1.662 3.09-2.886 4.267-1.226 1.177-2.702 2.1-4.39 2.742-1.684.64-3.536.966-5.502.966-1.966 0-3.812-.325-5.485-.966zm.162-24.41c-1.622.599-3.042 1.46-4.222 2.56-1.18 1.1-2.116 2.455-2.783 4.027-.665 1.573-1.003 3.362-1.003 5.32 0 1.934.338 3.724 1.004 5.32.667 1.597 1.603 2.982 2.784 4.117 1.182 1.135 2.602 2.026 4.223 2.646 1.622.621 3.414.937 5.326.937 1.913 0 3.711-.316 5.345-.937 1.632-.62 3.057-1.51 4.24-2.646 1.181-1.135 2.117-2.52 2.784-4.117.666-1.598 1.003-3.387 1.003-5.32 0-1.955-.337-3.746-1.003-5.32-.666-1.572-1.602-2.927-2.782-4.027-1.181-1.1-2.607-1.961-4.239-2.56-1.635-.598-3.434-.902-5.348-.902-1.913 0-3.707.304-5.33.902zm107.514 24.706a.224.224 0 0 1-.224-.224v-10.5l-9.334-14.317a.223.223 0 0 1 .188-.346h7.29c.081 0 .155.043.195.113l5.125 8.891 5.125-8.891a.224.224 0 0 1 .194-.113h7.045a.224.224 0 0 1 .186.348l-9.543 14.315v10.5c0 .124-.1.224-.224.224zm.224-.448h5.575V43.895c0-.044.013-.088.037-.124l9.35-14.024h-6.497l-5.254 9.116c-.08.139-.308.139-.39 0l-5.254-9.116h-6.748l9.144 14.025a.23.23 0 0 1 .037.123zm-12.975.448a.224.224 0 0 1-.208-.142l-1.881-4.754h-9.344l-1.778 4.75a.224.224 0 0 1-.21.146h-6.551a.225.225 0 0 1-.187-.1.226.226 0 0 1-.02-.211l10.462-24.938a.224.224 0 0 1 .206-.138h5.848c.09 0 .172.055.207.138l10.356 24.94a.224.224 0 0 1-.208.31zm.153-.448h6.204l-10.17-24.491h-5.549L144.61 54.238h6.059l1.777-4.75a.224.224 0 0 1 .21-.146h9.652c.092 0 .174.056.208.142zm-43.479.448a.224.224 0 0 1-.224-.224v-24.94c0-.123.1-.223.224-.223h9.018c1.77 0 3.54.21 5.265.623 1.735.416 3.302 1.115 4.656 2.078 1.362.967 2.475 2.28 3.31 3.902.835 1.622 1.258 3.647 1.258 6.02 0 2.21-.417 4.147-1.24 5.756-.821 1.607-1.921 2.949-3.268 3.985a13.647 13.647 0 0 1-4.565 2.292 18.52 18.52 0 0 1-5.134.731zm.224-.448h9.08c1.686 0 3.372-.24 5.012-.713a13.2 13.2 0 0 0 4.418-2.217c1.294-.996 2.352-2.286 3.144-3.835.79-1.545 1.191-3.413 1.191-5.551 0-2.301-.407-4.257-1.208-5.815-.803-1.558-1.87-2.816-3.172-3.742-1.31-.93-2.825-1.605-4.505-2.007a22.157 22.157 0 0 0-5.162-.611h-8.798zm-12.897.448a.224.224 0 0 1-.19-.107l-9.729-15.797.135 15.678a.225.225 0 0 1-.224.226h-5.85a.224.224 0 0 1-.224-.224v-24.94c0-.123.1-.223.224-.223h6.872c.077 0 .15.04.19.107l9.694 15.761-.136-15.642a.224.224 0 0 1 .225-.226h5.85c.123 0 .224.1.224.224v24.94c0 .123-.1.223-.225.223zm.119-.448h6.483V29.747h-5.397l.14 16.048a.223.223 0 0 1-.225.226h-.106a.224.224 0 0 1-.19-.107L99.13 29.747h-6.519v24.491h5.397l-.139-16.083c0-.06.023-.117.066-.16a.223.223 0 0 1 .159-.066h.105c.078 0 .15.04.19.107zm-56.977.448a.224.224 0 0 1-.224-.226l.133-16.651-6.145 16.73a.222.222 0 0 1-.21.147h-4.227a.224.224 0 0 1-.211-.15l-5.967-16.701.132 16.625a.223.223 0 0 1-.224.226h-5.67a.224.224 0 0 1-.225-.224v-24.94c0-.123.1-.223.224-.223h8.57c.095 0 .18.06.211.149l5.535 15.587 5.292-15.584a.224.224 0 0 1 .212-.152h8.711c.124 0 .224.1.224.224v24.94c0 .123-.1.223-.224.223zm.226-.448h5.467V29.747h-8.326l-5.38 15.84a.225.225 0 0 1-.212.152h-.14a.224.224 0 0 1-.212-.149l-5.625-15.843h-8.188v24.491h5.22l-.138-17.422c0-.06.023-.117.065-.159a.222.222 0 0 1 .16-.067h.105c.095 0 .18.06.21.149l6.253 17.499h3.913l6.427-17.5a.224.224 0 0 1 .21-.148h.105a.223.223 0 0 1 .224.226zm20.22-4.979a6.93 6.93 0 0 1-2.312-1.656c-.64-.7-1.146-1.548-1.507-2.521-.36-.971-.543-2.047-.543-3.195 0-1.101.176-2.146.525-3.106a7.091 7.091 0 0 1 1.511-2.49 7.253 7.253 0 0 1 2.327-1.636c.895-.399 1.898-.601 2.981-.601s2.091.202 3 .6c.904.399 1.688.95 2.328 1.638.64.688 1.148 1.525 1.51 2.486.36.962.542 2.007.542 3.11 0 1.147-.183 2.222-.543 3.194-.361.974-.874 1.823-1.526 2.523a7.127 7.127 0 0 1-2.33 1.654c-.893.399-1.896.601-2.98.601-1.085 0-2.089-.202-2.982-.6zm.18-14.195a6.794 6.794 0 0 0-2.182 1.535c-.61.643-1.085 1.428-1.414 2.335a8.638 8.638 0 0 0-.498 2.953c0 1.096.173 2.118.515 3.04.34.918.816 1.717 1.416 2.374a6.47 6.47 0 0 0 2.163 1.55c.836.372 1.777.56 2.797.56 1.02 0 1.962-.188 2.797-.56a6.657 6.657 0 0 0 2.182-1.552 7.022 7.022 0 0 0 1.433-2.373c.342-.921.515-1.944.515-3.039a8.38 8.38 0 0 0-.515-2.95c-.34-.907-.816-1.695-1.416-2.34a6.549 6.549 0 0 0-2.18-1.532c-.85-.374-1.797-.563-2.816-.563s-1.96.19-2.797.562zm54.788 14.409a.224.224 0 0 1-.224-.224V34.666c0-.124.1-.224.224-.224h2.994c1.045 0 2.076.12 3.064.358.997.24 1.9.65 2.685 1.216.79.572 1.43 1.346 1.901 2.302.472.954.71 2.167.71 3.604 0 1.414-.238 2.62-.71 3.586-.471.967-1.11 1.753-1.9 2.335-.78.578-1.696 1-2.72 1.254-1.011.25-2.078.376-3.17.376zm.224-.448h2.63c1.056 0 2.086-.122 3.063-.364a7.176 7.176 0 0 0 2.562-1.178c.73-.54 1.323-1.27 1.763-2.171.441-.904.665-2.045.665-3.39 0-1.368-.224-2.514-.664-3.405-.44-.89-1.032-1.609-1.762-2.138a7.144 7.144 0 0 0-2.528-1.143c-.954-.23-1.95-.346-2.96-.346h-2.769zm27.356-4.071a.226.226 0 0 1-.184-.096.223.223 0 0 1-.026-.205l3.17-8.55a.224.224 0 0 1 .21-.146c.095 0 .178.058.21.147l3.1 8.55a.223.223 0 0 1-.21.3zm.322-.428h5.629l-2.783-7.694z"/></g><g clip-path="url(#i4vsb)"><path fill="#fff" d="M168.12 11.873c0 1.687-.292 3.23-.875 4.626-.582 1.397-1.39 2.593-2.426 3.587-1.035.995-2.265 1.763-3.692 2.306-1.427.543-2.974.815-4.642.815-1.668 0-3.21-.272-4.627-.815-1.416-.543-2.642-1.31-3.677-2.306-1.035-.994-1.844-2.19-2.427-3.587-.583-1.397-.874-2.939-.874-4.626 0-1.708.291-3.25.874-4.627.583-1.377 1.392-2.547 2.427-3.512 1.035-.965 2.26-1.708 3.677-2.23 1.417-.523 2.959-.784 4.627-.784 1.668 0 3.215.261 4.642.783 1.427.523 2.657 1.266 3.692 2.23 1.035.966 1.844 2.136 2.426 3.513zm-5.526 0c0-.925-.15-1.789-.452-2.593a6.179 6.179 0 0 0-1.25-2.064 5.762 5.762 0 0 0-1.927-1.357c-.753-.331-1.582-.497-2.485-.497-.903 0-1.727.166-2.47.497a5.966 5.966 0 0 0-1.927 1.357 5.874 5.874 0 0 0-1.25 2.064 7.554 7.554 0 0 0-.437 2.593c0 .964.15 1.853.452 2.667a6.32 6.32 0 0 0 1.25 2.095 5.705 5.705 0 0 0 1.912 1.372c.743.33 1.567.497 2.47.497.903 0 1.727-.167 2.47-.497a5.881 5.881 0 0 0 1.927-1.372 6.187 6.187 0 0 0 1.265-2.095z"/></g><g clip-path="url(#i4vsb)"><path fill="#fff" d="M156.49 23.435c-1.688 0-3.272-.28-4.707-.829-1.44-.552-2.702-1.344-3.753-2.354-1.052-1.01-1.886-2.243-2.478-3.662-.592-1.417-.892-3.002-.892-4.713 0-1.73.3-3.317.891-4.715.594-1.399 1.428-2.605 2.481-3.588 1.05-.98 2.314-1.746 3.753-2.277C153.221.768 154.804.5 156.49.5c1.687 0 3.275.268 4.72.797 1.448.531 2.716 1.297 3.767 2.277 1.054.983 1.888 2.189 2.48 3.588.593 1.4.893 2.986.893 4.715 0 1.71-.3 3.295-.892 4.713-.592 1.42-1.426 2.651-2.478 3.662-1.051 1.01-2.319 1.803-3.768 2.354zm0-22.487c-1.634 0-3.164.259-4.55.77-1.383.51-2.595 1.245-3.602 2.184-1.007.938-1.805 2.095-2.373 3.435-.568 1.342-.857 2.87-.857 4.54 0 1.65.289 3.179.857 4.54.569 1.362 1.368 2.544 2.375 3.512 1.008.969 2.22 1.729 3.603 2.258 1.384.53 2.914.8 4.546.8 1.634 0 3.169-.27 4.563-.8 1.392-.53 2.61-1.29 3.616-2.258 1.008-.968 1.807-2.15 2.376-3.512.568-1.363.857-2.89.857-4.54 0-1.669-.289-3.196-.857-4.54-.568-1.34-1.366-2.497-2.374-3.435-1.006-.939-2.223-1.673-3.615-2.184zm-.006 17.784c-.93 0-1.792-.174-2.56-.516a5.963 5.963 0 0 1-1.988-1.426 6.552 6.552 0 0 1-1.293-2.168c-.31-.834-.466-1.758-.466-2.745 0-.947.15-1.844.449-2.669a6.13 6.13 0 0 1 1.299-2.142 6.208 6.208 0 0 1 1.998-1.407c.769-.344 1.63-.517 2.561-.517s1.797.173 2.575.516c.778.343 1.451.817 2.002 1.41.55.592.985 1.31 1.296 2.138.31.827.465 1.725.465 2.67 0 .987-.156 1.91-.465 2.746a6.44 6.44 0 0 1-1.311 2.17 6.116 6.116 0 0 1-2 1.424zm0-13.142c-.867 0-1.668.161-2.378.478a5.769 5.769 0 0 0-1.856 1.306 5.667 5.667 0 0 0-1.202 1.987 7.364 7.364 0 0 0-.423 2.516c0 .934.148 1.805.438 2.589a6.1 6.1 0 0 0 1.205 2.022 5.5 5.5 0 0 0 1.838 1.319c.71.317 1.511.477 2.378.477.867 0 1.668-.16 2.38-.478a5.663 5.663 0 0 0 1.854-1.32c.52-.558.93-1.238 1.219-2.02.29-.785.437-1.657.437-2.59 0-.891-.147-1.737-.437-2.514a5.976 5.976 0 0 0-1.204-1.99 5.565 5.565 0 0 0-1.854-1.303z"/></g><g clip-path="url(#i4vsb)"><path fill="#fff" d="M67.932 22.641h-6.027l-4.634-8.47h-1.757v8.47H50.48V1.3h8.139c1.024 0 2.024.106 3 .316a7.809 7.809 0 0 1 2.621 1.07 5.602 5.602 0 0 1 1.854 1.99c.462.823.693 1.85.693 3.075 0 1.446-.392 2.662-1.175 3.647-.784.985-1.869 1.688-3.256 2.11zM61.345 9.168c.232-.342.349-.784.349-1.328 0-.501-.107-.908-.319-1.22a2.2 2.2 0 0 0-.817-.724 3.608 3.608 0 0 0-1.121-.346 8.396 8.396 0 0 0-1.196-.09h-2.757v4.973h2.454c.423 0 .857-.035 1.302-.106.444-.07.848-.196 1.211-.376.364-.181.661-.442.894-.783z"/></g><g clip-path="url(#i4vsb)"><path fill="#fff" d="M61.898 22.86a.223.223 0 0 1-.196-.117l-4.57-8.354h-1.4v8.246c0 .124-.1.224-.224.224h-5.034a.224.224 0 0 1-.224-.224V1.295c0-.125.1-.225.224-.225h8.138c1.035 0 2.06.108 3.048.321a8.03 8.03 0 0 1 2.696 1.102 5.842 5.842 0 0 1 1.927 2.067c.48.855.722 1.926.722 3.185 0 1.491-.412 2.765-1.224 3.786-.756.95-1.796 1.655-3.091 2.097l5.428 8.89a.224.224 0 1 1-.191.341zm.133-.449h5.496L62.16 13.62a.223.223 0 0 1 .125-.331c1.336-.407 2.393-1.092 3.145-2.036.748-.939 1.127-2.12 1.127-3.507 0-1.181-.223-2.179-.664-2.966a5.393 5.393 0 0 0-1.781-1.91 7.595 7.595 0 0 0-2.547-1.04 14.04 14.04 0 0 0-2.953-.31h-7.914V22.41h4.586v-8.246c0-.123.1-.224.224-.224h1.756c.082 0 .157.044.197.116zm-6.553-11.76a.224.224 0 0 1-.224-.224V5.454c0-.124.1-.224.224-.224h2.756c.393 0 .807.031 1.229.093.434.062.834.187 1.19.368.365.187.668.456.9.797.238.349.359.802.359 1.347 0 .586-.131 1.074-.389 1.453-.252.371-.58.66-.978.857a4.39 4.39 0 0 1-1.276.398 8.576 8.576 0 0 1-1.338.108zm.224-.458h2.23c.411 0 .838-.034 1.267-.102.42-.067.806-.186 1.146-.356.332-.165.597-.396.808-.707.206-.302.31-.705.31-1.198 0-.452-.094-.82-.28-1.092a1.976 1.976 0 0 0-.734-.65 3.407 3.407 0 0 0-1.05-.322 8.21 8.21 0 0 0-1.165-.088h-2.532z"/></g><g clip-path="url(#i4vsb)"><path fill="#fff" d="M45.072 14.532c.23.564.347 1.196.347 1.9 0 1.165-.232 2.145-.694 2.939a5.498 5.498 0 0 1-1.839 1.913c-.764.483-1.632.83-2.607 1.04a14.1 14.1 0 0 1-2.999.317h-8.5V1.3h8.5c.823 0 1.668.085 2.532.256.863.171 1.647.463 2.35.874a4.99 4.99 0 0 1 1.719 1.673c.442.704.663 1.597.663 2.683 0 1.186-.321 2.166-.965 2.938-.643.774-1.487 1.332-2.532 1.674v.06c.603.1 1.17.286 1.704.557.531.272.995.619 1.386 1.04.392.423.704.915.935 1.477zM33.752 9.8h2.774c.965 0 1.713-.196 2.246-.588.532-.392.8-.969.8-1.732 0-.724-.277-1.252-.83-1.584-.553-.33-1.371-.497-2.457-.497h-2.532zm6.18 7.43c.221-.332.332-.758.332-1.281 0-.884-.332-1.496-.994-1.839-.664-.34-1.548-.512-2.653-.512h-2.864v4.883h2.894c.402 0 .818-.035 1.251-.105.432-.07.824-.196 1.176-.378.35-.18.637-.436.858-.767z"/></g><g clip-path="url(#i4vsb)"><path fill="#fff" d="M28.774 22.86a.224.224 0 0 1-.224-.225V1.295c0-.125.1-.225.224-.225h8.5c.832 0 1.698.088 2.576.26a7.78 7.78 0 0 1 2.42.902 5.233 5.233 0 0 1 1.795 1.747c.463.736.698 1.678.698 2.8 0 1.235-.342 2.273-1.017 3.084a5.472 5.472 0 0 1-2.027 1.51c.392.108.77.255 1.128.437a5.186 5.186 0 0 1 1.449 1.087c.408.44.737.959.977 1.544v.001c.241.588.364 1.255.364 1.984 0 1.199-.243 2.226-.724 3.052A5.742 5.742 0 0 1 43 21.468a8.28 8.28 0 0 1-2.68 1.07c-.987.214-2.011.321-3.046.321zm.224-.449h8.276c1.002 0 1.996-.105 2.952-.311a7.825 7.825 0 0 0 2.535-1.01 5.303 5.303 0 0 0 1.765-1.837c.44-.757.663-1.707.663-2.827 0-.67-.11-1.28-.33-1.814a4.64 4.64 0 0 0-.892-1.41 4.744 4.744 0 0 0-1.323-.992 5.677 5.677 0 0 0-1.64-.537.225.225 0 0 1-.186-.221v-.06c0-.097.062-.183.155-.213.999-.326 1.816-.866 2.428-1.603.606-.728.914-1.669.914-2.796 0-1.037-.212-1.9-.63-2.563a4.78 4.78 0 0 0-1.64-1.599 7.307 7.307 0 0 0-2.282-.848 12.91 12.91 0 0 0-2.489-.252h-8.276zm4.75-3.712a.224.224 0 0 1-.225-.224v-4.883c0-.123.1-.224.224-.224h2.864c1.136 0 2.063.181 2.755.538.741.382 1.117 1.067 1.117 2.038 0 .564-.125 1.037-.37 1.406a2.487 2.487 0 0 1-.943.843c-.37.19-.788.325-1.241.399-.44.071-.873.107-1.288.107zm.223-.448h2.67c.391 0 .8-.034 1.215-.102.407-.066.78-.186 1.109-.355.316-.162.576-.395.775-.693.195-.293.294-.682.294-1.157 0-.8-.285-1.337-.873-1.64-.628-.323-1.486-.488-2.55-.488h-2.64zm-.224-8.233a.224.224 0 0 1-.224-.224v-4.4c0-.123.1-.224.224-.224h2.533c1.137 0 1.978.173 2.571.529.623.373.938.971.938 1.775 0 .834-.299 1.478-.89 1.913-.57.42-1.37.631-2.378.631zm.224-.448h2.55c.91 0 1.621-.183 2.113-.544.476-.35.707-.859.707-1.552 0-.645-.235-1.1-.72-1.39-.515-.31-1.302-.466-2.341-.466H33.97z"/></g></g></g></svg>