<?xml version="1.0" encoding="UTF-8"?>
<svg width="248px" height="86px" viewBox="0 0 248 86" version="1.1" xmlns="http://www.w3.org/2000/svg" xmlns:xlink="http://www.w3.org/1999/xlink">
    <title>payroll-and-paye</title>
    <defs>
        <rect id="path-1" x="0" y="0" width="220" height="58" rx="11"></rect>
        <filter x="-7.0%" y="-30.2%" width="124.1%" height="191.4%" filterUnits="objectBoundingBox" id="filter-2">
            <feOffset dx="11" dy="9" in="SourceAlpha" result="shadowOffsetOuter1"></feOffset>
            <feGaussianBlur stdDeviation="7" in="shadowOffsetOuter1" result="shadowBlurOuter1"></feGaussianBlur>
            <feColorMatrix values="0 0 0 0 0   0 0 0 0 0   0 0 0 0 0  0 0 0 0.138904065 0" type="matrix" in="shadowBlurOuter1"></feColorMatrix>
        </filter>
    </defs>
    <g id="V2-DESIGNS" stroke="none" stroke-width="1" fill="none" fill-rule="evenodd">
        <g id="BOM-homepage--slide-1" transform="translate(-1454.000000, -602.000000)">
            <g id="payroll-and-paye" transform="translate(1457.000000, 607.000000)">
                <g id="Rectangle">
                    <use fill="black" fill-opacity="1" filter="url(#filter-2)" xlink:href="#path-1"></use>
                    <use fill="#FFFFFF" fill-rule="evenodd" xlink:href="#path-1"></use>
                </g>
                <circle id="Oval" fill="#EE4050" cx="33" cy="30" r="17"></circle>
                <g id="icon_check@1x-copy-2" transform="translate(24.000000, 21.500000)" fill="#FFFFFF" fill-rule="nonzero">
                    <path d="M6.49547826,15.9563478 C6.52504348,15.98 6.54278261,16.0125217 6.57382609,16.0346957 C6.61817391,16.0642609 6.66843478,16.0701739 6.71573913,16.0908696 C6.77191304,16.1174783 6.8266087,16.1426087 6.88573913,16.1588696 C6.9433913,16.1736522 6.99956522,16.1810435 7.05869565,16.1854783 C7.14295652,16.1943478 7.22426087,16.1943478 7.30704348,16.1825217 C7.34104348,16.1766087 7.37356522,16.1677391 7.40756522,16.1588696 C7.50956522,16.1337391 7.60417391,16.0938261 7.69730435,16.0376522 C7.71356522,16.0273043 7.72686957,16.0154783 7.74313043,16.0051304 C7.80373913,15.9637391 7.86878261,15.9326957 7.92052174,15.8765217 C7.95747826,15.8366087 7.97373913,15.7848696 8.00330435,15.7405217 C8.00478261,15.7390435 8.00773913,15.7375652 8.00773913,15.736087 L16.8166957,1.61721739 C17.130087,1.13973913 16.9955652,0.498173913 16.5166087,0.184782609 C16.0376522,-0.128608696 15.3975652,0.00591304348 15.0841739,0.484869565 L6.94782609,13.5246087 L2.448,9.14747826 C2.02817391,8.75869565 1.37478261,8.78382609 0.986,9.20365217 C0.598695652,9.62347826 0.623826087,10.2783478 1.04365217,10.6656522 L6.45704348,15.9326957 C6.4673913,15.9430435 6.48217391,15.946 6.49547826,15.9563478 Z" id="Path"></path>
                </g>
                <path d="M68.706,34.5 L68.706,29.519 L70.355,29.519 C70.9896667,29.519 71.5903333,29.4566667 72.157,29.332 C72.7236667,29.2073333 73.2195,29.0061667 73.6445,28.7285 C74.0695,28.4508333 74.4066667,28.0853333 74.656,27.632 C74.9053333,27.1786667 75.03,26.6176667 75.03,25.949 C75.03,25.3256667 74.9223333,24.793 74.707,24.351 C74.4916667,23.909 74.1856667,23.5463333 73.789,23.263 C73.3923333,22.9796667 72.9163333,22.7756667 72.361,22.651 C71.8056667,22.5263333 71.1823333,22.464 70.491,22.464 L70.491,22.464 L66.564,22.464 L66.564,34.5 L68.706,34.5 Z M70.202,27.717 L68.706,27.717 L68.706,24.266 L70.27,24.266 C70.5986667,24.266 70.9188333,24.2858333 71.2305,24.3255 C71.5421667,24.3651667 71.8198333,24.4473333 72.0635,24.572 C72.3071667,24.6966667 72.5026667,24.8695 72.65,25.0905 C72.7973333,25.3115 72.871,25.5976667 72.871,25.949 C72.871,26.3116667 72.7973333,26.6063333 72.65,26.833 C72.5026667,27.0596667 72.3043333,27.2381667 72.055,27.3685 C71.8056667,27.4988333 71.5223333,27.5895 71.205,27.6405 C70.8876667,27.6915 70.5533333,27.717 70.202,27.717 L70.202,27.717 Z M79.314,34.704 C79.892,34.704 80.4076667,34.5878333 80.861,34.3555 C81.3143333,34.1231667 81.643,33.8256667 81.847,33.463 L81.847,33.463 L81.898,33.463 L81.898,34.5 L83.802,34.5 L83.802,29.536 C83.802,29.128 83.7481667,28.72 83.6405,28.312 C83.5328333,27.904 83.343,27.5356667 83.071,27.207 C82.799,26.8783333 82.4278333,26.612 81.9575,26.408 C81.4871667,26.204 80.8893333,26.102 80.164,26.102 C79.5406667,26.102 78.9258333,26.2096667 78.3195,26.425 C77.7131667,26.6403333 77.1776667,26.9633333 76.713,27.394 L76.713,27.394 L77.767,28.635 C78.0276667,28.3743333 78.3563333,28.1533333 78.753,27.972 C79.1496667,27.7906667 79.5633333,27.7 79.994,27.7 C80.504,27.7 80.9431667,27.8218333 81.3115,28.0655 C81.6798333,28.3091667 81.864,28.686 81.864,29.196 L81.864,29.196 L81.864,29.4 C81.2293333,29.4 80.5805,29.4311667 79.9175,29.4935 C79.2545,29.5558333 78.651,29.6833333 78.107,29.876 C77.563,30.0686667 77.1181667,30.3463333 76.7725,30.709 C76.4268333,31.0716667 76.254,31.559 76.254,32.171 C76.254,32.647 76.3531667,33.0465 76.5515,33.3695 C76.7498333,33.6925 76.9991667,33.9531667 77.2995,34.1515 C77.5998333,34.3498333 77.9285,34.4915 78.2855,34.5765 C78.6425,34.6615 78.9853333,34.704 79.314,34.704 Z M79.722,33.157 C79.552,33.157 79.382,33.14 79.212,33.106 C79.042,33.072 78.889,33.0153333 78.753,32.936 C78.617,32.8566667 78.5065,32.7518333 78.4215,32.6215 C78.3365,32.4911667 78.294,32.3296667 78.294,32.137 C78.294,31.831 78.396,31.5901667 78.6,31.4145 C78.804,31.2388333 79.059,31.1028333 79.365,31.0065 C79.671,30.9101667 80.0053333,30.8478333 80.368,30.8195 C80.7306667,30.7911667 81.0763333,30.777 81.405,30.777 L81.405,30.777 L81.864,30.777 L81.864,31.066 C81.864,31.712 81.6826667,32.222 81.32,32.596 C80.9573333,32.97 80.4246667,33.157 79.722,33.157 Z M86.726,38.58 C87.1793333,38.58 87.5675,38.529 87.8905,38.427 C88.2135,38.325 88.494,38.1748333 88.732,37.9765 C88.97,37.7781667 89.174,37.5345 89.344,37.2455 C89.514,36.9565 89.6726667,36.625 89.82,36.251 L89.82,36.251 L93.679,26.34 L91.554,26.34 L89.531,32.273 L89.497,32.273 L87.219,26.34 L84.958,26.34 L88.46,34.5 L88.052,35.537 C87.9613333,35.7523333 87.8763333,35.9393333 87.797,36.098 C87.7176667,36.2566667 87.627,36.3898333 87.525,36.4975 C87.423,36.6051667 87.2983333,36.6845 87.151,36.7355 C87.0036667,36.7865 86.8223333,36.812 86.607,36.812 C86.4936667,36.812 86.3718333,36.8035 86.2415,36.7865 C86.1111667,36.7695 85.978,36.7383333 85.842,36.693 L85.842,36.693 L85.672,38.461 C85.8533333,38.5063333 86.0318333,38.5375 86.2075,38.5545 C86.3831667,38.5715 86.556,38.58 86.726,38.58 Z M96.943,34.5 L96.943,30.131 C96.943,29.9836667 96.9713333,29.7853333 97.028,29.536 C97.0846667,29.2866667 97.1923333,29.043 97.351,28.805 C97.5096667,28.567 97.7306667,28.363 98.014,28.193 C98.2973333,28.023 98.6713333,27.938 99.136,27.938 C99.2266667,27.938 99.3201667,27.9436667 99.4165,27.955 C99.5128333,27.9663333 99.629,27.989 99.765,28.023 L99.765,28.023 L99.765,26.153 C99.697,26.1303333 99.6176667,26.1161667 99.527,26.1105 C99.4363333,26.1048333 99.3513333,26.102 99.272,26.102 C98.728,26.102 98.252,26.2493333 97.844,26.544 C97.436,26.8386667 97.1186667,27.224 96.892,27.7 L96.892,27.7 L96.858,27.7 L96.858,26.34 L94.903,26.34 L94.903,34.5 L96.943,34.5 Z M105.052,34.738 C105.664,34.738 106.242,34.6303333 106.786,34.415 C107.33,34.1996667 107.800333,33.9021667 108.197,33.5225 C108.593667,33.1428333 108.908167,32.6866667 109.1405,32.154 C109.372833,31.6213333 109.489,31.032 109.489,30.386 C109.489,29.74 109.372833,29.1535 109.1405,28.6265 C108.908167,28.0995 108.593667,27.649 108.197,27.275 C107.800333,26.901 107.33,26.612 106.786,26.408 C106.242,26.204 105.664,26.102 105.052,26.102 C104.44,26.102 103.862,26.204 103.318,26.408 C102.774,26.612 102.303667,26.901 101.907,27.275 C101.510333,27.649 101.195833,28.0995 100.9635,28.6265 C100.731167,29.1535 100.615,29.74 100.615,30.386 C100.615,31.032 100.731167,31.6213333 100.9635,32.154 C101.195833,32.6866667 101.510333,33.1428333 101.907,33.5225 C102.303667,33.9021667 102.774,34.1996667 103.318,34.415 C103.862,34.6303333 104.44,34.738 105.052,34.738 Z M105.052,33.038 C104.644,33.038 104.292667,32.9586667 103.998,32.8 C103.703333,32.6413333 103.459667,32.4373333 103.267,32.188 C103.074333,31.9386667 102.929833,31.6553333 102.8335,31.338 C102.737167,31.0206667 102.689,30.7033333 102.689,30.386 C102.689,30.0686667 102.737167,29.7541667 102.8335,29.4425 C102.929833,29.1308333 103.074333,28.8503333 103.267,28.601 C103.459667,28.3516667 103.703333,28.1505 103.998,27.9975 C104.292667,27.8445 104.644,27.768 105.052,27.768 C105.46,27.768 105.811333,27.8445 106.106,27.9975 C106.400667,28.1505 106.644333,28.3516667 106.837,28.601 C107.029667,28.8503333 107.174167,29.1308333 107.2705,29.4425 C107.366833,29.7541667 107.415,30.0686667 107.415,30.386 C107.415,30.7033333 107.366833,31.0206667 107.2705,31.338 C107.174167,31.6553333 107.029667,31.9386667 106.837,32.188 C106.644333,32.4373333 106.400667,32.6413333 106.106,32.8 C105.811333,32.9586667 105.46,33.038 105.052,33.038 Z M113.535,34.5 L113.535,21.648 L111.495,21.648 L111.495,34.5 L113.535,34.5 Z M118.091,34.5 L118.091,21.648 L116.051,21.648 L116.051,34.5 L118.091,34.5 Z M128.444,34.738 C129.316667,34.738 130.036333,34.585 130.603,34.279 C131.169667,33.973 131.651333,33.5876667 132.048,33.123 L132.048,33.123 L133.374,34.5 L136.094,34.5 L133.289,31.627 L135.703,28.142 L133.374,28.142 L131.98,30.335 L130.008,28.278 C130.348,28.1193333 130.668167,27.938 130.9685,27.734 C131.268833,27.53 131.5295,27.2948333 131.7505,27.0285 C131.9715,26.7621667 132.147167,26.4675 132.2775,26.1445 C132.407833,25.8215 132.473,25.4673333 132.473,25.082 C132.473,24.5946667 132.3795,24.1668333 132.1925,23.7985 C132.0055,23.4301667 131.759,23.1241667 131.453,22.8805 C131.147,22.6368333 130.792833,22.4555 130.3905,22.3365 C129.988167,22.2175 129.571667,22.158 129.141,22.158 C128.721667,22.158 128.310833,22.2146667 127.9085,22.328 C127.506167,22.4413333 127.1435,22.6198333 126.8205,22.8635 C126.4975,23.1071667 126.236833,23.416 126.0385,23.79 C125.840167,24.164 125.741,24.606 125.741,25.116 C125.741,25.6373333 125.857167,26.1161667 126.0895,26.5525 C126.321833,26.9888333 126.636333,27.411 127.033,27.819 C126.693,27.9663333 126.367167,28.142 126.0555,28.346 C125.743833,28.55 125.466167,28.7936667 125.2225,29.077 C124.978833,29.3603333 124.783333,29.6805 124.636,30.0375 C124.488667,30.3945 124.415,30.794 124.415,31.236 C124.415,31.814 124.5255,32.3211667 124.7465,32.7575 C124.9675,33.1938333 125.262167,33.5593333 125.6305,33.854 C125.998833,34.1486667 126.426667,34.3696667 126.914,34.517 C127.401333,34.6643333 127.911333,34.738 128.444,34.738 Z M128.835,27.071 C128.495,26.765 128.2315,26.4533333 128.0445,26.136 C127.8575,25.8186667 127.764,25.49 127.764,25.15 C127.764,24.7533333 127.9,24.4303333 128.172,24.181 C128.444,23.9316667 128.778333,23.807 129.175,23.807 C129.583,23.807 129.917333,23.9401667 130.178,24.2065 C130.438667,24.4728333 130.569,24.7873333 130.569,25.15 C130.569,25.3766667 130.523667,25.5863333 130.433,25.779 C130.342333,25.9716667 130.217667,26.1473333 130.059,26.306 C129.900333,26.4646667 129.716167,26.6063333 129.5065,26.731 C129.296833,26.8556667 129.073,26.969 128.835,27.071 Z M128.512,33.038 C128.285333,33.038 128.053,32.9955 127.815,32.9105 C127.577,32.8255 127.361667,32.7036667 127.169,32.545 C126.976333,32.3863333 126.8205,32.188 126.7015,31.95 C126.5825,31.712 126.523,31.4456667 126.523,31.151 C126.523,30.8676667 126.568333,30.6155 126.659,30.3945 C126.749667,30.1735 126.8715,29.9836667 127.0245,29.825 C127.1775,29.6663333 127.353167,29.5303333 127.5515,29.417 C127.749833,29.3036667 127.962333,29.2073333 128.189,29.128 L128.189,29.128 L130.756,31.797 C130.461333,32.1936667 130.138333,32.4996667 129.787,32.715 C129.435667,32.9303333 129.010667,33.038 128.512,33.038 Z M143.914,34.5 L143.914,29.519 L145.563,29.519 C146.197667,29.519 146.798333,29.4566667 147.365,29.332 C147.931667,29.2073333 148.4275,29.0061667 148.8525,28.7285 C149.2775,28.4508333 149.614667,28.0853333 149.864,27.632 C150.113333,27.1786667 150.238,26.6176667 150.238,25.949 C150.238,25.3256667 150.130333,24.793 149.915,24.351 C149.699667,23.909 149.393667,23.5463333 148.997,23.263 C148.600333,22.9796667 148.124333,22.7756667 147.569,22.651 C147.013667,22.5263333 146.390333,22.464 145.699,22.464 L145.699,22.464 L141.772,22.464 L141.772,34.5 L143.914,34.5 Z M145.41,27.717 L143.914,27.717 L143.914,24.266 L145.478,24.266 C145.806667,24.266 146.126833,24.2858333 146.4385,24.3255 C146.750167,24.3651667 147.027833,24.4473333 147.2715,24.572 C147.515167,24.6966667 147.710667,24.8695 147.858,25.0905 C148.005333,25.3115 148.079,25.5976667 148.079,25.949 C148.079,26.3116667 148.005333,26.6063333 147.858,26.833 C147.710667,27.0596667 147.512333,27.2381667 147.263,27.3685 C147.013667,27.4988333 146.730333,27.5895 146.413,27.6405 C146.095667,27.6915 145.761333,27.717 145.41,27.717 L145.41,27.717 Z M153.077,34.5 L154.165,31.746 L159.384,31.746 L160.506,34.5 L162.954,34.5 L157.769,22.464 L155.916,22.464 L150.68,34.5 L153.077,34.5 Z M158.636,29.91 L154.896,29.91 L156.783,25.014 L158.636,29.91 Z M169.193,34.5 L169.193,29.281 L173.715,22.464 L171.233,22.464 L168.173,27.53 L165.147,22.464 L162.529,22.464 L167.051,29.281 L167.051,34.5 L169.193,34.5 Z M182.997,34.5 L182.997,32.596 L176.86,32.596 L176.86,29.196 L182.385,29.196 L182.385,27.394 L176.86,27.394 L176.86,24.334 L182.691,24.334 L182.691,22.464 L174.718,22.464 L174.718,34.5 L182.997,34.5 Z" id="Payroll&amp;PAYE" fill="#EE4050" fill-rule="nonzero"></path>
            </g>
        </g>
    </g>
</svg>