<?xml version="1.0" encoding="UTF-8"?>
<svg width="232px" height="86px" viewBox="0 0 232 86" version="1.1" xmlns="http://www.w3.org/2000/svg" xmlns:xlink="http://www.w3.org/1999/xlink">
    <title>payroll-paye</title>
    <defs>
        <rect id="path-1" x="0" y="0" width="204" height="58" rx="11"></rect>
        <filter x="-7.6%" y="-30.2%" width="126.0%" height="191.4%" filterUnits="objectBoundingBox" id="filter-2">
            <feOffset dx="11" dy="9" in="SourceAlpha" result="shadowOffsetOuter1"></feOffset>
            <feGaussianBlur stdDeviation="7" in="shadowOffsetOuter1" result="shadowBlurOuter1"></feGaussianBlur>
            <feColorMatrix values="0 0 0 0 0   0 0 0 0 0   0 0 0 0 0  0 0 0 0.138904065 0" type="matrix" in="shadowBlurOuter1"></feColorMatrix>
        </filter>
    </defs>
    <g id="V2-DESIGNS" stroke="none" stroke-width="1" fill="none" fill-rule="evenodd">
        <g id="BOM-homepage--slide-1" transform="translate(-1456.000000, -2292.000000)">
            <g id="Group-31" transform="translate(953.000000, 1905.000000)">
                <g id="Group-20" transform="translate(107.000000, 0.000000)">
                    <g id="Group-24" transform="translate(399.000000, 243.000000)">
                        <g id="payroll-paye" transform="translate(0.000000, 149.000000)">
                            <g id="Rectangle">
                                <use fill="black" fill-opacity="1" filter="url(#filter-2)" xlink:href="#path-1"></use>
                                <use fill="#FFFFFF" fill-rule="evenodd" xlink:href="#path-1"></use>
                            </g>
                            <circle id="Oval" fill="#333091" cx="33" cy="30" r="17"></circle>
                            <g id="icon_check@1x-copy-2" transform="translate(24.000000, 21.500000)" fill="#FFFFFF" fill-rule="nonzero">
                                <path d="M6.49547826,15.9563478 C6.52504348,15.98 6.54278261,16.0125217 6.57382609,16.0346957 C6.61817391,16.0642609 6.66843478,16.0701739 6.71573913,16.0908696 C6.77191304,16.1174783 6.8266087,16.1426087 6.88573913,16.1588696 C6.9433913,16.1736522 6.99956522,16.1810435 7.05869565,16.1854783 C7.14295652,16.1943478 7.22426087,16.1943478 7.30704348,16.1825217 C7.34104348,16.1766087 7.37356522,16.1677391 7.40756522,16.1588696 C7.50956522,16.1337391 7.60417391,16.0938261 7.69730435,16.0376522 C7.71356522,16.0273043 7.72686957,16.0154783 7.74313043,16.0051304 C7.80373913,15.9637391 7.86878261,15.9326957 7.92052174,15.8765217 C7.95747826,15.8366087 7.97373913,15.7848696 8.00330435,15.7405217 C8.00478261,15.7390435 8.00773913,15.7375652 8.00773913,15.736087 L16.8166957,1.61721739 C17.130087,1.13973913 16.9955652,0.498173913 16.5166087,0.184782609 C16.0376522,-0.128608696 15.3975652,0.00591304348 15.0841739,0.484869565 L6.94782609,13.5246087 L2.448,9.14747826 C2.02817391,8.75869565 1.37478261,8.78382609 0.986,9.20365217 C0.598695652,9.62347826 0.623826087,10.2783478 1.04365217,10.6656522 L6.45704348,15.9326957 C6.4673913,15.9430435 6.48217391,15.946 6.49547826,15.9563478 Z" id="Path"></path>
                            </g>
                            <path d="M69.052,35 L69.052,30.898 L70.41,30.898 C70.9326667,30.898 71.4273333,30.8466667 71.894,30.744 C72.3606667,30.6413333 72.769,30.4756667 73.119,30.247 C73.469,30.0183333 73.7466667,29.7173333 73.952,29.344 C74.1573333,28.9706667 74.26,28.5086667 74.26,27.958 C74.26,27.4446667 74.1713333,27.006 73.994,26.642 C73.8166667,26.278 73.5646667,25.9793333 73.238,25.746 C72.9113333,25.5126667 72.5193333,25.3446667 72.062,25.242 C71.6046667,25.1393333 71.0913333,25.088 70.522,25.088 L70.522,25.088 L67.288,25.088 L67.288,35 L69.052,35 Z M70.284,29.414 L69.052,29.414 L69.052,26.572 L70.34,26.572 C70.6106667,26.572 70.8743333,26.5883333 71.131,26.621 C71.3876667,26.6536667 71.6163333,26.7213333 71.817,26.824 C72.0176667,26.9266667 72.1786667,27.069 72.3,27.251 C72.4213333,27.433 72.482,27.6686667 72.482,27.958 C72.482,28.2566667 72.4213333,28.4993333 72.3,28.686 C72.1786667,28.8726667 72.0153333,29.0196667 71.81,29.127 C71.6046667,29.2343333 71.3713333,29.309 71.11,29.351 C70.8486667,29.393 70.5733333,29.414 70.284,29.414 L70.284,29.414 Z M77.788,35.168 C78.264,35.168 78.6886667,35.0723333 79.062,34.881 C79.4353333,34.6896667 79.706,34.4446667 79.874,34.146 L79.874,34.146 L79.916,34.146 L79.916,35 L81.484,35 L81.484,30.912 C81.484,30.576 81.4396667,30.24 81.351,29.904 C81.2623333,29.568 81.106,29.2646667 80.882,28.994 C80.658,28.7233333 80.3523333,28.504 79.965,28.336 C79.5776667,28.168 79.0853333,28.084 78.488,28.084 C77.9746667,28.084 77.4683333,28.1726667 76.969,28.35 C76.4696667,28.5273333 76.0286667,28.7933333 75.646,29.148 L75.646,29.148 L76.514,30.17 C76.7286667,29.9553333 76.9993333,29.7733333 77.326,29.624 C77.6526667,29.4746667 77.9933333,29.4 78.348,29.4 C78.768,29.4 79.1296667,29.5003333 79.433,29.701 C79.7363333,29.9016667 79.888,30.212 79.888,30.632 L79.888,30.632 L79.888,30.8 C79.3653333,30.8 78.831,30.8256667 78.285,30.877 C77.739,30.9283333 77.242,31.0333333 76.794,31.192 C76.346,31.3506667 75.9796667,31.5793333 75.695,31.878 C75.4103333,32.1766667 75.268,32.578 75.268,33.082 C75.268,33.474 75.3496667,33.803 75.513,34.069 C75.6763333,34.335 75.8816667,34.5496667 76.129,34.713 C76.3763333,34.8763333 76.647,34.993 76.941,35.063 C77.235,35.133 77.5173333,35.168 77.788,35.168 Z M78.124,33.894 C77.984,33.894 77.844,33.88 77.704,33.852 C77.564,33.824 77.438,33.7773333 77.326,33.712 C77.214,33.6466667 77.123,33.5603333 77.053,33.453 C76.983,33.3456667 76.948,33.2126667 76.948,33.054 C76.948,32.802 77.032,32.6036667 77.2,32.459 C77.368,32.3143333 77.578,32.2023333 77.83,32.123 C78.082,32.0436667 78.3573333,31.9923333 78.656,31.969 C78.9546667,31.9456667 79.2393333,31.934 79.51,31.934 L79.51,31.934 L79.888,31.934 L79.888,32.172 C79.888,32.704 79.7386667,33.124 79.44,33.432 C79.1413333,33.74 78.7026667,33.894 78.124,33.894 Z M83.892,38.36 C84.2653333,38.36 84.585,38.318 84.851,38.234 C85.117,38.15 85.348,38.0263333 85.544,37.863 C85.74,37.6996667 85.908,37.499 86.048,37.261 C86.188,37.023 86.3186667,36.75 86.44,36.442 L86.44,36.442 L89.618,28.28 L87.868,28.28 L86.202,33.166 L86.174,33.166 L84.298,28.28 L82.436,28.28 L85.32,35 L84.984,35.854 C84.9093333,36.0313333 84.8393333,36.1853333 84.774,36.316 C84.7086667,36.4466667 84.634,36.5563333 84.55,36.645 C84.466,36.7336667 84.3633333,36.799 84.242,36.841 C84.1206667,36.883 83.9713333,36.904 83.794,36.904 C83.7006667,36.904 83.6003333,36.897 83.493,36.883 C83.3856667,36.869 83.276,36.8433333 83.164,36.806 L83.164,36.806 L83.024,38.262 C83.1733333,38.2993333 83.3203333,38.325 83.465,38.339 C83.6096667,38.353 83.752,38.36 83.892,38.36 Z M92.306,35 L92.306,31.402 C92.306,31.2806667 92.3293333,31.1173333 92.376,30.912 C92.4226667,30.7066667 92.5113333,30.506 92.642,30.31 C92.7726667,30.114 92.9546667,29.946 93.188,29.806 C93.4213333,29.666 93.7293333,29.596 94.112,29.596 C94.1866667,29.596 94.2636667,29.6006667 94.343,29.61 C94.4223333,29.6193333 94.518,29.638 94.63,29.666 L94.63,29.666 L94.63,28.126 C94.574,28.1073333 94.5086667,28.0956667 94.434,28.091 C94.3593333,28.0863333 94.2893333,28.084 94.224,28.084 C93.776,28.084 93.384,28.2053333 93.048,28.448 C92.712,28.6906667 92.4506667,29.008 92.264,29.4 L92.264,29.4 L92.236,29.4 L92.236,28.28 L90.626,28.28 L90.626,35 L92.306,35 Z M98.984,35.196 C99.488,35.196 99.964,35.1073333 100.412,34.93 C100.86,34.7526667 101.247333,34.5076667 101.574,34.195 C101.900667,33.8823333 102.159667,33.5066667 102.351,33.068 C102.542333,32.6293333 102.638,32.144 102.638,31.612 C102.638,31.08 102.542333,30.597 102.351,30.163 C102.159667,29.729 101.900667,29.358 101.574,29.05 C101.247333,28.742 100.86,28.504 100.412,28.336 C99.964,28.168 99.488,28.084 98.984,28.084 C98.48,28.084 98.004,28.168 97.556,28.336 C97.108,28.504 96.7206667,28.742 96.394,29.05 C96.0673333,29.358 95.8083333,29.729 95.617,30.163 C95.4256667,30.597 95.33,31.08 95.33,31.612 C95.33,32.144 95.4256667,32.6293333 95.617,33.068 C95.8083333,33.5066667 96.0673333,33.8823333 96.394,34.195 C96.7206667,34.5076667 97.108,34.7526667 97.556,34.93 C98.004,35.1073333 98.48,35.196 98.984,35.196 Z M98.984,33.796 C98.648,33.796 98.3586667,33.7306667 98.116,33.6 C97.8733333,33.4693333 97.6726667,33.3013333 97.514,33.096 C97.3553333,32.8906667 97.2363333,32.6573333 97.157,32.396 C97.0776667,32.1346667 97.038,31.8733333 97.038,31.612 C97.038,31.3506667 97.0776667,31.0916667 97.157,30.835 C97.2363333,30.5783333 97.3553333,30.3473333 97.514,30.142 C97.6726667,29.9366667 97.8733333,29.771 98.116,29.645 C98.3586667,29.519 98.648,29.456 98.984,29.456 C99.32,29.456 99.6093333,29.519 99.852,29.645 C100.094667,29.771 100.295333,29.9366667 100.454,30.142 C100.612667,30.3473333 100.731667,30.5783333 100.811,30.835 C100.890333,31.0916667 100.93,31.3506667 100.93,31.612 C100.93,31.8733333 100.890333,32.1346667 100.811,32.396 C100.731667,32.6573333 100.612667,32.8906667 100.454,33.096 C100.295333,33.3013333 100.094667,33.4693333 99.852,33.6 C99.6093333,33.7306667 99.32,33.796 98.984,33.796 Z M105.97,35 L105.97,24.416 L104.29,24.416 L104.29,35 L105.97,35 Z M109.722,35 L109.722,24.416 L108.042,24.416 L108.042,35 L109.722,35 Z M118.248,35.196 C118.966667,35.196 119.559333,35.07 120.026,34.818 C120.492667,34.566 120.889333,34.2486667 121.216,33.866 L121.216,33.866 L122.308,35 L124.548,35 L122.238,32.634 L124.226,29.764 L122.308,29.764 L121.16,31.57 L119.536,29.876 C119.816,29.7453333 120.079667,29.596 120.327,29.428 C120.574333,29.26 120.789,29.0663333 120.971,28.847 C121.153,28.6276667 121.297667,28.385 121.405,28.119 C121.512333,27.853 121.566,27.5613333 121.566,27.244 C121.566,26.8426667 121.489,26.4903333 121.335,26.187 C121.181,25.8836667 120.978,25.6316667 120.726,25.431 C120.474,25.2303333 120.182333,25.081 119.851,24.983 C119.519667,24.885 119.176667,24.836 118.822,24.836 C118.476667,24.836 118.138333,24.8826667 117.807,24.976 C117.475667,25.0693333 117.177,25.2163333 116.911,25.417 C116.645,25.6176667 116.430333,25.872 116.267,26.18 C116.103667,26.488 116.022,26.852 116.022,27.272 C116.022,27.7013333 116.117667,28.0956667 116.309,28.455 C116.500333,28.8143333 116.759333,29.162 117.086,29.498 C116.806,29.6193333 116.537667,29.764 116.281,29.932 C116.024333,30.1 115.795667,30.3006667 115.595,30.534 C115.394333,30.7673333 115.233333,31.031 115.112,31.325 C114.990667,31.619 114.93,31.948 114.93,32.312 C114.93,32.788 115.021,33.2056667 115.203,33.565 C115.385,33.9243333 115.627667,34.2253333 115.931,34.468 C116.234333,34.7106667 116.586667,34.8926667 116.988,35.014 C117.389333,35.1353333 117.809333,35.196 118.248,35.196 Z M118.57,28.882 C118.29,28.63 118.073,28.3733333 117.919,28.112 C117.765,27.8506667 117.688,27.58 117.688,27.3 C117.688,26.9733333 117.8,26.7073333 118.024,26.502 C118.248,26.2966667 118.523333,26.194 118.85,26.194 C119.186,26.194 119.461333,26.3036667 119.676,26.523 C119.890667,26.7423333 119.998,27.0013333 119.998,27.3 C119.998,27.4866667 119.960667,27.6593333 119.886,27.818 C119.811333,27.9766667 119.708667,28.1213333 119.578,28.252 C119.447333,28.3826667 119.295667,28.4993333 119.123,28.602 C118.950333,28.7046667 118.766,28.798 118.57,28.882 Z M118.304,33.796 C118.117333,33.796 117.926,33.761 117.73,33.691 C117.534,33.621 117.356667,33.5206667 117.198,33.39 C117.039333,33.2593333 116.911,33.096 116.813,32.9 C116.715,32.704 116.666,32.4846667 116.666,32.242 C116.666,32.0086667 116.703333,31.801 116.778,31.619 C116.852667,31.437 116.953,31.2806667 117.079,31.15 C117.205,31.0193333 117.349667,30.9073333 117.513,30.814 C117.676333,30.7206667 117.851333,30.6413333 118.038,30.576 L118.038,30.576 L120.152,32.774 C119.909333,33.1006667 119.643333,33.3526667 119.354,33.53 C119.064667,33.7073333 118.714667,33.796 118.304,33.796 Z M130.988,35 L130.988,30.898 L132.346,30.898 C132.868667,30.898 133.363333,30.8466667 133.83,30.744 C134.296667,30.6413333 134.705,30.4756667 135.055,30.247 C135.405,30.0183333 135.682667,29.7173333 135.888,29.344 C136.093333,28.9706667 136.196,28.5086667 136.196,27.958 C136.196,27.4446667 136.107333,27.006 135.93,26.642 C135.752667,26.278 135.500667,25.9793333 135.174,25.746 C134.847333,25.5126667 134.455333,25.3446667 133.998,25.242 C133.540667,25.1393333 133.027333,25.088 132.458,25.088 L132.458,25.088 L129.224,25.088 L129.224,35 L130.988,35 Z M132.22,29.414 L130.988,29.414 L130.988,26.572 L132.276,26.572 C132.546667,26.572 132.810333,26.5883333 133.067,26.621 C133.323667,26.6536667 133.552333,26.7213333 133.753,26.824 C133.953667,26.9266667 134.114667,27.069 134.236,27.251 C134.357333,27.433 134.418,27.6686667 134.418,27.958 C134.418,28.2566667 134.357333,28.4993333 134.236,28.686 C134.114667,28.8726667 133.951333,29.0196667 133.746,29.127 C133.540667,29.2343333 133.307333,29.309 133.046,29.351 C132.784667,29.393 132.509333,29.414 132.22,29.414 L132.22,29.414 Z M138.534,35 L139.43,32.732 L143.728,32.732 L144.652,35 L146.668,35 L142.398,25.088 L140.872,25.088 L136.56,35 L138.534,35 Z M143.112,31.22 L140.032,31.22 L141.586,27.188 L143.112,31.22 Z M151.806,35 L151.806,30.702 L155.53,25.088 L153.486,25.088 L150.966,29.26 L148.474,25.088 L146.318,25.088 L150.042,30.702 L150.042,35 L151.806,35 Z M163.174,35 L163.174,33.432 L158.12,33.432 L158.12,30.632 L162.67,30.632 L162.67,29.148 L158.12,29.148 L158.12,26.628 L162.922,26.628 L162.922,25.088 L156.356,25.088 L156.356,35 L163.174,35 Z" id="Payroll&amp;PAYE" fill="#333091" fill-rule="nonzero"></path>
                        </g>
                    </g>
                </g>
            </g>
        </g>
    </g>
</svg>