<?xml version="1.0" encoding="UTF-8"?>
<svg width="152px" height="198px" viewBox="0 0 152 198" version="1.1" xmlns="http://www.w3.org/2000/svg" xmlns:xlink="http://www.w3.org/1999/xlink">
    <title>Group 22</title>
    <defs>
        <rect id="path-1" x="0" y="0" width="72.3801653" height="82.3636364"></rect>
    </defs>
    <g id="V2-DESIGNS" stroke="none" stroke-width="1" fill="none" fill-rule="evenodd">
        <g id="BOM-homepage-slide-3" transform="translate(-1009.000000, -2102.000000)">
            <g id="Group-31" transform="translate(974.000000, 1905.000000)">
                <g id="Group-22" transform="translate(35.500000, 197.000000)">
                    <rect id="Rectangle" fill="#FFFFFF" x="0" y="-1.84741111e-13" width="151" height="197.173554" rx="14"></rect>
                    <circle id="Oval" stroke="#333091" stroke-width="10" fill="#FFFFFF" cx="76.8760331" cy="72.3801653" r="49.9090909"></circle>
                    <g id="Oval-Copy-33" transform="translate(6.991736, 2.495868)">
                        <mask id="mask-2" fill="white">
                            <use xlink:href="#path-1"></use>
                        </mask>
                        <g id="Mask"></g>
                        <circle stroke="#BDBBF3" stroke-width="10" mask="url(#mask-2)" cx="69.8842975" cy="69.8842975" r="49.9090909"></circle>
                    </g>
                    <path d="M62.0942562,84.2355372 L70.2382727,64.702876 L70.2382727,60.5821983 L54.566719,60.5821983 L54.566719,65.3193554 L64.6575124,65.3193554 L56.416157,84.2355372 L62.0942562,84.2355372 Z M80.0944545,84.2355372 C82.690157,84.2355372 84.7018264,83.4946804 86.1294628,82.0129669 C87.5570992,80.5312534 88.2709174,78.5249917 88.2709174,75.9941818 C88.2709174,74.631438 88.0221625,73.3660331 87.5246529,72.1979669 C87.0271433,71.0299008 86.2430248,70.0781433 85.1722975,69.3426942 C84.1015702,68.6072452 82.7550496,68.2395207 81.1327355,68.2395207 C80.2242397,68.2395207 79.3806364,68.3909366 78.6019256,68.6937686 C77.8232149,68.9966006 77.217551,69.3859559 76.7849339,69.8618347 L76.7849339,69.8618347 L76.7849339,65.3842479 L86.9081736,65.3842479 L86.9081736,60.5173058 L71.7557603,60.5173058 L71.7557603,74.631438 L77.1093967,74.631438 C77.2608127,74.047405 77.5744601,73.5769339 78.0503388,73.2200248 C78.5262176,72.8631157 79.1318815,72.6846612 79.8673306,72.6846612 C80.8623499,72.6846612 81.6194298,72.9658623 82.1385702,73.5282645 C82.6577107,74.0906667 82.917281,74.9018237 82.917281,75.9617355 C82.917281,77.0432782 82.6685262,77.9085124 82.1710165,78.557438 C81.6735069,79.2063636 80.916427,79.5308264 79.8997769,79.5308264 C79.0345427,79.5308264 78.3531708,79.3091102 77.8556612,78.8656777 C77.3581515,78.4222452 77.0445041,77.8652507 76.914719,77.1946942 L76.914719,77.1946942 L71.4961901,77.1946942 C71.5610826,78.5790689 71.9396226,79.8012121 72.6318099,80.861124 C73.3239972,81.9210358 74.3082011,82.748416 75.5844215,83.3432645 C76.8606419,83.9381129 78.3639862,84.2355372 80.0944545,84.2355372 Z" id="75" fill="#333091" fill-rule="nonzero"></path>
                    <path d="M95.0601577,66.7345124 C95.7989345,66.7345124 96.3979428,66.514876 96.8571825,66.0756033 C97.3164221,65.6363306 97.546042,65.0123636 97.546042,64.2037025 C97.546042,63.3950413 97.3164221,62.7710744 96.8571825,62.3318017 C96.3979428,61.8925289 95.7989345,61.6728926 95.0601577,61.6728926 C94.3213808,61.6728926 93.7198767,61.8925289 93.2556453,62.3318017 C92.7914139,62.7710744 92.5592982,63.3950413 92.5592982,64.2037025 C92.5592982,65.0123636 92.7914139,65.6363306 93.2556453,66.0756033 C93.7198767,66.514876 94.3213808,66.7345124 95.0601577,66.7345124 Z M96.9620089,72.3801653 L102.727463,61.8376198 L100.256554,61.8376198 L94.4910998,72.3801653 L96.9620089,72.3801653 Z M95.0451825,65.2220165 C94.5659758,65.2220165 94.3263725,64.8825785 94.3263725,64.2037025 C94.3263725,63.514843 94.5659758,63.1704132 95.0451825,63.1704132 C95.5343725,63.1704132 95.7789676,63.514843 95.7789676,64.2037025 C95.7789676,64.5431405 95.714075,64.797719 95.5842899,64.967438 C95.4545048,65.137157 95.2748023,65.2220165 95.0451825,65.2220165 Z M102.173381,72.5448926 C102.912158,72.5448926 103.511166,72.3252562 103.970406,71.8859835 C104.429645,71.4467107 104.659265,70.8227438 104.659265,70.0140826 C104.659265,69.2054215 104.429645,68.5814545 103.970406,68.1421818 C103.511166,67.7029091 102.912158,67.4832727 102.173381,67.4832727 C101.434604,67.4832727 100.835596,67.7029091 100.376356,68.1421818 C99.9171163,68.5814545 99.6874965,69.2054215 99.6874965,70.0140826 C99.6874965,70.8227438 99.9171163,71.4467107 100.376356,71.8859835 C100.835596,72.3252562 101.434604,72.5448926 102.173381,72.5448926 Z M102.158406,71.0323967 C101.679199,71.0323967 101.439596,70.6929587 101.439596,70.0140826 C101.439596,69.6646612 101.501992,69.4050909 101.626786,69.2353719 C101.751579,69.0656529 101.928786,68.9807934 102.158406,68.9807934 C102.388025,68.9807934 102.567728,69.0681488 102.697513,69.2428595 C102.827298,69.4175702 102.892191,69.6746446 102.892191,70.0140826 C102.892191,70.3535207 102.827298,70.6080992 102.697513,70.7778182 C102.567728,70.9475372 102.388025,71.0323967 102.158406,71.0323967 Z" id="%" fill="#333091" fill-rule="nonzero"></path>
                    <rect id="Rectangle" fill="#F2F2F2" x="20.7190083" y="142.264463" width="89.8512397" height="11.231405" rx="2"></rect>
                    <rect id="Rectangle-Copy-16" fill="#F2F2F2" x="20.7190083" y="164.103306" width="114.809917" height="11.231405" rx="2"></rect>
                </g>
            </g>
        </g>
    </g>
</svg>