<?xml version="1.0" encoding="UTF-8"?>
<svg width="352px" height="86px" viewBox="0 0 352 86" version="1.1" xmlns="http://www.w3.org/2000/svg" xmlns:xlink="http://www.w3.org/1999/xlink">
    <title>performance-bookkeeping</title>
    <defs>
        <rect id="path-1" x="0" y="0" width="324" height="58" rx="11"></rect>
        <filter x="-4.8%" y="-30.2%" width="116.4%" height="191.4%" filterUnits="objectBoundingBox" id="filter-2">
            <feOffset dx="11" dy="9" in="SourceAlpha" result="shadowOffsetOuter1"></feOffset>
            <feGaussianBlur stdDeviation="7" in="shadowOffsetOuter1" result="shadowBlurOuter1"></feGaussianBlur>
            <feColorMatrix values="0 0 0 0 0   0 0 0 0 0   0 0 0 0 0  0 0 0 0.138904065 0" type="matrix" in="shadowBlurOuter1"></feColorMatrix>
        </filter>
    </defs>
    <g id="V2-DESIGNS" stroke="none" stroke-width="1" fill="none" fill-rule="evenodd">
        <g id="BOM-homepage--slide-1" transform="translate(-1405.000000, -501.000000)">
            <g id="performance-bookkeeping" transform="translate(1408.000000, 506.000000)">
                <g id="bookkeeping-and-performance">
                    <g id="Rectangle">
                        <use fill="black" fill-opacity="1" filter="url(#filter-2)" xlink:href="#path-1"></use>
                        <use fill="#FFFFFF" fill-rule="evenodd" xlink:href="#path-1"></use>
                    </g>
                    <circle id="Oval" fill="#EE4050" cx="33" cy="30" r="17"></circle>
                    <g id="icon_check@1x-copy-2" transform="translate(24.000000, 21.500000)" fill="#FFFFFF" fill-rule="nonzero">
                        <path d="M6.49547826,15.9563478 C6.52504348,15.98 6.54278261,16.0125217 6.57382609,16.0346957 C6.61817391,16.0642609 6.66843478,16.0701739 6.71573913,16.0908696 C6.77191304,16.1174783 6.8266087,16.1426087 6.88573913,16.1588696 C6.9433913,16.1736522 6.99956522,16.1810435 7.05869565,16.1854783 C7.14295652,16.1943478 7.22426087,16.1943478 7.30704348,16.1825217 C7.34104348,16.1766087 7.37356522,16.1677391 7.40756522,16.1588696 C7.50956522,16.1337391 7.60417391,16.0938261 7.69730435,16.0376522 C7.71356522,16.0273043 7.72686957,16.0154783 7.74313043,16.0051304 C7.80373913,15.9637391 7.86878261,15.9326957 7.92052174,15.8765217 C7.95747826,15.8366087 7.97373913,15.7848696 8.00330435,15.7405217 C8.00478261,15.7390435 8.00773913,15.7375652 8.00773913,15.736087 L16.8166957,1.61721739 C17.130087,1.13973913 16.9955652,0.498173913 16.5166087,0.184782609 C16.0376522,-0.128608696 15.3975652,0.00591304348 15.0841739,0.484869565 L6.94782609,13.5246087 L2.448,9.14747826 C2.02817391,8.75869565 1.37478261,8.78382609 0.986,9.20365217 C0.598695652,9.62347826 0.623826087,10.2783478 1.04365217,10.6656522 L6.45704348,15.9326957 C6.4673913,15.9430435 6.48217391,15.946 6.49547826,15.9563478 Z" id="Path"></path>
                    </g>
                </g>
                <path d="M76.608,34.5 L76.608,29.226 L78.354,29.226 C79.026,29.226 79.662,29.16 80.262,29.028 C80.862,28.896 81.387,28.683 81.837,28.389 C82.287,28.095 82.644,27.708 82.908,27.228 C83.172,26.748 83.304,26.154 83.304,25.446 C83.304,24.786 83.19,24.222 82.962,23.754 C82.734,23.286 82.41,22.902 81.99,22.602 C81.57,22.302 81.066,22.086 80.478,21.954 C79.89,21.822 79.23,21.756 78.498,21.756 L78.498,21.756 L74.34,21.756 L74.34,34.5 L76.608,34.5 Z M78.192,27.318 L76.608,27.318 L76.608,23.664 L78.264,23.664 C78.612,23.664 78.951,23.685 79.281,23.727 C79.611,23.769 79.905,23.856 80.163,23.988 C80.421,24.12 80.628,24.303 80.784,24.537 C80.94,24.771 81.018,25.074 81.018,25.446 C81.018,25.83 80.94,26.142 80.784,26.382 C80.628,26.622 80.418,26.811 80.154,26.949 C79.89,27.087 79.59,27.183 79.254,27.237 C78.918,27.291 78.564,27.318 78.192,27.318 L78.192,27.318 Z M89.352,34.752 C90.972,34.752 92.208,34.176 93.06,33.024 L93.06,33.024 L91.62,31.872 C91.38,32.22 91.074,32.493 90.702,32.691 C90.33,32.889 89.874,32.988 89.334,32.988 C89.022,32.988 88.722,32.934 88.434,32.826 C88.146,32.718 87.888,32.571 87.66,32.385 C87.432,32.199 87.249,31.977 87.111,31.719 C86.973,31.461 86.892,31.176 86.868,30.864 L86.868,30.864 L93.438,30.864 C93.45,30.768 93.456,30.672 93.456,30.576 L93.456,30.576 L93.456,30.288 C93.456,29.508 93.351,28.827 93.141,28.245 C92.931,27.663 92.64,27.177 92.268,26.787 C91.896,26.397 91.455,26.103 90.945,25.905 C90.435,25.707 89.88,25.608 89.28,25.608 C88.632,25.608 88.029,25.719 87.471,25.941 C86.913,26.163 86.43,26.475 86.022,26.877 C85.614,27.279 85.293,27.765 85.059,28.335 C84.825,28.905 84.708,29.538 84.708,30.234 C84.708,30.942 84.825,31.575 85.059,32.133 C85.293,32.691 85.617,33.162 86.031,33.546 C86.445,33.93 86.934,34.227 87.498,34.437 C88.062,34.647 88.68,34.752 89.352,34.752 Z M91.296,29.316 L86.868,29.316 C86.916,28.704 87.165,28.203 87.615,27.813 C88.065,27.423 88.614,27.228 89.262,27.228 C89.61,27.228 89.913,27.285 90.171,27.399 C90.429,27.513 90.642,27.666 90.81,27.858 C90.978,28.05 91.101,28.272 91.179,28.524 C91.257,28.776 91.296,29.04 91.296,29.316 L91.296,29.316 Z M97.704,34.5 L97.704,29.874 C97.704,29.718 97.734,29.508 97.794,29.244 C97.854,28.98 97.968,28.722 98.136,28.47 C98.304,28.218 98.538,28.002 98.838,27.822 C99.138,27.642 99.534,27.552 100.026,27.552 C100.122,27.552 100.221,27.558 100.323,27.57 C100.425,27.582 100.548,27.606 100.692,27.642 L100.692,27.642 L100.692,25.662 C100.62,25.638 100.536,25.623 100.44,25.617 C100.344,25.611 100.254,25.608 100.17,25.608 C99.594,25.608 99.09,25.764 98.658,26.076 C98.226,26.388 97.89,26.796 97.65,27.3 L97.65,27.3 L97.614,27.3 L97.614,25.86 L95.544,25.86 L95.544,34.5 L97.704,34.5 Z M104.598,34.5 L104.598,27.588 L106.596,27.588 L106.596,25.86 L104.598,25.86 L104.598,24.456 C104.598,24.24 104.616,24.018 104.652,23.79 C104.688,23.562 104.757,23.352 104.859,23.16 C104.961,22.968 105.108,22.812 105.3,22.692 C105.492,22.572 105.744,22.512 106.056,22.512 C106.212,22.512 106.359,22.524 106.497,22.548 C106.635,22.572 106.764,22.602 106.884,22.638 L106.884,22.638 L107.028,20.802 C106.86,20.754 106.695,20.721 106.533,20.703 C106.371,20.685 106.17,20.676 105.93,20.676 C105.258,20.676 104.7,20.781 104.256,20.991 C103.812,21.201 103.455,21.486 103.185,21.846 C102.915,22.206 102.723,22.623 102.609,23.097 C102.495,23.571 102.438,24.066 102.438,24.582 L102.438,24.582 L102.438,25.86 L100.8,25.86 L100.8,27.588 L102.438,27.588 L102.438,34.5 L104.598,34.5 Z M112.122,34.752 C112.77,34.752 113.382,34.638 113.958,34.41 C114.534,34.182 115.032,33.867 115.452,33.465 C115.872,33.063 116.205,32.58 116.451,32.016 C116.697,31.452 116.82,30.828 116.82,30.144 C116.82,29.46 116.697,28.839 116.451,28.281 C116.205,27.723 115.872,27.246 115.452,26.85 C115.032,26.454 114.534,26.148 113.958,25.932 C113.382,25.716 112.77,25.608 112.122,25.608 C111.474,25.608 110.862,25.716 110.286,25.932 C109.71,26.148 109.212,26.454 108.792,26.85 C108.372,27.246 108.039,27.723 107.793,28.281 C107.547,28.839 107.424,29.46 107.424,30.144 C107.424,30.828 107.547,31.452 107.793,32.016 C108.039,32.58 108.372,33.063 108.792,33.465 C109.212,33.867 109.71,34.182 110.286,34.41 C110.862,34.638 111.474,34.752 112.122,34.752 Z M112.122,32.952 C111.69,32.952 111.318,32.868 111.006,32.7 C110.694,32.532 110.436,32.316 110.232,32.052 C110.028,31.788 109.875,31.488 109.773,31.152 C109.671,30.816 109.62,30.48 109.62,30.144 C109.62,29.808 109.671,29.475 109.773,29.145 C109.875,28.815 110.028,28.518 110.232,28.254 C110.436,27.99 110.694,27.777 111.006,27.615 C111.318,27.453 111.69,27.372 112.122,27.372 C112.554,27.372 112.926,27.453 113.238,27.615 C113.55,27.777 113.808,27.99 114.012,28.254 C114.216,28.518 114.369,28.815 114.471,29.145 C114.573,29.475 114.624,29.808 114.624,30.144 C114.624,30.48 114.573,30.816 114.471,31.152 C114.369,31.488 114.216,31.788 114.012,32.052 C113.808,32.316 113.55,32.532 113.238,32.7 C112.926,32.868 112.554,32.952 112.122,32.952 Z M121.068,34.5 L121.068,29.874 C121.068,29.718 121.098,29.508 121.158,29.244 C121.218,28.98 121.332,28.722 121.5,28.47 C121.668,28.218 121.902,28.002 122.202,27.822 C122.502,27.642 122.898,27.552 123.39,27.552 C123.486,27.552 123.585,27.558 123.687,27.57 C123.789,27.582 123.912,27.606 124.056,27.642 L124.056,27.642 L124.056,25.662 C123.984,25.638 123.9,25.623 123.804,25.617 C123.708,25.611 123.618,25.608 123.534,25.608 C122.958,25.608 122.454,25.764 122.022,26.076 C121.59,26.388 121.254,26.796 121.014,27.3 L121.014,27.3 L120.978,27.3 L120.978,25.86 L118.908,25.86 L118.908,34.5 L121.068,34.5 Z M127.62,34.5 L127.62,29.748 C127.62,29.46 127.659,29.175 127.737,28.893 C127.815,28.611 127.929,28.362 128.079,28.146 C128.229,27.93 128.424,27.753 128.664,27.615 C128.904,27.477 129.186,27.408 129.51,27.408 C130.062,27.408 130.467,27.585 130.725,27.939 C130.983,28.293 131.112,28.74 131.112,29.28 L131.112,29.28 L131.112,34.5 L133.272,34.5 L133.272,29.784 C133.272,29.508 133.308,29.229 133.38,28.947 C133.452,28.665 133.566,28.41 133.722,28.182 C133.878,27.954 134.076,27.768 134.316,27.624 C134.556,27.48 134.844,27.408 135.18,27.408 C135.528,27.408 135.807,27.48 136.017,27.624 C136.227,27.768 136.392,27.951 136.512,28.173 C136.632,28.395 136.71,28.644 136.746,28.92 C136.782,29.196 136.8,29.46 136.8,29.712 L136.8,29.712 L136.8,34.5 L138.96,34.5 L138.96,29.1 C138.96,28.656 138.9,28.224 138.78,27.804 C138.66,27.384 138.471,27.012 138.213,26.688 C137.955,26.364 137.625,26.103 137.223,25.905 C136.821,25.707 136.338,25.608 135.774,25.608 C135.126,25.608 134.562,25.749 134.082,26.031 C133.602,26.313 133.218,26.718 132.93,27.246 C132.69,26.754 132.348,26.358 131.904,26.058 C131.46,25.758 130.902,25.608 130.23,25.608 C129.882,25.608 129.564,25.653 129.276,25.743 C128.988,25.833 128.733,25.956 128.511,26.112 C128.289,26.268 128.097,26.442 127.935,26.634 C127.773,26.826 127.644,27.03 127.548,27.246 L127.548,27.246 L127.512,27.246 L127.512,25.86 L125.46,25.86 L125.46,34.5 L127.62,34.5 Z M144.108,34.716 C144.72,34.716 145.266,34.593 145.746,34.347 C146.226,34.101 146.574,33.786 146.79,33.402 L146.79,33.402 L146.844,33.402 L146.844,34.5 L148.86,34.5 L148.86,29.244 C148.86,28.812 148.803,28.38 148.689,27.948 C148.575,27.516 148.374,27.126 148.086,26.778 C147.798,26.43 147.405,26.148 146.907,25.932 C146.409,25.716 145.776,25.608 145.008,25.608 C144.348,25.608 143.697,25.722 143.055,25.95 C142.413,26.178 141.846,26.52 141.354,26.976 L141.354,26.976 L142.47,28.29 C142.746,28.014 143.094,27.78 143.514,27.588 C143.934,27.396 144.372,27.3 144.828,27.3 C145.368,27.3 145.833,27.429 146.223,27.687 C146.613,27.945 146.808,28.344 146.808,28.884 L146.808,28.884 L146.808,29.1 C146.136,29.1 145.449,29.133 144.747,29.199 C144.045,29.265 143.406,29.4 142.83,29.604 C142.254,29.808 141.783,30.102 141.417,30.486 C141.051,30.87 140.868,31.386 140.868,32.034 C140.868,32.538 140.973,32.961 141.183,33.303 C141.393,33.645 141.657,33.921 141.975,34.131 C142.293,34.341 142.641,34.491 143.019,34.581 C143.397,34.671 143.76,34.716 144.108,34.716 Z M144.54,33.078 C144.36,33.078 144.18,33.06 144,33.024 C143.82,32.988 143.658,32.928 143.514,32.844 C143.37,32.76 143.253,32.649 143.163,32.511 C143.073,32.373 143.028,32.202 143.028,31.998 C143.028,31.674 143.136,31.419 143.352,31.233 C143.568,31.047 143.838,30.903 144.162,30.801 C144.486,30.699 144.84,30.633 145.224,30.603 C145.608,30.573 145.974,30.558 146.322,30.558 L146.322,30.558 L146.808,30.558 L146.808,30.864 C146.808,31.548 146.616,32.088 146.232,32.484 C145.848,32.88 145.284,33.078 144.54,33.078 Z M153.54,34.5 L153.54,29.748 C153.54,29.46 153.582,29.175 153.666,28.893 C153.75,28.611 153.873,28.362 154.035,28.146 C154.197,27.93 154.404,27.753 154.656,27.615 C154.908,27.477 155.208,27.408 155.556,27.408 C155.904,27.408 156.183,27.48 156.393,27.624 C156.603,27.768 156.768,27.951 156.888,28.173 C157.008,28.395 157.086,28.644 157.122,28.92 C157.158,29.196 157.176,29.46 157.176,29.712 L157.176,29.712 L157.176,34.5 L159.336,34.5 L159.336,29.1 C159.336,28.656 159.276,28.224 159.156,27.804 C159.036,27.384 158.847,27.012 158.589,26.688 C158.331,26.364 158.001,26.103 157.599,25.905 C157.197,25.707 156.714,25.608 156.15,25.608 C155.502,25.608 154.941,25.773 154.467,26.103 C153.993,26.433 153.66,26.814 153.468,27.246 L153.468,27.246 L153.432,27.246 L153.432,25.86 L151.38,25.86 L151.38,34.5 L153.54,34.5 Z M166.032,34.752 C166.68,34.752 167.283,34.647 167.841,34.437 C168.399,34.227 168.858,33.93 169.218,33.546 L169.218,33.546 L167.868,32.178 C167.664,32.43 167.394,32.622 167.058,32.754 C166.722,32.886 166.386,32.952 166.05,32.952 C165.642,32.952 165.285,32.871 164.979,32.709 C164.673,32.547 164.418,32.334 164.214,32.07 C164.01,31.806 163.857,31.509 163.755,31.179 C163.653,30.849 163.602,30.516 163.602,30.18 C163.602,29.844 163.65,29.511 163.746,29.181 C163.842,28.851 163.989,28.554 164.187,28.29 C164.385,28.026 164.634,27.813 164.934,27.651 C165.234,27.489 165.582,27.408 165.978,27.408 C166.326,27.408 166.668,27.489 167.004,27.651 C167.34,27.813 167.592,28.014 167.76,28.254 L167.76,28.254 L169.236,26.958 C168.888,26.538 168.417,26.208 167.823,25.968 C167.229,25.728 166.614,25.608 165.978,25.608 C165.342,25.608 164.745,25.716 164.187,25.932 C163.629,26.148 163.14,26.454 162.72,26.85 C162.3,27.246 161.967,27.726 161.721,28.29 C161.475,28.854 161.352,29.484 161.352,30.18 C161.352,30.9 161.475,31.542 161.721,32.106 C161.967,32.67 162.303,33.15 162.729,33.546 C163.155,33.942 163.653,34.242 164.223,34.446 C164.793,34.65 165.396,34.752 166.032,34.752 Z M174.78,34.752 C176.4,34.752 177.636,34.176 178.488,33.024 L178.488,33.024 L177.048,31.872 C176.808,32.22 176.502,32.493 176.13,32.691 C175.758,32.889 175.302,32.988 174.762,32.988 C174.45,32.988 174.15,32.934 173.862,32.826 C173.574,32.718 173.316,32.571 173.088,32.385 C172.86,32.199 172.677,31.977 172.539,31.719 C172.401,31.461 172.32,31.176 172.296,30.864 L172.296,30.864 L178.866,30.864 C178.878,30.768 178.884,30.672 178.884,30.576 L178.884,30.576 L178.884,30.288 C178.884,29.508 178.779,28.827 178.569,28.245 C178.359,27.663 178.068,27.177 177.696,26.787 C177.324,26.397 176.883,26.103 176.373,25.905 C175.863,25.707 175.308,25.608 174.708,25.608 C174.06,25.608 173.457,25.719 172.899,25.941 C172.341,26.163 171.858,26.475 171.45,26.877 C171.042,27.279 170.721,27.765 170.487,28.335 C170.253,28.905 170.136,29.538 170.136,30.234 C170.136,30.942 170.253,31.575 170.487,32.133 C170.721,32.691 171.045,33.162 171.459,33.546 C171.873,33.93 172.362,34.227 172.926,34.437 C173.49,34.647 174.108,34.752 174.78,34.752 Z M176.724,29.316 L172.296,29.316 C172.344,28.704 172.593,28.203 173.043,27.813 C173.493,27.423 174.042,27.228 174.69,27.228 C175.038,27.228 175.341,27.285 175.599,27.399 C175.857,27.513 176.07,27.666 176.238,27.858 C176.406,28.05 176.529,28.272 176.607,28.524 C176.685,28.776 176.724,29.04 176.724,29.316 L176.724,29.316 Z M190.17,34.5 C190.77,34.5 191.361,34.437 191.943,34.311 C192.525,34.185 193.041,33.978 193.491,33.69 C193.941,33.402 194.304,33.021 194.58,32.547 C194.856,32.073 194.994,31.488 194.994,30.792 C194.994,29.928 194.736,29.238 194.22,28.722 C193.704,28.206 193.044,27.894 192.24,27.786 L192.24,27.786 L192.24,27.75 C192.9,27.546 193.434,27.21 193.842,26.742 C194.25,26.274 194.454,25.68 194.454,24.96 C194.454,24.384 194.34,23.892 194.112,23.484 C193.884,23.076 193.587,22.743 193.221,22.485 C192.855,22.227 192.438,22.041 191.97,21.927 C191.502,21.813 191.028,21.756 190.548,21.756 L190.548,21.756 L185.58,21.756 L185.58,34.5 L190.17,34.5 Z M189.864,26.94 L187.848,26.94 L187.848,23.628 L189.666,23.628 C190.53,23.628 191.166,23.748 191.574,23.988 C191.982,24.228 192.186,24.636 192.186,25.212 C192.186,25.764 191.988,26.19 191.592,26.49 C191.196,26.79 190.62,26.94 189.864,26.94 L189.864,26.94 Z M189.882,32.592 L187.848,32.592 L187.848,28.884 L189.972,28.884 C190.896,28.884 191.586,29.016 192.042,29.28 C192.498,29.544 192.726,30.012 192.726,30.684 C192.726,31.104 192.633,31.44 192.447,31.692 C192.261,31.944 192.027,32.136 191.745,32.268 C191.463,32.4 191.154,32.487 190.818,32.529 C190.482,32.571 190.17,32.592 189.882,32.592 L189.882,32.592 Z M201.312,34.752 C201.96,34.752 202.572,34.638 203.148,34.41 C203.724,34.182 204.222,33.867 204.642,33.465 C205.062,33.063 205.395,32.58 205.641,32.016 C205.887,31.452 206.01,30.828 206.01,30.144 C206.01,29.46 205.887,28.839 205.641,28.281 C205.395,27.723 205.062,27.246 204.642,26.85 C204.222,26.454 203.724,26.148 203.148,25.932 C202.572,25.716 201.96,25.608 201.312,25.608 C200.664,25.608 200.052,25.716 199.476,25.932 C198.9,26.148 198.402,26.454 197.982,26.85 C197.562,27.246 197.229,27.723 196.983,28.281 C196.737,28.839 196.614,29.46 196.614,30.144 C196.614,30.828 196.737,31.452 196.983,32.016 C197.229,32.58 197.562,33.063 197.982,33.465 C198.402,33.867 198.9,34.182 199.476,34.41 C200.052,34.638 200.664,34.752 201.312,34.752 Z M201.312,32.952 C200.88,32.952 200.508,32.868 200.196,32.7 C199.884,32.532 199.626,32.316 199.422,32.052 C199.218,31.788 199.065,31.488 198.963,31.152 C198.861,30.816 198.81,30.48 198.81,30.144 C198.81,29.808 198.861,29.475 198.963,29.145 C199.065,28.815 199.218,28.518 199.422,28.254 C199.626,27.99 199.884,27.777 200.196,27.615 C200.508,27.453 200.88,27.372 201.312,27.372 C201.744,27.372 202.116,27.453 202.428,27.615 C202.74,27.777 202.998,27.99 203.202,28.254 C203.406,28.518 203.559,28.815 203.661,29.145 C203.763,29.475 203.814,29.808 203.814,30.144 C203.814,30.48 203.763,30.816 203.661,31.152 C203.559,31.488 203.406,31.788 203.202,32.052 C202.998,32.316 202.74,32.532 202.428,32.7 C202.116,32.868 201.744,32.952 201.312,32.952 Z M212.292,34.752 C212.94,34.752 213.552,34.638 214.128,34.41 C214.704,34.182 215.202,33.867 215.622,33.465 C216.042,33.063 216.375,32.58 216.621,32.016 C216.867,31.452 216.99,30.828 216.99,30.144 C216.99,29.46 216.867,28.839 216.621,28.281 C216.375,27.723 216.042,27.246 215.622,26.85 C215.202,26.454 214.704,26.148 214.128,25.932 C213.552,25.716 212.94,25.608 212.292,25.608 C211.644,25.608 211.032,25.716 210.456,25.932 C209.88,26.148 209.382,26.454 208.962,26.85 C208.542,27.246 208.209,27.723 207.963,28.281 C207.717,28.839 207.594,29.46 207.594,30.144 C207.594,30.828 207.717,31.452 207.963,32.016 C208.209,32.58 208.542,33.063 208.962,33.465 C209.382,33.867 209.88,34.182 210.456,34.41 C211.032,34.638 211.644,34.752 212.292,34.752 Z M212.292,32.952 C211.86,32.952 211.488,32.868 211.176,32.7 C210.864,32.532 210.606,32.316 210.402,32.052 C210.198,31.788 210.045,31.488 209.943,31.152 C209.841,30.816 209.79,30.48 209.79,30.144 C209.79,29.808 209.841,29.475 209.943,29.145 C210.045,28.815 210.198,28.518 210.402,28.254 C210.606,27.99 210.864,27.777 211.176,27.615 C211.488,27.453 211.86,27.372 212.292,27.372 C212.724,27.372 213.096,27.453 213.408,27.615 C213.72,27.777 213.978,27.99 214.182,28.254 C214.386,28.518 214.539,28.815 214.641,29.145 C214.743,29.475 214.794,29.808 214.794,30.144 C214.794,30.48 214.743,30.816 214.641,31.152 C214.539,31.488 214.386,31.788 214.182,32.052 C213.978,32.316 213.72,32.532 213.408,32.7 C213.096,32.868 212.724,32.952 212.292,32.952 Z M221.274,34.5 L221.274,30.072 L221.328,30.072 L224.748,34.5 L227.61,34.5 L223.632,29.766 L227.376,25.86 L224.604,25.86 L221.328,29.496 L221.274,29.496 L221.274,20.892 L219.114,20.892 L219.114,34.5 L221.274,34.5 Z M231.048,34.5 L231.048,30.072 L231.102,30.072 L234.522,34.5 L237.384,34.5 L233.406,29.766 L237.15,25.86 L234.378,25.86 L231.102,29.496 L231.048,29.496 L231.048,20.892 L228.888,20.892 L228.888,34.5 L231.048,34.5 Z M242.766,34.752 C244.386,34.752 245.622,34.176 246.474,33.024 L246.474,33.024 L245.034,31.872 C244.794,32.22 244.488,32.493 244.116,32.691 C243.744,32.889 243.288,32.988 242.748,32.988 C242.436,32.988 242.136,32.934 241.848,32.826 C241.56,32.718 241.302,32.571 241.074,32.385 C240.846,32.199 240.663,31.977 240.525,31.719 C240.387,31.461 240.306,31.176 240.282,30.864 L240.282,30.864 L246.852,30.864 C246.864,30.768 246.87,30.672 246.87,30.576 L246.87,30.576 L246.87,30.288 C246.87,29.508 246.765,28.827 246.555,28.245 C246.345,27.663 246.054,27.177 245.682,26.787 C245.31,26.397 244.869,26.103 244.359,25.905 C243.849,25.707 243.294,25.608 242.694,25.608 C242.046,25.608 241.443,25.719 240.885,25.941 C240.327,26.163 239.844,26.475 239.436,26.877 C239.028,27.279 238.707,27.765 238.473,28.335 C238.239,28.905 238.122,29.538 238.122,30.234 C238.122,30.942 238.239,31.575 238.473,32.133 C238.707,32.691 239.031,33.162 239.445,33.546 C239.859,33.93 240.348,34.227 240.912,34.437 C241.476,34.647 242.094,34.752 242.766,34.752 Z M244.71,29.316 L240.282,29.316 C240.33,28.704 240.579,28.203 241.029,27.813 C241.479,27.423 242.028,27.228 242.676,27.228 C243.024,27.228 243.327,27.285 243.585,27.399 C243.843,27.513 244.056,27.666 244.224,27.858 C244.392,28.05 244.515,28.272 244.593,28.524 C244.671,28.776 244.71,29.04 244.71,29.316 L244.71,29.316 Z M253.098,34.752 C254.718,34.752 255.954,34.176 256.806,33.024 L256.806,33.024 L255.366,31.872 C255.126,32.22 254.82,32.493 254.448,32.691 C254.076,32.889 253.62,32.988 253.08,32.988 C252.768,32.988 252.468,32.934 252.18,32.826 C251.892,32.718 251.634,32.571 251.406,32.385 C251.178,32.199 250.995,31.977 250.857,31.719 C250.719,31.461 250.638,31.176 250.614,30.864 L250.614,30.864 L257.184,30.864 C257.196,30.768 257.202,30.672 257.202,30.576 L257.202,30.576 L257.202,30.288 C257.202,29.508 257.097,28.827 256.887,28.245 C256.677,27.663 256.386,27.177 256.014,26.787 C255.642,26.397 255.201,26.103 254.691,25.905 C254.181,25.707 253.626,25.608 253.026,25.608 C252.378,25.608 251.775,25.719 251.217,25.941 C250.659,26.163 250.176,26.475 249.768,26.877 C249.36,27.279 249.039,27.765 248.805,28.335 C248.571,28.905 248.454,29.538 248.454,30.234 C248.454,30.942 248.571,31.575 248.805,32.133 C249.039,32.691 249.363,33.162 249.777,33.546 C250.191,33.93 250.68,34.227 251.244,34.437 C251.808,34.647 252.426,34.752 253.098,34.752 Z M255.042,29.316 L250.614,29.316 C250.662,28.704 250.911,28.203 251.361,27.813 C251.811,27.423 252.36,27.228 253.008,27.228 C253.356,27.228 253.659,27.285 253.917,27.399 C254.175,27.513 254.388,27.666 254.556,27.858 C254.724,28.05 254.847,28.272 254.925,28.524 C255.003,28.776 255.042,29.04 255.042,29.316 L255.042,29.316 Z M261.45,38.82 L261.45,33.348 L261.486,33.348 C261.762,33.78 262.155,34.122 262.665,34.374 C263.175,34.626 263.736,34.752 264.348,34.752 C265.008,34.752 265.599,34.629 266.121,34.383 C266.643,34.137 267.087,33.807 267.453,33.393 C267.819,32.979 268.101,32.493 268.299,31.935 C268.497,31.377 268.596,30.78 268.596,30.144 C268.596,29.508 268.494,28.914 268.29,28.362 C268.086,27.81 267.798,27.33 267.426,26.922 C267.054,26.514 266.61,26.193 266.094,25.959 C265.578,25.725 265.014,25.608 264.402,25.608 C264.006,25.608 263.649,25.653 263.331,25.743 C263.013,25.833 262.728,25.947 262.476,26.085 C262.224,26.223 262.011,26.379 261.837,26.553 C261.663,26.727 261.522,26.898 261.414,27.066 L261.414,27.066 L261.36,27.066 L261.36,25.86 L259.29,25.86 L259.29,38.82 L261.45,38.82 Z M263.916,32.952 C263.52,32.952 263.166,32.871 262.854,32.709 C262.542,32.547 262.275,32.334 262.053,32.07 C261.831,31.806 261.663,31.509 261.549,31.179 C261.435,30.849 261.378,30.516 261.378,30.18 C261.378,29.844 261.435,29.508 261.549,29.172 C261.663,28.836 261.831,28.536 262.053,28.272 C262.275,28.008 262.542,27.792 262.854,27.624 C263.166,27.456 263.52,27.372 263.916,27.372 C264.336,27.372 264.702,27.453 265.014,27.615 C265.326,27.777 265.584,27.99 265.788,28.254 C265.992,28.518 266.145,28.815 266.247,29.145 C266.349,29.475 266.4,29.808 266.4,30.144 C266.4,30.48 266.349,30.816 266.247,31.152 C266.145,31.488 265.992,31.788 265.788,32.052 C265.584,32.316 265.326,32.532 265.014,32.7 C264.702,32.868 264.336,32.952 263.916,32.952 Z M271.782,24.222 C272.178,24.222 272.511,24.099 272.781,23.853 C273.051,23.607 273.186,23.298 273.186,22.926 C273.186,22.554 273.051,22.245 272.781,21.999 C272.511,21.753 272.178,21.63 271.782,21.63 C271.386,21.63 271.059,21.759 270.801,22.017 C270.543,22.275 270.414,22.578 270.414,22.926 C270.414,23.274 270.543,23.577 270.801,23.835 C271.059,24.093 271.386,24.222 271.782,24.222 Z M272.88,34.5 L272.88,25.86 L270.72,25.86 L270.72,34.5 L272.88,34.5 Z M277.668,34.5 L277.668,29.748 C277.668,29.46 277.71,29.175 277.794,28.893 C277.878,28.611 278.001,28.362 278.163,28.146 C278.325,27.93 278.532,27.753 278.784,27.615 C279.036,27.477 279.336,27.408 279.684,27.408 C280.032,27.408 280.311,27.48 280.521,27.624 C280.731,27.768 280.896,27.951 281.016,28.173 C281.136,28.395 281.214,28.644 281.25,28.92 C281.286,29.196 281.304,29.46 281.304,29.712 L281.304,29.712 L281.304,34.5 L283.464,34.5 L283.464,29.1 C283.464,28.656 283.404,28.224 283.284,27.804 C283.164,27.384 282.975,27.012 282.717,26.688 C282.459,26.364 282.129,26.103 281.727,25.905 C281.325,25.707 280.842,25.608 280.278,25.608 C279.63,25.608 279.069,25.773 278.595,26.103 C278.121,26.433 277.788,26.814 277.596,27.246 L277.596,27.246 L277.56,27.246 L277.56,25.86 L275.508,25.86 L275.508,34.5 L277.668,34.5 Z M289.89,38.82 C290.73,38.82 291.456,38.7 292.068,38.46 C292.68,38.22 293.187,37.881 293.589,37.443 C293.991,37.005 294.288,36.471 294.48,35.841 C294.672,35.211 294.768,34.506 294.768,33.726 L294.768,33.726 L294.768,25.86 L292.716,25.86 L292.716,27.156 L292.68,27.156 C292.368,26.628 291.948,26.238 291.42,25.986 C290.892,25.734 290.322,25.608 289.71,25.608 C289.062,25.608 288.477,25.728 287.955,25.968 C287.433,26.208 286.989,26.532 286.623,26.94 C286.257,27.348 285.975,27.828 285.777,28.38 C285.579,28.932 285.48,29.52 285.48,30.144 C285.48,30.756 285.582,31.335 285.786,31.881 C285.99,32.427 286.275,32.904 286.641,33.312 C287.007,33.72 287.454,34.044 287.982,34.284 C288.51,34.524 289.098,34.644 289.746,34.644 C290.346,34.644 290.889,34.533 291.375,34.311 C291.861,34.089 292.26,33.768 292.572,33.348 L292.572,33.348 L292.608,33.348 L292.608,33.978 C292.608,34.41 292.563,34.806 292.473,35.166 C292.383,35.526 292.233,35.838 292.023,36.102 C291.813,36.366 291.531,36.573 291.177,36.723 C290.823,36.873 290.388,36.948 289.872,36.948 C289.332,36.948 288.798,36.843 288.27,36.633 C287.742,36.423 287.268,36.12 286.848,35.724 L286.848,35.724 L285.606,37.398 C285.882,37.626 286.194,37.83 286.542,38.01 C286.89,38.19 287.253,38.34 287.631,38.46 C288.009,38.58 288.393,38.67 288.783,38.73 C289.173,38.79 289.542,38.82 289.89,38.82 Z M290.142,32.862 C289.758,32.862 289.413,32.784 289.107,32.628 C288.801,32.472 288.543,32.265 288.333,32.007 C288.123,31.749 287.961,31.458 287.847,31.134 C287.733,30.81 287.676,30.474 287.676,30.126 C287.676,29.742 287.733,29.382 287.847,29.046 C287.961,28.71 288.123,28.419 288.333,28.173 C288.543,27.927 288.801,27.732 289.107,27.588 C289.413,27.444 289.764,27.372 290.16,27.372 C290.556,27.372 290.91,27.444 291.222,27.588 C291.534,27.732 291.801,27.93 292.023,28.182 C292.245,28.434 292.416,28.728 292.536,29.064 C292.656,29.4 292.716,29.754 292.716,30.126 C292.716,30.486 292.656,30.831 292.536,31.161 C292.416,31.491 292.245,31.782 292.023,32.034 C291.801,32.286 291.531,32.487 291.213,32.637 C290.895,32.787 290.538,32.862 290.142,32.862 Z" id="PerformanceBookkeeping" fill="#EE4050" fill-rule="nonzero"></path>
            </g>
        </g>
    </g>
</svg>