<svg xmlns="http://www.w3.org/2000/svg" width="317" height="187" viewBox="0 0 317 187"><defs><mask id="vhy6b" width="2" height="2" x="-1" y="-1"><path fill="#fff" d="M4 7.17h289v158H4z"/><path d="M4 21.17c0-7.732 6.268-14 14-14h261c7.732 0 14 6.268 14 14v130c0 7.732-6.268 14-14 14H18c-7.732 0-14-6.268-14-14z"/></mask><filter id="vhy6a" width="347" height="213" x="-20" y="-16.83" filterUnits="userSpaceOnUse"><feOffset dx="10" dy="7" in="SourceGraphic" result="FeOffset1027Out"/><feGaussianBlur in="FeOffset1027Out" result="FeGaussianBlur1028Out" stdDeviation="5.6 5.6"/></filter><clipPath id="vhy6c"><path d="M4 21.17c0-7.732 6.268-14 14-14h261c7.732 0 14 6.268 14 14v130c0 7.732-6.268 14-14 14H18c-7.732 0-14-6.268-14-14z"/></clipPath><clipPath id="vhy6d"><path d="M22 45.17h253v102H22z"/></clipPath></defs><g><g><g><g><g filter="url(#vhy6a)"><path fill="none" d="M4 21.17c0-7.732 6.268-14 14-14h261c7.732 0 14 6.268 14 14v130c0 7.732-6.268 14-14 14H18c-7.732 0-14-6.268-14-14z" mask="url(&quot;#vhy6b&quot;)"/><path fill-opacity=".16" d="M4 21.17c0-7.732 6.268-14 14-14h261c7.732 0 14 6.268 14 14v130c0 7.732-6.268 14-14 14H18c-7.732 0-14-6.268-14-14z"/></g><path fill="#fff" d="M4 21.17c0-7.732 6.268-14 14-14h261c7.732 0 14 6.268 14 14v130c0 7.732-6.268 14-14 14H18c-7.732 0-14-6.268-14-14z"/></g><g clip-path="url(#vhy6c)"><g/><g clip-path="url(#vhy6d)"><path fill="#bae4ed" d="M290.227 148.917l-4.419-61.267-25.443 3.363-24.401 19.133-46.538 3.304-11.2 17.174-11.2-17.174-10.827-10.453-11.947 9.333h-33.227l-10.827 20.16-11.2-2.613-11.573.747-22.774-9.334-11.2 11.947H-34v15.68z"/><path fill="none" stroke="#67ccee" stroke-miterlimit="20" stroke-width="2" d="M290.227 148.917v0l-4.419-61.267v0l-25.443 3.363v0l-24.401 19.133v0l-46.538 3.304v0l-11.2 17.174v0l-11.2-17.174v0l-10.827-10.453v0l-11.947 9.333v0h-33.227v0l-10.827 20.16v0l-11.2-2.613v0l-11.573.747v0L54.65 121.29v0l-11.2 11.947v0H-34v15.68z"/></g></g></g><g><g><text dominant-baseline="text-before-edge" style="font-kerning:normal" fill="#4b4b4b" font-family="Poppins-SemiBold" font-size="13" transform="translate(25 23.5)"><tspan style="font-kerning:normal">Total Revenue</tspan></text></g></g><g opacity=".37"><g><text dominant-baseline="text-before-edge" style="font-kerning:normal" fill="#4b4b4b" font-family="Poppins-SemiBold" font-size="13" transform="translate(46 60.5)"><tspan style="font-kerning:normal">Up 5% from last year</tspan></text></g></g><g><path fill="#d8d8d8" d="M25 76.5h13l-6.5-12z"/></g></g></g></svg>