<svg xmlns="http://www.w3.org/2000/svg" width="41" height="41" viewBox="0 0 41 41"><g><g><g><path fill="#333091" d="M38.438 20.5c0-4.084-3.764-5.101-4.733-5.47.352-.768 2.426-4.276-.52-7.214-2.883-2.883-6.27-.945-7.216-.52-.288-.77-1.297-4.733-5.469-4.733-4.084 0-5.101 3.763-5.47 4.732-.744-.336-4.267-2.434-7.214.52-2.883 2.883-.945 6.27-.52 7.216-.77.288-4.733 1.297-4.733 5.469 0 4.084 3.763 5.101 4.732 5.47-.352.768-2.426 4.276.52 7.214 2.307 2.299 4.605 1.706 7.216.52.288.77 1.297 4.733 5.469 4.733 4.084 0 5.101-3.763 5.47-4.732 2.61 1.185 4.9 1.794 7.214-.52 2.883-2.883.945-6.27.52-7.216.77-.288 4.734-1.297 4.734-5.469zm-1.41 6.847a7.927 7.927 0 0 1-2.034 7.647 7.87 7.87 0 0 1-7.647 2.034C25.953 39.446 23.343 41 20.5 41c-2.843 0-5.453-1.554-6.847-3.972a7.88 7.88 0 0 1-7.647-2.034 7.927 7.927 0 0 1-2.034-7.647A7.927 7.927 0 0 1 0 20.5a7.927 7.927 0 0 1 3.972-6.847 7.927 7.927 0 0 1 2.034-7.647 7.927 7.927 0 0 1 7.647-2.034A7.927 7.927 0 0 1 20.5 0a7.927 7.927 0 0 1 6.847 3.972 7.927 7.927 0 0 1 7.647 2.034 7.927 7.927 0 0 1 2.034 7.647A7.927 7.927 0 0 1 41 20.5a7.927 7.927 0 0 1-3.972 6.847zm-13.803-7.404c2.233.64 3.63 3.054 2.817 5.428-.593 1.728-2.317 2.817-4.146 2.817h-.109v1.921a.64.64 0 0 1-.64.641h-1.283a.64.64 0 0 1-.641-.64v-1.923h-.111a5.62 5.62 0 0 1-3.438-1.161.651.651 0 0 1-.08-.98l.916-.914c.21-.21.549-.267.788-.093a3.07 3.07 0 0 0 1.814.586h2.958c.904 0 1.64-.735 1.64-1.64 0-.728-.49-1.376-1.192-1.578l-4.523-1.29c-1.715-.488-3.077-1.926-3.242-3.7a4.208 4.208 0 0 1 4.187-4.604h.283v-1.922a.64.64 0 0 1 .64-.64h1.283a.64.64 0 0 1 .641.64v1.922h.111a5.62 5.62 0 0 1 3.438 1.162c.315.241.36.7.08.98l-.916.914c-.21.21-.549.267-.788.093a3.07 3.07 0 0 0-1.814-.586H18.94c-.904 0-1.64.735-1.64 1.64 0 .728.49 1.376 1.192 1.577z"/></g></g></g></svg>