<?xml version="1.0" encoding="UTF-8"?>
<svg width="234px" height="86px" viewBox="0 0 234 86" version="1.1" xmlns="http://www.w3.org/2000/svg" xmlns:xlink="http://www.w3.org/1999/xlink">
    <title>tax-returns</title>
    <defs>
        <rect id="path-1" x="0" y="0" width="206" height="58" rx="11"></rect>
        <filter x="-7.5%" y="-30.2%" width="125.7%" height="191.4%" filterUnits="objectBoundingBox" id="filter-2">
            <feOffset dx="11" dy="9" in="SourceAlpha" result="shadowOffsetOuter1"></feOffset>
            <feGaussianBlur stdDeviation="7" in="shadowOffsetOuter1" result="shadowBlurOuter1"></feGaussianBlur>
            <feColorMatrix values="0 0 0 0 0   0 0 0 0 0   0 0 0 0 0  0 0 0 0.138904065 0" type="matrix" in="shadowBlurOuter1"></feColorMatrix>
        </filter>
    </defs>
    <g id="V2-DESIGNS" stroke="none" stroke-width="1" fill="none" fill-rule="evenodd">
        <g id="BOM-homepage--slide-1" transform="translate(-970.000000, -757.000000)">
            <g id="tax-returns" transform="translate(973.000000, 762.000000)">
                <g id="Rectangle">
                    <use fill="black" fill-opacity="1" filter="url(#filter-2)" xlink:href="#path-1"></use>
                    <use fill="#FFFFFF" fill-rule="evenodd" xlink:href="#path-1"></use>
                </g>
                <circle id="Oval" fill="#EE4050" cx="33" cy="30" r="17"></circle>
                <g id="icon_check@1x-copy-2" transform="translate(24.000000, 21.500000)" fill="#FFFFFF" fill-rule="nonzero">
                    <path d="M6.49547826,15.9563478 C6.52504348,15.98 6.54278261,16.0125217 6.57382609,16.0346957 C6.61817391,16.0642609 6.66843478,16.0701739 6.71573913,16.0908696 C6.77191304,16.1174783 6.8266087,16.1426087 6.88573913,16.1588696 C6.9433913,16.1736522 6.99956522,16.1810435 7.05869565,16.1854783 C7.14295652,16.1943478 7.22426087,16.1943478 7.30704348,16.1825217 C7.34104348,16.1766087 7.37356522,16.1677391 7.40756522,16.1588696 C7.50956522,16.1337391 7.60417391,16.0938261 7.69730435,16.0376522 C7.71356522,16.0273043 7.72686957,16.0154783 7.74313043,16.0051304 C7.80373913,15.9637391 7.86878261,15.9326957 7.92052174,15.8765217 C7.95747826,15.8366087 7.97373913,15.7848696 8.00330435,15.7405217 C8.00478261,15.7390435 8.00773913,15.7375652 8.00773913,15.736087 L16.8166957,1.61721739 C17.130087,1.13973913 16.9955652,0.498173913 16.5166087,0.184782609 C16.0376522,-0.128608696 15.3975652,0.00591304348 15.0841739,0.484869565 L6.94782609,13.5246087 L2.448,9.14747826 C2.02817391,8.75869565 1.37478261,8.78382609 0.986,9.20365217 C0.598695652,9.62347826 0.623826087,10.2783478 1.04365217,10.6656522 L6.45704348,15.9326957 C6.4673913,15.9430435 6.48217391,15.946 6.49547826,15.9563478 Z" id="Path"></path>
                </g>
                <path d="M74.329,34.5 L74.329,24.334 L78.018,24.334 L78.018,22.464 L68.498,22.464 L68.498,24.334 L72.187,24.334 L72.187,34.5 L74.329,34.5 Z M81.792,34.704 C82.37,34.704 82.8856667,34.5878333 83.339,34.3555 C83.7923333,34.1231667 84.121,33.8256667 84.325,33.463 L84.325,33.463 L84.376,33.463 L84.376,34.5 L86.28,34.5 L86.28,29.536 C86.28,29.128 86.2261667,28.72 86.1185,28.312 C86.0108333,27.904 85.821,27.5356667 85.549,27.207 C85.277,26.8783333 84.9058333,26.612 84.4355,26.408 C83.9651667,26.204 83.3673333,26.102 82.642,26.102 C82.0186667,26.102 81.4038333,26.2096667 80.7975,26.425 C80.1911667,26.6403333 79.6556667,26.9633333 79.191,27.394 L79.191,27.394 L80.245,28.635 C80.5056667,28.3743333 80.8343333,28.1533333 81.231,27.972 C81.6276667,27.7906667 82.0413333,27.7 82.472,27.7 C82.982,27.7 83.4211667,27.8218333 83.7895,28.0655 C84.1578333,28.3091667 84.342,28.686 84.342,29.196 L84.342,29.196 L84.342,29.4 C83.7073333,29.4 83.0585,29.4311667 82.3955,29.4935 C81.7325,29.5558333 81.129,29.6833333 80.585,29.876 C80.041,30.0686667 79.5961667,30.3463333 79.2505,30.709 C78.9048333,31.0716667 78.732,31.559 78.732,32.171 C78.732,32.647 78.8311667,33.0465 79.0295,33.3695 C79.2278333,33.6925 79.4771667,33.9531667 79.7775,34.1515 C80.0778333,34.3498333 80.4065,34.4915 80.7635,34.5765 C81.1205,34.6615 81.4633333,34.704 81.792,34.704 Z M82.2,33.157 C82.03,33.157 81.86,33.14 81.69,33.106 C81.52,33.072 81.367,33.0153333 81.231,32.936 C81.095,32.8566667 80.9845,32.7518333 80.8995,32.6215 C80.8145,32.4911667 80.772,32.3296667 80.772,32.137 C80.772,31.831 80.874,31.5901667 81.078,31.4145 C81.282,31.2388333 81.537,31.1028333 81.843,31.0065 C82.149,30.9101667 82.4833333,30.8478333 82.846,30.8195 C83.2086667,30.7911667 83.5543333,30.777 83.883,30.777 L83.883,30.777 L84.342,30.777 L84.342,31.066 C84.342,31.712 84.1606667,32.222 83.798,32.596 C83.4353333,32.97 82.9026667,33.157 82.2,33.157 Z M89.833,34.5 L91.975,31.525 L94.1,34.5 L96.582,34.5 L93.25,30.165 L96.174,26.34 L93.828,26.34 L92.009,28.873 L90.241,26.34 L87.793,26.34 L90.734,30.165 L87.419,34.5 L89.833,34.5 Z M104.283,34.5 L104.283,29.4 L105.847,29.4 L108.635,34.5 L111.219,34.5 L108.006,29.162 C108.856,28.9693333 109.5275,28.5981667 110.0205,28.0485 C110.5135,27.4988333 110.76,26.7876667 110.76,25.915 C110.76,25.2803333 110.635333,24.742 110.386,24.3 C110.136667,23.858 109.805167,23.501 109.3915,23.229 C108.977833,22.957 108.504667,22.7615 107.972,22.6425 C107.439333,22.5235 106.889667,22.464 106.323,22.464 L106.323,22.464 L102.141,22.464 L102.141,34.5 L104.283,34.5 Z M106.034,27.649 L104.283,27.649 L104.283,24.266 L106.221,24.266 C106.493,24.266 106.7735,24.2886667 107.0625,24.334 C107.3515,24.3793333 107.609333,24.4643333 107.836,24.589 C108.062667,24.7136667 108.249667,24.8808333 108.397,25.0905 C108.544333,25.3001667 108.618,25.5693333 108.618,25.898 C108.618,26.2606667 108.538667,26.5581667 108.38,26.7905 C108.221333,27.0228333 108.020167,27.2013333 107.7765,27.326 C107.532833,27.4506667 107.258,27.5356667 106.952,27.581 C106.646,27.6263333 106.34,27.649 106.034,27.649 L106.034,27.649 Z M116.642,34.738 C118.172,34.738 119.339333,34.194 120.144,33.106 L120.144,33.106 L118.784,32.018 C118.557333,32.3466667 118.268333,32.6045 117.917,32.7915 C117.565667,32.9785 117.135,33.072 116.625,33.072 C116.330333,33.072 116.047,33.021 115.775,32.919 C115.503,32.817 115.259333,32.6781667 115.044,32.5025 C114.828667,32.3268333 114.655833,32.1171667 114.5255,31.8735 C114.395167,31.6298333 114.318667,31.3606667 114.296,31.066 L114.296,31.066 L120.501,31.066 C120.512333,30.9753333 120.518,30.8846667 120.518,30.794 L120.518,30.794 L120.518,30.522 C120.518,29.7853333 120.418833,29.1421667 120.2205,28.5925 C120.022167,28.0428333 119.747333,27.5838333 119.396,27.2155 C119.044667,26.8471667 118.628167,26.5695 118.1465,26.3825 C117.664833,26.1955 117.140667,26.102 116.574,26.102 C115.962,26.102 115.3925,26.2068333 114.8655,26.4165 C114.3385,26.6261667 113.882333,26.9208333 113.497,27.3005 C113.111667,27.6801667 112.8085,28.1391667 112.5875,28.6775 C112.3665,29.2158333 112.256,29.8136667 112.256,30.471 C112.256,31.1396667 112.3665,31.7375 112.5875,32.2645 C112.8085,32.7915 113.1145,33.2363333 113.5055,33.599 C113.8965,33.9616667 114.358333,34.2421667 114.891,34.4405 C115.423667,34.6388333 116.007333,34.738 116.642,34.738 Z M118.478,29.604 L114.296,29.604 C114.341333,29.026 114.5765,28.5528333 115.0015,28.1845 C115.4265,27.8161667 115.945,27.632 116.557,27.632 C116.885667,27.632 117.171833,27.6858333 117.4155,27.7935 C117.659167,27.9011667 117.860333,28.0456667 118.019,28.227 C118.177667,28.4083333 118.293833,28.618 118.3675,28.856 C118.441167,29.094 118.478,29.3433333 118.478,29.604 L118.478,29.604 Z M125.397,34.67 C125.623667,34.67 125.861667,34.6501667 126.111,34.6105 C126.360333,34.5708333 126.575667,34.517 126.757,34.449 L126.757,34.449 L126.689,32.851 C126.564333,32.9076667 126.422667,32.9501667 126.264,32.9785 C126.105333,33.0068333 125.958,33.021 125.822,33.021 C125.368667,33.021 125.076833,32.902 124.9465,32.664 C124.816167,32.426 124.751,32.1256667 124.751,31.763 L124.751,31.763 L124.751,27.972 L126.791,27.972 L126.791,26.34 L124.751,26.34 L124.751,23.977 L122.745,23.977 L122.745,26.34 L121.317,26.34 L121.317,27.972 L122.745,27.972 L122.745,31.78 C122.745,32.1766667 122.781833,32.5478333 122.8555,32.8935 C122.929167,33.2391667 123.065167,33.5451667 123.2635,33.8115 C123.461833,34.0778333 123.731,34.2875 124.071,34.4405 C124.411,34.5935 124.853,34.67 125.397,34.67 Z M131.211,34.738 C131.823,34.738 132.352833,34.5821667 132.8005,34.2705 C133.248167,33.9588333 133.562667,33.599 133.744,33.191 L133.744,33.191 L133.778,33.191 L133.778,34.5 L135.716,34.5 L135.716,26.34 L133.676,26.34 L133.676,30.828 C133.676,31.1 133.636333,31.3691667 133.557,31.6355 C133.477667,31.9018333 133.3615,32.137 133.2085,32.341 C133.0555,32.545 132.857167,32.7121667 132.6135,32.8425 C132.369833,32.9728333 132.089333,33.038 131.772,33.038 C131.443333,33.038 131.179833,32.97 130.9815,32.834 C130.783167,32.698 130.627333,32.5251667 130.514,32.3155 C130.400667,32.1058333 130.327,31.8706667 130.293,31.61 C130.259,31.3493333 130.242,31.1 130.242,30.862 L130.242,30.862 L130.242,26.34 L128.202,26.34 L128.202,31.44 C128.202,31.8593333 128.258667,32.2673333 128.372,32.664 C128.485333,33.0606667 128.663833,33.412 128.9075,33.718 C129.151167,34.024 129.462833,34.2705 129.8425,34.4575 C130.222167,34.6445 130.678333,34.738 131.211,34.738 Z M140.204,34.5 L140.204,30.131 C140.204,29.9836667 140.232333,29.7853333 140.289,29.536 C140.345667,29.2866667 140.453333,29.043 140.612,28.805 C140.770667,28.567 140.991667,28.363 141.275,28.193 C141.558333,28.023 141.932333,27.938 142.397,27.938 C142.487667,27.938 142.581167,27.9436667 142.6775,27.955 C142.773833,27.9663333 142.89,27.989 143.026,28.023 L143.026,28.023 L143.026,26.153 C142.958,26.1303333 142.878667,26.1161667 142.788,26.1105 C142.697333,26.1048333 142.612333,26.102 142.533,26.102 C141.989,26.102 141.513,26.2493333 141.105,26.544 C140.697,26.8386667 140.379667,27.224 140.153,27.7 L140.153,27.7 L140.119,27.7 L140.119,26.34 L138.164,26.34 L138.164,34.5 L140.204,34.5 Z M146.392,34.5 L146.392,30.012 C146.392,29.74 146.431667,29.4708333 146.511,29.2045 C146.590333,28.9381667 146.7065,28.703 146.8595,28.499 C147.0125,28.295 147.208,28.1278333 147.446,27.9975 C147.684,27.8671667 147.967333,27.802 148.296,27.802 C148.624667,27.802 148.888167,27.87 149.0865,28.006 C149.284833,28.142 149.440667,28.3148333 149.554,28.5245 C149.667333,28.7341667 149.741,28.9693333 149.775,29.23 C149.809,29.4906667 149.826,29.74 149.826,29.978 L149.826,29.978 L149.826,34.5 L151.866,34.5 L151.866,29.4 C151.866,28.9806667 151.809333,28.5726667 151.696,28.176 C151.582667,27.7793333 151.404167,27.428 151.1605,27.122 C150.916833,26.816 150.605167,26.5695 150.2255,26.3825 C149.845833,26.1955 149.389667,26.102 148.857,26.102 C148.245,26.102 147.715167,26.2578333 147.2675,26.5695 C146.819833,26.8811667 146.505333,27.241 146.324,27.649 L146.324,27.649 L146.29,27.649 L146.29,26.34 L144.352,26.34 L144.352,34.5 L146.392,34.5 Z M156.626,34.738 C157.068,34.738 157.495833,34.6898333 157.9095,34.5935 C158.323167,34.4971667 158.685833,34.3413333 158.9975,34.126 C159.309167,33.9106667 159.5585,33.6301667 159.7455,33.2845 C159.9325,32.9388333 160.026,32.5166667 160.026,32.018 C160.026,31.6213333 159.946667,31.2841667 159.788,31.0065 C159.629333,30.7288333 159.4225,30.4965 159.1675,30.3095 C158.9125,30.1225 158.629167,29.9723333 158.3175,29.859 C158.005833,29.7456667 157.697,29.655 157.391,29.587 C156.813,29.451 156.373833,29.3178333 156.0735,29.1875 C155.773167,29.0571667 155.623,28.8333333 155.623,28.516 C155.623,28.1986667 155.759,27.972 156.031,27.836 C156.303,27.7 156.603333,27.632 156.932,27.632 C157.306,27.632 157.651667,27.7198333 157.969,27.8955 C158.286333,28.0711667 158.535667,28.278 158.717,28.516 L158.717,28.516 L160.043,27.343 C159.714333,26.9236667 159.2695,26.612 158.7085,26.408 C158.1475,26.204 157.572333,26.102 156.983,26.102 C156.575,26.102 156.178333,26.153 155.793,26.255 C155.407667,26.357 155.062,26.5128333 154.756,26.7225 C154.45,26.9321667 154.2035,27.2013333 154.0165,27.53 C153.8295,27.8586667 153.736,28.2496667 153.736,28.703 C153.736,29.0883333 153.804,29.4113333 153.94,29.672 C154.076,29.9326667 154.257333,30.1508333 154.484,30.3265 C154.710667,30.5021667 154.9685,30.6438333 155.2575,30.7515 C155.5465,30.8591667 155.844,30.947 156.15,31.015 C156.773333,31.1623333 157.240833,31.3096667 157.5525,31.457 C157.864167,31.6043333 158.02,31.848 158.02,32.188 C158.02,32.3693333 157.980333,32.5223333 157.901,32.647 C157.821667,32.7716667 157.716833,32.8708333 157.5865,32.9445 C157.456167,33.0181667 157.3145,33.072 157.1615,33.106 C157.0085,33.14 156.858333,33.157 156.711,33.157 C156.269,33.157 155.866667,33.0606667 155.504,32.868 C155.141333,32.6753333 154.846667,32.4316667 154.62,32.137 L154.62,32.137 L153.277,33.395 C153.673667,33.8256667 154.172333,34.1571667 154.773,34.3895 C155.373667,34.6218333 155.991333,34.738 156.626,34.738 Z" id="TaxReturns" fill="#EE4050" fill-rule="nonzero"></path>
            </g>
        </g>
    </g>
</svg>