<?xml version="1.0" encoding="UTF-8"?>
<svg width="203px" height="86px" viewBox="0 0 203 86" version="1.1" xmlns="http://www.w3.org/2000/svg" xmlns:xlink="http://www.w3.org/1999/xlink">
    <title>tax-returns</title>
    <defs>
        <rect id="path-1" x="0" y="0" width="175" height="58" rx="11"></rect>
        <filter x="-8.9%" y="-30.2%" width="130.3%" height="191.4%" filterUnits="objectBoundingBox" id="filter-2">
            <feOffset dx="11" dy="9" in="SourceAlpha" result="shadowOffsetOuter1"></feOffset>
            <feGaussianBlur stdDeviation="7" in="shadowOffsetOuter1" result="shadowBlurOuter1"></feGaussianBlur>
            <feColorMatrix values="0 0 0 0 0   0 0 0 0 0   0 0 0 0 0  0 0 0 0.138904065 0" type="matrix" in="shadowBlurOuter1"></feColorMatrix>
        </filter>
    </defs>
    <g id="V2-DESIGNS" stroke="none" stroke-width="1" fill="none" fill-rule="evenodd">
        <g id="BOM-homepage--slide-1" transform="translate(-1456.000000, -2367.000000)">
            <g id="Group-31" transform="translate(953.000000, 1905.000000)">
                <g id="Group-20" transform="translate(107.000000, 0.000000)">
                    <g id="Group-24" transform="translate(399.000000, 243.000000)">
                        <g id="tax-returns" transform="translate(0.000000, 224.000000)">
                            <g id="Rectangle">
                                <use fill="black" fill-opacity="1" filter="url(#filter-2)" xlink:href="#path-1"></use>
                                <use fill="#FFFFFF" fill-rule="evenodd" xlink:href="#path-1"></use>
                            </g>
                            <circle id="Oval" fill="#333091" cx="33" cy="30" r="17"></circle>
                            <g id="icon_check@1x-copy-2" transform="translate(24.000000, 21.500000)" fill="#FFFFFF" fill-rule="nonzero">
                                <path d="M6.49547826,15.9563478 C6.52504348,15.98 6.54278261,16.0125217 6.57382609,16.0346957 C6.61817391,16.0642609 6.66843478,16.0701739 6.71573913,16.0908696 C6.77191304,16.1174783 6.8266087,16.1426087 6.88573913,16.1588696 C6.9433913,16.1736522 6.99956522,16.1810435 7.05869565,16.1854783 C7.14295652,16.1943478 7.22426087,16.1943478 7.30704348,16.1825217 C7.34104348,16.1766087 7.37356522,16.1677391 7.40756522,16.1588696 C7.50956522,16.1337391 7.60417391,16.0938261 7.69730435,16.0376522 C7.71356522,16.0273043 7.72686957,16.0154783 7.74313043,16.0051304 C7.80373913,15.9637391 7.86878261,15.9326957 7.92052174,15.8765217 C7.95747826,15.8366087 7.97373913,15.7848696 8.00330435,15.7405217 C8.00478261,15.7390435 8.00773913,15.7375652 8.00773913,15.736087 L16.8166957,1.61721739 C17.130087,1.13973913 16.9955652,0.498173913 16.5166087,0.184782609 C16.0376522,-0.128608696 15.3975652,0.00591304348 15.0841739,0.484869565 L6.94782609,13.5246087 L2.448,9.14747826 C2.02817391,8.75869565 1.37478261,8.78382609 0.986,9.20365217 C0.598695652,9.62347826 0.623826087,10.2783478 1.04365217,10.6656522 L6.45704348,15.9326957 C6.4673913,15.9430435 6.48217391,15.946 6.49547826,15.9563478 Z" id="Path"></path>
                            </g>
                            <path d="M70.918,35 L70.918,26.628 L73.956,26.628 L73.956,25.088 L66.116,25.088 L66.116,26.628 L69.154,26.628 L69.154,35 L70.918,35 Z M77.064,35.168 C77.54,35.168 77.9646667,35.0723333 78.338,34.881 C78.7113333,34.6896667 78.982,34.4446667 79.15,34.146 L79.15,34.146 L79.192,34.146 L79.192,35 L80.76,35 L80.76,30.912 C80.76,30.576 80.7156667,30.24 80.627,29.904 C80.5383333,29.568 80.382,29.2646667 80.158,28.994 C79.934,28.7233333 79.6283333,28.504 79.241,28.336 C78.8536667,28.168 78.3613333,28.084 77.764,28.084 C77.2506667,28.084 76.7443333,28.1726667 76.245,28.35 C75.7456667,28.5273333 75.3046667,28.7933333 74.922,29.148 L74.922,29.148 L75.79,30.17 C76.0046667,29.9553333 76.2753333,29.7733333 76.602,29.624 C76.9286667,29.4746667 77.2693333,29.4 77.624,29.4 C78.044,29.4 78.4056667,29.5003333 78.709,29.701 C79.0123333,29.9016667 79.164,30.212 79.164,30.632 L79.164,30.632 L79.164,30.8 C78.6413333,30.8 78.107,30.8256667 77.561,30.877 C77.015,30.9283333 76.518,31.0333333 76.07,31.192 C75.622,31.3506667 75.2556667,31.5793333 74.971,31.878 C74.6863333,32.1766667 74.544,32.578 74.544,33.082 C74.544,33.474 74.6256667,33.803 74.789,34.069 C74.9523333,34.335 75.1576667,34.5496667 75.405,34.713 C75.6523333,34.8763333 75.923,34.993 76.217,35.063 C76.511,35.133 76.7933333,35.168 77.064,35.168 Z M77.4,33.894 C77.26,33.894 77.12,33.88 76.98,33.852 C76.84,33.824 76.714,33.7773333 76.602,33.712 C76.49,33.6466667 76.399,33.5603333 76.329,33.453 C76.259,33.3456667 76.224,33.2126667 76.224,33.054 C76.224,32.802 76.308,32.6036667 76.476,32.459 C76.644,32.3143333 76.854,32.2023333 77.106,32.123 C77.358,32.0436667 77.6333333,31.9923333 77.932,31.969 C78.2306667,31.9456667 78.5153333,31.934 78.786,31.934 L78.786,31.934 L79.164,31.934 L79.164,32.172 C79.164,32.704 79.0146667,33.124 78.716,33.432 C78.4173333,33.74 77.9786667,33.894 77.4,33.894 Z M83.686,35 L85.45,32.55 L87.2,35 L89.244,35 L86.5,31.43 L88.908,28.28 L86.976,28.28 L85.478,30.366 L84.022,28.28 L82.006,28.28 L84.428,31.43 L81.698,35 L83.686,35 Z M95.586,35 L95.586,30.8 L96.874,30.8 L99.17,35 L101.298,35 L98.652,30.604 C99.352,30.4453333 99.905,30.1396667 100.311,29.687 C100.717,29.2343333 100.92,28.6486667 100.92,27.93 C100.92,27.4073333 100.817333,26.964 100.612,26.6 C100.406667,26.236 100.133667,25.942 99.793,25.718 C99.4523333,25.494 99.0626667,25.333 98.624,25.235 C98.1853333,25.137 97.7326667,25.088 97.266,25.088 L97.266,25.088 L93.822,25.088 L93.822,35 L95.586,35 Z M97.028,29.358 L95.586,29.358 L95.586,26.572 L97.182,26.572 C97.406,26.572 97.637,26.5906667 97.875,26.628 C98.113,26.6653333 98.3253333,26.7353333 98.512,26.838 C98.6986667,26.9406667 98.8526667,27.0783333 98.974,27.251 C99.0953333,27.4236667 99.156,27.6453333 99.156,27.916 C99.156,28.2146667 99.0906667,28.4596667 98.96,28.651 C98.8293333,28.8423333 98.6636667,28.9893333 98.463,29.092 C98.2623333,29.1946667 98.036,29.2646667 97.784,29.302 C97.532,29.3393333 97.28,29.358 97.028,29.358 L97.028,29.358 Z M105.764,35.196 C107.024,35.196 107.985333,34.748 108.648,33.852 L108.648,33.852 L107.528,32.956 C107.341333,33.2266667 107.103333,33.439 106.814,33.593 C106.524667,33.747 106.17,33.824 105.75,33.824 C105.507333,33.824 105.274,33.782 105.05,33.698 C104.826,33.614 104.625333,33.4996667 104.448,33.355 C104.270667,33.2103333 104.128333,33.0376667 104.021,32.837 C103.913667,32.6363333 103.850667,32.4146667 103.832,32.172 L103.832,32.172 L108.942,32.172 C108.951333,32.0973333 108.956,32.0226667 108.956,31.948 L108.956,31.948 L108.956,31.724 C108.956,31.1173333 108.874333,30.5876667 108.711,30.135 C108.547667,29.6823333 108.321333,29.3043333 108.032,29.001 C107.742667,28.6976667 107.399667,28.469 107.003,28.315 C106.606333,28.161 106.174667,28.084 105.708,28.084 C105.204,28.084 104.735,28.1703333 104.301,28.343 C103.867,28.5156667 103.491333,28.7583333 103.174,29.071 C102.856667,29.3836667 102.607,29.7616667 102.425,30.205 C102.243,30.6483333 102.152,31.1406667 102.152,31.682 C102.152,32.2326667 102.243,32.725 102.425,33.159 C102.607,33.593 102.859,33.9593333 103.181,34.258 C103.503,34.5566667 103.883333,34.7876667 104.322,34.951 C104.760667,35.1143333 105.241333,35.196 105.764,35.196 Z M107.276,30.968 L103.832,30.968 C103.869333,30.492 104.063,30.1023333 104.413,29.799 C104.763,29.4956667 105.19,29.344 105.694,29.344 C105.964667,29.344 106.200333,29.3883333 106.401,29.477 C106.601667,29.5656667 106.767333,29.6846667 106.898,29.834 C107.028667,29.9833333 107.124333,30.156 107.185,30.352 C107.245667,30.548 107.276,30.7533333 107.276,30.968 L107.276,30.968 Z M112.974,35.14 C113.160667,35.14 113.356667,35.1236667 113.562,35.091 C113.767333,35.0583333 113.944667,35.014 114.094,34.958 L114.094,34.958 L114.038,33.642 C113.935333,33.6886667 113.818667,33.7236667 113.688,33.747 C113.557333,33.7703333 113.436,33.782 113.324,33.782 C112.950667,33.782 112.710333,33.684 112.603,33.488 C112.495667,33.292 112.442,33.0446667 112.442,32.746 L112.442,32.746 L112.442,29.624 L114.122,29.624 L114.122,28.28 L112.442,28.28 L112.442,26.334 L110.79,26.334 L110.79,28.28 L109.614,28.28 L109.614,29.624 L110.79,29.624 L110.79,32.76 C110.79,33.0866667 110.820333,33.3923333 110.881,33.677 C110.941667,33.9616667 111.053667,34.2136667 111.217,34.433 C111.380333,34.6523333 111.602,34.825 111.882,34.951 C112.162,35.077 112.526,35.14 112.974,35.14 Z M117.762,35.196 C118.266,35.196 118.702333,35.0676667 119.071,34.811 C119.439667,34.5543333 119.698667,34.258 119.848,33.922 L119.848,33.922 L119.876,33.922 L119.876,35 L121.472,35 L121.472,28.28 L119.792,28.28 L119.792,31.976 C119.792,32.2 119.759333,32.4216667 119.694,32.641 C119.628667,32.8603333 119.533,33.054 119.407,33.222 C119.281,33.39 119.117667,33.5276667 118.917,33.635 C118.716333,33.7423333 118.485333,33.796 118.224,33.796 C117.953333,33.796 117.736333,33.74 117.573,33.628 C117.409667,33.516 117.281333,33.3736667 117.188,33.201 C117.094667,33.0283333 117.034,32.8346667 117.006,32.62 C116.978,32.4053333 116.964,32.2 116.964,32.004 L116.964,32.004 L116.964,28.28 L115.284,28.28 L115.284,32.48 C115.284,32.8253333 115.330667,33.1613333 115.424,33.488 C115.517333,33.8146667 115.664333,34.104 115.865,34.356 C116.065667,34.608 116.322333,34.811 116.635,34.965 C116.947667,35.119 117.323333,35.196 117.762,35.196 Z M125.168,35 L125.168,31.402 C125.168,31.2806667 125.191333,31.1173333 125.238,30.912 C125.284667,30.7066667 125.373333,30.506 125.504,30.31 C125.634667,30.114 125.816667,29.946 126.05,29.806 C126.283333,29.666 126.591333,29.596 126.974,29.596 C127.048667,29.596 127.125667,29.6006667 127.205,29.61 C127.284333,29.6193333 127.38,29.638 127.492,29.666 L127.492,29.666 L127.492,28.126 C127.436,28.1073333 127.370667,28.0956667 127.296,28.091 C127.221333,28.0863333 127.151333,28.084 127.086,28.084 C126.638,28.084 126.246,28.2053333 125.91,28.448 C125.574,28.6906667 125.312667,29.008 125.126,29.4 L125.126,29.4 L125.098,29.4 L125.098,28.28 L123.488,28.28 L123.488,35 L125.168,35 Z M130.264,35 L130.264,31.304 C130.264,31.08 130.296667,30.8583333 130.362,30.639 C130.427333,30.4196667 130.523,30.226 130.649,30.058 C130.775,29.89 130.936,29.7523333 131.132,29.645 C131.328,29.5376667 131.561333,29.484 131.832,29.484 C132.102667,29.484 132.319667,29.54 132.483,29.652 C132.646333,29.764 132.774667,29.9063333 132.868,30.079 C132.961333,30.2516667 133.022,30.4453333 133.05,30.66 C133.078,30.8746667 133.092,31.08 133.092,31.276 L133.092,31.276 L133.092,35 L134.772,35 L134.772,30.8 C134.772,30.4546667 134.725333,30.1186667 134.632,29.792 C134.538667,29.4653333 134.391667,29.176 134.191,28.924 C133.990333,28.672 133.733667,28.469 133.421,28.315 C133.108333,28.161 132.732667,28.084 132.294,28.084 C131.79,28.084 131.353667,28.2123333 130.985,28.469 C130.616333,28.7256667 130.357333,29.022 130.208,29.358 L130.208,29.358 L130.18,29.358 L130.18,28.28 L128.584,28.28 L128.584,35 L130.264,35 Z M138.692,35.196 C139.056,35.196 139.408333,35.1563333 139.749,35.077 C140.089667,34.9976667 140.388333,34.8693333 140.645,34.692 C140.901667,34.5146667 141.107,34.2836667 141.261,33.999 C141.415,33.7143333 141.492,33.3666667 141.492,32.956 C141.492,32.6293333 141.426667,32.3516667 141.296,32.123 C141.165333,31.8943333 140.995,31.703 140.785,31.549 C140.575,31.395 140.341667,31.2713333 140.085,31.178 C139.828333,31.0846667 139.574,31.01 139.322,30.954 C138.846,30.842 138.484333,30.7323333 138.237,30.625 C137.989667,30.5176667 137.866,30.3333333 137.866,30.072 C137.866,29.8106667 137.978,29.624 138.202,29.512 C138.426,29.4 138.673333,29.344 138.944,29.344 C139.252,29.344 139.536667,29.4163333 139.798,29.561 C140.059333,29.7056667 140.264667,29.876 140.414,30.072 L140.414,30.072 L141.506,29.106 C141.235333,28.7606667 140.869,28.504 140.407,28.336 C139.945,28.168 139.471333,28.084 138.986,28.084 C138.65,28.084 138.323333,28.126 138.006,28.21 C137.688667,28.294 137.404,28.4223333 137.152,28.595 C136.9,28.7676667 136.697,28.9893333 136.543,29.26 C136.389,29.5306667 136.312,29.8526667 136.312,30.226 C136.312,30.5433333 136.368,30.8093333 136.48,31.024 C136.592,31.2386667 136.741333,31.4183333 136.928,31.563 C137.114667,31.7076667 137.327,31.8243333 137.565,31.913 C137.803,32.0016667 138.048,32.074 138.3,32.13 C138.813333,32.2513333 139.198333,32.3726667 139.455,32.494 C139.711667,32.6153333 139.84,32.816 139.84,33.096 C139.84,33.2453333 139.807333,33.3713333 139.742,33.474 C139.676667,33.5766667 139.590333,33.6583333 139.483,33.719 C139.375667,33.7796667 139.259,33.824 139.133,33.852 C139.007,33.88 138.883333,33.894 138.762,33.894 C138.398,33.894 138.066667,33.8146667 137.768,33.656 C137.469333,33.4973333 137.226667,33.2966667 137.04,33.054 L137.04,33.054 L135.934,34.09 C136.260667,34.4446667 136.671333,34.7176667 137.166,34.909 C137.660667,35.1003333 138.169333,35.196 138.692,35.196 Z" id="TaxReturns" fill="#333091" fill-rule="nonzero"></path>
                        </g>
                    </g>
                </g>
            </g>
        </g>
    </g>
</svg>