<svg xmlns="http://www.w3.org/2000/svg" width="40" height="40" viewBox="0 0 40 40"><g><g><g><path fill="#333091" d="M6.589 31.578a1.823 1.823 0 1 0 0 3.646 1.823 1.823 0 0 0 0-3.646zm28.637-10.033c1.217.887 1.217 4.542-.426 5.38 1.03 1.734.102 4.053-1.144 4.722.632 4-1.443 5.376-4.356 5.405-.252.002-2.836 0-3.1 0-5.554 0-10.26-3.102-13.512-3.102V18.443c2.87 0 5.505-5.173 8.084-7.753 2.326-2.326 1.55-6.203 3.101-7.753 3.877 0 3.877 2.704 3.877 4.652 0 3.212-2.326 4.652-2.326 7.753h8.528c1.73 0 3.093 1.55 3.1 3.101.008 1.551-.609 2.77-1.826 3.102zM2.938 37.062v-19.5h7.312v19.5zM38.33 22.261c.756-.98 1.169-2.261 1.169-3.825 0-2.87-2.443-5.528-5.54-5.528h-5.343c.664-1.323 1.576-2.964 1.576-5.318 0-4.449-1.775-7.09-6.315-7.09-2.285 0-3.133 2.888-3.567 5.12-.26 1.335-.505 2.595-1.259 3.349-1.795 1.795-4.536 6.156-6.183 7.041-.167.07-.38.126-.612.17a2.434 2.434 0 0 0-2.007-1.055H2.937A2.438 2.438 0 0 0 .5 17.562v19.5A2.438 2.438 0 0 0 2.937 39.5h7.313a2.438 2.438 0 0 0 2.437-2.438v-.665c2.476 0 7.67 3.104 13.518 3.102.419 0 2.867.002 3.124 0 4.515.001 7.027-2.734 6.88-6.84 1.153-1.35 1.717-3.3 1.389-5.111.949-1.488 1.152-3.586.733-5.287z"/></g></g></g></svg>