<svg xmlns="http://www.w3.org/2000/svg" width="46" height="37" viewBox="0 0 46 37"><g><g><path fill="#333091" d="M38.426 13.8l-2.776-2.776-2.776 2.776H26.87c-.63-2.62-1.14-4.106-1.16-4.169C27.705 7.906 30.481 6.9 33.403 6.9c5.13 0 9.56 2.961 10.152 6.9zM26.023 34.5l-6.473.004c1.016-3.66 3.042-12.323 2.32-20.733l2.023-2.217c.872 3.03 3.616 13.674 2.13 22.946zM9.243 24.164c-2.255-3.296-1.218-8.516 2.41-12.139 2.335-2.333 5.28-3.577 7.966-3.577a7.527 7.527 0 0 1 3.322.735zM9.195 6.578L5.921 9.2 2.3 9.188C3.04 5.26 7.464 2.3 12.59 2.3c3.857 0 7.21 1.645 9.005 4.066-3.105-.596-6.634.25-9.649 2.411zM33.404 4.6c-3.207 0-6.262 1.063-8.616 2.865C23.25 3.162 18.372 0 12.596 0 6.278 0 .996 3.685.04 8.76c-.265 1.406.856 2.74 2.405 2.74H6.73L9.2 9.522l.955.765c-.04.04-.087.072-.128.111-4.47 4.47-5.598 10.81-2.685 15.074.79 1.156 2.508 1.369 3.673.199l8.67-9.503c.216 7.31-1.462 14.513-2.352 17.723a2.289 2.289 0 0 0 2.19 2.909h6.5a2.276 2.276 0 0 0 2.256-1.924c1.078-6.684.12-13.851-.898-18.776h6.445l1.824-1.824 1.824 1.824h6.082c1.543 0 2.67-1.325 2.405-2.74-.956-5.075-6.24-8.76-12.557-8.76z"/></g></g></svg>