<svg xmlns="http://www.w3.org/2000/svg" width="65" height="102" viewBox="0 0 65 102"><defs><clipPath id="1ujxa"><path d="M-15.63 50.11h83.78v22.7h-83.78z"/></clipPath><clipPath id="1ujxb"><path d="M4.35 28.69h70.527v29.07H4.35z"/></clipPath></defs><g><g transform="rotate(-68 32.5 51)"><g><g/><g clip-path="url(#1ujxa)"><path fill="#fff" d="M66.06 64.285c-22.012-13.48-56.41-20.26-80.268-7.035-2.593 1.439-1.403 5.546 1.66 5.004 12.734-2.256 24.002-5.265 37.173-3.642 12.886 1.589 25.354 6.372 36.213 13.416 5.048 3.275 10.347-4.605 5.223-7.743"/></g></g><g><g/><g clip-path="url(#1ujxb)"><path fill="#fff" d="M73.306 50.933C54.55 37.81 30.187 27.65 6.916 28.775c-3.227.156-3.495 4.394-.32 4.982C29.56 38.01 49.72 43.47 69.164 57.074c3.908 2.734 8.05-3.407 4.142-6.141"/></g></g></g></g></svg>